<svg width="49" height="49" viewBox="0 0 49 49" fill="none" xmlns="http://www.w3.org/2000/svg">
<rect width="49" height="49" rx="14" fill="white"/>
<path d="M34.4235 29.75H19.9546C14.9826 29.75 10.9375 25.6234 10.9375 20.5508C10.9375 16.0599 14.5183 12.4062 18.9198 12.4062C23.3214 12.4062 26.902 16.0599 26.902 20.5508C26.902 24.4602 23.7852 27.6406 19.9546 27.6406C16.124 27.6406 13.007 24.4602 13.007 20.5508C13.007 17.2231 15.6595 14.5156 18.9198 14.5156C22.1802 14.5156 24.8324 17.2231 24.8324 20.5508C24.8444 21.8576 24.3376 23.1158 23.4231 24.0494C22.5087 24.9831 21.2614 25.516 19.9546 25.5312C18.6478 25.5161 17.4003 24.9832 16.4859 24.0496C15.5714 23.1159 15.0646 21.8576 15.0766 20.5508C15.0669 19.5209 15.466 18.5292 16.1865 17.7933C16.907 17.0573 17.89 16.6372 18.9198 16.625C19.9496 16.6372 20.9326 17.0574 21.653 17.7934C22.3734 18.5293 22.7726 19.5209 22.7629 20.5508C22.7713 20.9249 22.7048 21.2968 22.5674 21.6449C22.4301 21.9929 22.2246 22.31 21.963 22.5775C21.7014 22.8451 21.3889 23.0576 21.0441 23.2027C20.6992 23.3479 20.3288 23.4226 19.9546 23.4226C19.5804 23.4226 19.21 23.3479 18.8652 23.2027C18.5203 23.0576 18.2079 22.8451 17.9463 22.5775C17.6847 22.31 17.4791 21.9929 17.3418 21.6449C17.2044 21.2968 17.138 20.9249 17.1463 20.5508C17.1402 20.3141 17.1816 20.0785 17.268 19.858C17.3544 19.6376 17.484 19.4366 17.6493 19.267C17.8146 19.0974 18.0121 18.9627 18.2303 18.8706C18.4485 18.7786 18.6829 18.7312 18.9197 18.7312C19.1565 18.7312 19.3909 18.7786 19.6091 18.8706C19.8273 18.9627 20.0249 19.0974 20.1901 19.267C20.3554 19.4366 20.4851 19.6376 20.5715 19.858C20.6578 20.0785 20.6992 20.3141 20.6931 20.5508C20.6967 20.65 20.6802 20.7489 20.6447 20.8416C20.6091 20.9342 20.5553 21.0188 20.4864 21.0903C20.4174 21.1617 20.3348 21.2185 20.2435 21.2573C20.1521 21.2961 20.0539 21.3161 19.9546 21.3161C19.8553 21.3161 19.7571 21.2961 19.6657 21.2573C19.5744 21.2185 19.4918 21.1617 19.4228 21.0903C19.3539 21.0188 19.3001 20.9342 19.2646 20.8416C19.229 20.7489 19.2126 20.65 19.2161 20.5508C19.2161 20.4265 19.1667 20.3072 19.0788 20.2193C18.9909 20.1314 18.8717 20.082 18.7473 20.082C18.623 20.082 18.5038 20.1314 18.4159 20.2193C18.328 20.3072 18.2786 20.4265 18.2786 20.5508C18.2749 20.7732 18.3155 20.9942 18.398 21.2008C18.4806 21.4074 18.6035 21.5955 18.7595 21.7541C18.9155 21.9128 19.1015 22.0388 19.3067 22.1248C19.5119 22.2108 19.7321 22.2551 19.9546 22.2551C20.1771 22.2551 20.3974 22.2108 20.6026 22.1248C20.8077 22.0388 20.9938 21.9128 21.1498 21.7541C21.3058 21.5955 21.4286 21.4074 21.5112 21.2008C21.5937 20.9942 21.6343 20.7732 21.6306 20.5508C21.6364 20.1911 21.5706 19.8339 21.4369 19.4999C21.3033 19.1659 21.1045 18.8619 20.8522 18.6055C20.5999 18.3491 20.2991 18.1454 19.9674 18.0064C19.6356 17.8675 19.2794 17.7959 18.9197 17.7959C18.56 17.7959 18.2039 17.8675 17.8721 18.0064C17.5403 18.1454 17.2395 18.3491 16.9872 18.6055C16.7349 18.8619 16.5361 19.1659 16.4025 19.4999C16.2689 19.8339 16.203 20.1911 16.2088 20.5508C16.201 21.0477 16.292 21.5412 16.4768 22.0025C16.6615 22.4639 16.9361 22.8838 17.2847 23.238C17.6333 23.5922 18.0489 23.8734 18.5073 24.0654C18.9657 24.2574 19.4577 24.3563 19.9546 24.3563C20.4516 24.3563 20.9435 24.2574 21.4019 24.0654C21.8603 23.8734 22.2759 23.5922 22.6245 23.238C22.9731 22.8838 23.2477 22.4639 23.4325 22.0025C23.6172 21.5412 23.7083 21.0477 23.7004 20.5508C23.7098 19.2724 23.2117 18.0425 22.3156 17.1308C21.4194 16.2191 20.1982 15.7001 18.9198 15.6875C17.6414 15.6999 16.4202 16.2189 15.5239 17.1307C14.6277 18.0424 14.1296 19.2723 14.1391 20.5508C14.1273 22.1062 14.733 23.6028 15.8232 24.7122C16.9135 25.8216 18.3992 26.4533 19.9546 26.4688C21.51 26.4533 22.9957 25.8215 24.0858 24.7121C25.176 23.6027 25.7817 22.1062 25.7699 20.5508C25.7699 16.7061 22.6968 13.5781 18.9198 13.5781C15.1429 13.5781 12.0695 16.7061 12.0695 20.5508C12.0695 24.9772 15.6067 28.5781 19.9546 28.5781C24.3023 28.5781 27.8395 24.9772 27.8395 20.5508C27.8395 15.5429 23.838 11.4688 18.9198 11.4688C14.0017 11.4688 10 15.5429 10 20.5508C10 26.1402 14.4655 30.6875 19.9546 30.6875H34.4235C36.9815 30.6875 39.0625 32.9218 39.0625 35.668C39.0625 37.8327 37.4249 39.5938 35.4121 39.5938C33.3993 39.5938 31.762 37.8327 31.762 35.668C31.762 34.0848 32.9559 32.7969 34.4235 32.7969C35.8912 32.7969 37.0853 34.0848 37.0853 35.668C37.0853 36.6695 36.3346 37.4844 35.4121 37.4844C34.4896 37.4844 33.7389 36.6695 33.7389 35.668C33.7285 35.5719 33.7385 35.4746 33.7682 35.3826C33.7978 35.2906 33.8465 35.2059 33.9111 35.134C33.9757 35.0621 34.0547 35.0045 34.143 34.9651C34.2313 34.9258 34.3268 34.9054 34.4235 34.9054C34.5202 34.9054 34.6158 34.9258 34.7041 34.9651C34.7923 35.0045 34.8713 35.0621 34.9359 35.134C35.0005 35.2059 35.0492 35.2906 35.0789 35.3826C35.1085 35.4746 35.1185 35.5719 35.1081 35.668C35.1081 35.7923 35.1575 35.9115 35.2454 35.9994C35.3333 36.0873 35.4526 36.1367 35.5769 36.1367C35.7012 36.1367 35.8204 36.0873 35.9083 35.9994C35.9962 35.9115 36.0456 35.7923 36.0456 35.668C36.0562 35.4484 36.0221 35.229 35.9453 35.023C35.8685 34.817 35.7508 34.6287 35.5991 34.4695C35.4474 34.3104 35.265 34.1837 35.063 34.0972C34.8609 34.0106 34.6433 33.966 34.4235 33.966C34.2037 33.966 33.9861 34.0106 33.7841 34.0972C33.582 34.1837 33.3996 34.3104 33.2479 34.4695C33.0963 34.6287 32.9785 34.817 32.9017 35.023C32.825 35.229 32.7908 35.4484 32.8014 35.668C32.8014 37.1865 33.9726 38.4219 35.4123 38.4219C36.8521 38.4219 38.0228 37.1865 38.0228 35.668C38.0228 33.568 36.408 31.8594 34.4235 31.8594C32.4391 31.8594 30.8245 33.568 30.8245 35.668C30.8245 38.3495 32.8823 40.5312 35.4121 40.5312C37.942 40.5312 40 38.3495 40 35.668C40 32.4048 37.4985 29.75 34.4235 29.75Z" fill="#2D4356"/>
</svg>
