<svg width="30" height="30" viewBox="0 0 30 30" fill="none" xmlns="http://www.w3.org/2000/svg">
<g clip-path="url(#clip0_4150_508)">
<path d="M29.0821 0.607505C28.9951 0.390772 28.8278 0.215934 28.6152 0.119362C28.4025 0.0227904 28.1608 0.0119206 27.9404 0.0890139C27.7199 0.166107 27.5377 0.325228 27.4315 0.533274C27.3254 0.74132 27.3036 0.982272 27.3706 1.206C28.7641 5.211 25.9981 8.202 23.8891 9.804L23.0371 8.58301C22.7506 8.17351 22.1101 7.83301 21.6121 7.82701L16.8301 7.848C16.2459 7.86565 15.6774 8.04082 15.1846 8.35501L1.09357 18.2355C0.765814 18.4661 0.5428 18.8173 0.47336 19.212C0.403919 19.6067 0.49371 20.0128 0.723072 20.3415L7.12657 29.5035C7.60657 30.186 8.37307 30.1035 9.05707 29.6265L23.1481 19.7445C23.5531 19.458 24.0211 18.84 24.1861 18.3675L25.6831 13.65C25.8481 13.179 25.7476 12.4605 25.4611 12.051L24.9421 11.307C27.7741 9.13651 30.7141 5.301 29.0821 0.607505ZM22.5256 14.6445C22.266 14.8262 21.9731 14.955 21.6638 15.0235C21.3544 15.092 21.0345 15.0988 20.7225 15.0437C20.4105 14.9885 20.1124 14.8724 19.8452 14.702C19.5781 14.5316 19.3471 14.3102 19.1656 14.0505C18.798 13.525 18.6539 12.8751 18.765 12.2435C18.8761 11.6118 19.2332 11.0501 19.7581 10.6815C20.1695 10.3932 20.6608 10.2407 21.1632 10.2453C21.6655 10.2499 22.1539 10.4113 22.5601 10.707C22.1521 10.953 21.8716 11.097 21.8191 11.1195C21.6331 11.2082 21.4828 11.3573 21.3928 11.5426C21.3027 11.7279 21.2782 11.9382 21.3234 12.1392C21.3685 12.3402 21.4806 12.5199 21.6413 12.6489C21.8019 12.7778 22.0016 12.8484 22.2076 12.849C22.3366 12.849 22.4686 12.819 22.5931 12.7605C22.8841 12.6225 23.1961 12.459 23.5216 12.2655C23.5964 12.7156 23.5427 13.1777 23.3665 13.5986C23.1903 14.0194 22.8988 14.382 22.5256 14.6445Z" fill="white"/>
</g>
<defs>
<clipPath id="clip0_4150_508">
<rect width="30" height="30" fill="white"/>
</clipPath>
</defs>
</svg>
