<svg width="30" height="30" viewBox="0 0 30 30" fill="none" xmlns="http://www.w3.org/2000/svg">
<g clip-path="url(#clip0_4150_510)">
<path d="M23.2032 0.1875C19.6407 0.1875 16.7579 3.04688 16.6407 6.72656C16.547 10.125 19.8048 14.6016 21.7501 16.9453C22.1016 17.3672 22.6407 17.625 23.2032 17.625C23.7657 17.625 24.2813 17.3672 24.6563 16.9453C26.6016 14.5781 29.8829 10.125 29.7657 6.72656C29.6485 3.04688 26.7657 0.1875 23.2032 0.1875ZM23.2032 9.09375C21.9141 9.09375 20.8595 8.03906 20.8595 6.75C20.8595 5.46094 21.9141 4.40625 23.2032 4.40625C24.4923 4.40625 25.547 5.46094 25.547 6.75C25.547 8.03906 24.4923 9.09375 23.2032 9.09375ZM4.45321 18.7266C2.15633 18.7266 0.30477 20.5781 0.234458 22.9219C0.164145 25.0547 2.17977 27.7969 3.37508 29.25C3.63289 29.5781 4.03133 29.7656 4.45321 29.7656C4.87508 29.7656 5.27352 29.5781 5.53133 29.25C6.72664 27.7969 8.74227 25.0547 8.67196 22.9219C8.60164 20.5781 6.75008 18.7266 4.45321 18.7266ZM4.45321 24.3516C3.67977 24.3516 3.04696 23.7187 3.04696 22.9453C3.04696 22.1719 3.67977 21.5391 4.45321 21.5391C5.22664 21.5391 5.85946 22.1719 5.85946 22.9453C5.85946 23.7187 5.22664 24.3516 4.45321 24.3516ZM18.0001 28.3594H8.43758C8.03914 28.3594 7.73446 28.6641 7.73446 29.0625C7.73446 29.4609 8.03914 29.7656 8.43758 29.7656H18.0001C18.8204 29.7656 19.5235 29.3203 19.8985 28.5937C20.2501 27.8672 20.1798 27.0234 19.6876 26.3672L13.7813 18.7031C13.6173 18.4922 13.5938 18.2109 13.711 17.9531C13.8282 17.6953 14.0626 17.5781 14.3438 17.5781H18.5157C18.9141 17.5781 19.2188 17.2734 19.2188 16.875C19.2188 16.4766 18.9141 16.1719 18.5157 16.1719H14.3438C13.5235 16.1719 12.8204 16.6172 12.4454 17.3437C12.0938 18.0703 12.1641 18.9141 12.6563 19.5703L18.5391 27.2344C18.7032 27.4453 18.7266 27.7266 18.6095 27.9844C18.4923 28.2422 18.2813 28.3594 18.0001 28.3594Z" fill="white"/>
</g>
<defs>
<clipPath id="clip0_4150_510">
<rect width="30" height="30" fill="white"/>
</clipPath>
</defs>
</svg>
