<svg width="30" height="30" viewBox="0 0 30 30" fill="none" xmlns="http://www.w3.org/2000/svg">
<path fill-rule="evenodd" clip-rule="evenodd" d="M17.0064 3.02268C15.8605 2.00961 14.1393 2.00961 12.9933 3.02268C12.722 3.26255 12.3538 3.3612 11.9989 3.28913C10.5 2.98474 9.0093 3.84539 8.52345 5.29569C8.40842 5.63909 8.1389 5.9086 7.7955 6.02364C6.3452 6.50949 5.48455 8.00019 5.78894 9.4991C5.86102 9.85401 5.76237 10.2222 5.52249 10.4935C4.50943 11.6394 4.50943 13.3607 5.52249 14.5066C5.76237 14.778 5.86102 15.1461 5.78894 15.501C5.48455 17 6.3452 18.4906 7.7955 18.9765C8.1389 19.0915 8.40842 19.361 8.52345 19.7045C9.0093 21.1548 10.5 22.0154 11.9989 21.711C12.3538 21.6389 12.722 21.7376 12.9933 21.9775C14.1393 22.9905 15.8605 22.9905 17.0064 21.9775C17.2778 21.7376 17.6459 21.6389 18.0009 21.711C19.4998 22.0154 20.9905 21.1548 21.4763 19.7045C21.5914 19.361 21.8609 19.0915 22.2043 18.9765C23.6545 18.4906 24.5153 17 24.2108 15.501C24.1388 15.1461 24.2374 14.778 24.4773 14.5066C25.4904 13.3607 25.4904 11.6394 24.4773 10.4935C24.2374 10.2222 24.1388 9.85401 24.2108 9.4991C24.5153 8.00019 23.6545 6.50949 22.2043 6.02364C21.8609 5.9086 21.5914 5.63909 21.4763 5.29569C20.9905 3.84539 19.4998 2.98474 18.0009 3.28913C17.6459 3.3612 17.2778 3.26255 17.0064 3.02268ZM18.7878 9.96201C19.1539 10.3281 19.1539 10.9217 18.7878 11.2878L14.4128 15.6629C14.237 15.8388 13.9985 15.9375 13.7499 15.9375C13.5013 15.9375 13.2628 15.8388 13.087 15.6629L11.212 13.7879C10.8458 13.4218 10.8459 12.8281 11.212 12.462C11.5781 12.0959 12.1717 12.0959 12.5378 12.462L13.7499 13.6741L17.462 9.96201C17.828 9.5959 18.4216 9.59589 18.7878 9.96201Z" fill="white"/>
<path d="M17.8878 23.278C17.3516 23.7122 16.7413 24.0081 16.1041 24.1655C16.3258 24.6961 16.5644 25.2196 16.8197 25.7352C16.8451 25.7866 16.8707 25.8379 16.9191 25.9347L17.4224 26.9414C17.4959 27.0885 17.5787 27.2544 17.6622 27.387C17.7468 27.5215 17.9232 27.7771 18.2473 27.921C18.5544 28.0574 18.9021 28.0706 19.2188 27.9582C19.5529 27.8397 19.7484 27.5982 19.8431 27.4707C19.9366 27.3449 20.0318 27.1859 20.1164 27.0449L20.5531 26.317C20.7757 25.9459 20.9048 25.7332 21.0161 25.587C21.0662 25.5211 21.0974 25.4896 21.1138 25.4752C21.1213 25.4685 21.1264 25.4651 21.1264 25.4651L21.1279 25.4642L21.1296 25.4637C21.1296 25.4637 21.1354 25.4621 21.1454 25.4606C21.1669 25.4576 21.2112 25.4541 21.2938 25.4587C21.4773 25.4689 21.7229 25.5085 22.1498 25.5796L23.7234 25.842C24.6459 25.9957 25.4006 25.1125 25.1048 24.2252L25.0026 23.9182C24.5704 22.6221 24.0087 21.3751 23.3268 20.1959C23.1859 20.2675 23.0402 20.3324 22.8899 20.3901C22.1142 22.4111 20.0259 23.6166 17.8878 23.278ZM7.10994 20.3901C6.9597 20.3324 6.81397 20.2675 6.67305 20.1959C5.99121 21.3751 5.42939 22.6221 4.99734 23.9182L4.895 24.2252C4.59925 25.1125 5.3539 25.9957 6.27644 25.842L7.85007 25.5796C8.27697 25.5085 8.52259 25.4689 8.70609 25.4587C8.78871 25.4541 8.83295 25.4576 8.85446 25.4606C8.86446 25.4621 8.87035 25.4637 8.87035 25.4637L8.87196 25.4642L8.87344 25.4651C8.87344 25.4651 8.87851 25.4685 8.88607 25.4752C8.90236 25.4896 8.93364 25.5211 8.98374 25.587C9.09499 25.7332 9.22411 25.9459 9.44679 26.317L9.88346 27.0449C9.96804 27.1859 10.0634 27.3449 10.1568 27.4707C10.2514 27.5982 10.4469 27.8397 10.7811 27.9582C11.0977 28.0706 11.4454 28.0574 11.7525 27.921C12.0766 27.7771 12.253 27.5215 12.3376 27.387C12.4211 27.2544 12.5039 27.0885 12.5774 26.9414L13.0808 25.9347C13.1292 25.8379 13.1548 25.7866 13.1802 25.7352C13.4353 25.2196 13.6739 24.6961 13.8958 24.1655C13.2586 24.0081 12.6483 23.7122 12.112 23.278C9.97387 23.6166 7.88574 22.4111 7.10994 20.3901Z" fill="white"/>
</svg>
