<svg width="30" height="30" viewBox="0 0 30 30" fill="none" xmlns="http://www.w3.org/2000/svg">
<path d="M10.6375 2.50001H19.3626C19.6532 2.49993 19.876 2.49988 20.0707 2.51893C21.4555 2.6544 22.589 3.48697 23.0696 4.60847H6.93045C7.41108 3.48697 8.54453 2.6544 9.92931 2.51893C10.1241 2.49988 10.3469 2.49993 10.6375 2.50001ZM7.88825 5.9039C6.14996 5.9039 4.72463 6.95358 4.24897 8.34613C4.23906 8.37516 4.22955 8.40435 4.22046 8.43366C4.71815 8.28295 5.23611 8.18448 5.76043 8.11727C7.11091 7.94413 8.81758 7.94422 10.8001 7.94433H10.9482H19.4152C21.3977 7.94422 23.1045 7.94413 24.455 8.11727C24.9792 8.18448 25.4972 8.28295 25.9948 8.43366C25.9858 8.40435 25.9763 8.37516 25.9663 8.34613C25.4907 6.95358 24.0653 5.9039 22.3271 5.9039H7.88825Z" fill="white"/>
<path fill-rule="evenodd" clip-rule="evenodd" d="M10.8405 9.42755H19.1595C23.378 9.42755 25.4872 9.42755 26.6721 10.6611C27.8569 11.8946 27.5781 13.8004 27.0206 17.612L26.4919 21.2264C26.0546 24.2155 25.8361 25.71 24.7146 26.605C23.5931 27.5 21.939 27.5 18.6307 27.5H11.3692C8.06101 27.5 6.40691 27.5 5.28543 26.605C4.16394 25.71 3.94533 24.2155 3.5081 21.2264L2.97939 17.612C2.42185 13.8004 2.14309 11.8946 3.3279 10.6611C4.51271 9.42755 6.62197 9.42755 10.8405 9.42755ZM10 22.5001C10 21.9824 10.4664 21.5626 11.0417 21.5626H18.9584C19.5336 21.5626 20 21.9824 20 22.5001C20 23.018 19.5336 23.4378 18.9584 23.4378H11.0417C10.4664 23.4378 10 23.018 10 22.5001Z" fill="white"/>
</svg>
