<svg width="96" height="96" viewBox="0 0 96 96" fill="none" xmlns="http://www.w3.org/2000/svg">
<path d="M27.5049 38.8051L30.3345 36.5591C30.5645 36.378 30.8008 36.1917 31.082 36.1175C32.1072 35.8479 32.8604 37.0893 33.8506 37.4676C35.5802 38.1283 37.3178 36.0094 39.1446 36.3096C40.2946 36.4988 41.0858 37.5913 42.1749 38.0139C43.4554 38.5101 44.8831 38.0053 46.1613 37.5033C47.3177 37.049 48.4863 36.5879 49.496 35.8651C50.063 35.4592 50.6932 34.9451 51.3705 35.1113C51.8144 35.2205 52.1295 35.5977 52.474 35.899C53.4952 36.7932 55.012 37.0812 56.2902 36.623C56.8382 36.4269 57.3488 36.1055 57.9255 36.0284C58.5023 35.9514 59.198 36.2481 59.2837 36.8242C59.3412 37.1928 59.1307 37.5441 58.9312 37.8592L53.9931 45.6654C47.9602 43.6348 41.527 43.0856 35.2369 44.064C33.8443 44.2825 31.9847 44.7489 30.6369 44.1118C30.1729 43.8921 30.0332 43.4453 29.8894 42.9853C29.6688 42.2496 29.3723 41.5389 29.0045 40.8647C28.8993 40.6756 27.6222 38.7137 27.5049 38.8051Z" fill="#FACBDF"/>
<path d="M27.6736 52.5508C27.83 52.0034 28.0071 51.4335 28.4078 51.0287C28.8086 50.6239 29.4181 50.3859 29.5711 49.8425C29.6418 49.5912 29.5941 49.325 29.5458 49.0668L27.681 39.1385L31.7319 39.909C33.5587 40.2569 35.6103 40.5617 37.1432 39.5065C37.5204 39.2472 37.8764 38.9028 38.3306 38.8533C38.7716 38.8056 39.1833 39.0494 39.5824 39.2438C42.9312 40.8785 46.8906 39.3323 50.2834 37.7902C52.6225 39.7164 56.0851 38.9315 58.9831 38.0483C56.4468 50.3583 64.2731 62.9324 62.2451 75.3369C57.2736 75.9636 52.2976 76.5904 47.3075 77.021C43.6804 77.3338 39.9326 77.5293 36.49 76.3454C34.3717 75.6169 32.3242 74.364 30.0886 74.4997C28.7615 74.5807 26.9111 75.2472 25.8819 74.0517C25.1045 73.1467 24.8888 71.57 24.921 70.4131C25.0291 66.567 25.4421 62.7352 26.1561 58.9534C26.564 56.7983 27.0698 54.6639 27.6736 52.5508Z" fill="#FF5400"/>
<path d="M56.0971 51.5094C56.0379 51.51 55.981 51.487 55.9379 51.4461C55.8947 51.4053 55.8694 51.349 55.8671 51.2897C55.7125 47.6743 56.0425 44.0542 56.8487 40.526C56.855 40.4965 56.8676 40.4687 56.8849 40.4441C56.9027 40.4194 56.9246 40.3985 56.9504 40.3824C56.9757 40.3663 57.0045 40.3555 57.0344 40.3504C57.0637 40.3454 57.0942 40.3462 57.1241 40.3529C57.1534 40.3596 57.181 40.3721 57.2057 40.3896C57.2305 40.4071 57.2512 40.4292 57.2673 40.4548C57.2834 40.4804 57.2943 40.5088 57.2995 40.5386C57.3046 40.5684 57.3035 40.5989 57.2972 40.6283C56.5002 44.1163 56.1736 47.6953 56.3266 51.2696C56.3289 51.3306 56.3076 51.3904 56.2662 51.4352C56.2248 51.4801 56.1679 51.5071 56.1069 51.5094H56.0971ZM56.5157 55.4309C56.468 55.4309 56.4209 55.4159 56.3818 55.3878C56.3427 55.3596 56.3133 55.3199 56.2984 55.2739C56.1236 54.7524 56.0787 54.1964 56.1667 53.6536C56.1707 53.6231 56.1811 53.5938 56.1966 53.5667C56.2121 53.5403 56.2328 53.5167 56.2576 53.4983C56.2823 53.4799 56.3105 53.4667 56.3404 53.4592C56.3708 53.4517 56.4019 53.4506 56.4324 53.4558C56.4628 53.4609 56.4922 53.4719 56.518 53.4885C56.5445 53.5046 56.5669 53.5265 56.5842 53.5518C56.602 53.5771 56.6141 53.6058 56.6204 53.6363C56.6267 53.6662 56.6267 53.6978 56.6204 53.7277C56.5456 54.1969 56.5847 54.6776 56.7354 55.1279C56.7475 55.1629 56.7503 55.1997 56.7452 55.2354C56.7394 55.2716 56.7256 55.3061 56.7043 55.3354C56.6831 55.3648 56.6549 55.3889 56.6227 55.4056C56.5899 55.4223 56.5543 55.4309 56.518 55.4309H56.5157ZM57.6249 62.949C57.5668 62.9496 57.5111 62.9277 57.4679 62.8886C57.4254 62.8495 57.3995 62.7955 57.3949 62.7374C57.2437 60.8813 56.9688 59.0373 56.5732 57.2174C56.5589 57.1582 56.5692 57.0955 56.6014 57.0438C56.633 56.992 56.6848 56.9546 56.744 56.9408C56.8032 56.927 56.8659 56.9368 56.9177 56.969C56.97 57.0012 57.0068 57.0524 57.0212 57.1116L57.208 57.847C57.2195 57.8919 57.2172 57.9396 57.2011 57.9827C57.5065 59.541 57.7244 61.1153 57.8538 62.6977C57.8561 62.7282 57.8526 62.7587 57.8434 62.7874C57.8336 62.8162 57.8193 62.8426 57.7991 62.8656C57.7796 62.8886 57.756 62.9076 57.729 62.9214C57.702 62.9352 57.6726 62.9433 57.6427 62.9456L57.6249 62.949ZM57.7393 65.8119C57.6778 65.8119 57.6197 65.7878 57.5766 65.7447C57.5335 65.7015 57.5093 65.6435 57.5093 65.5819V63.7753C57.5093 63.7143 57.5335 63.6563 57.5766 63.6131C57.6197 63.57 57.6778 63.5453 57.7393 63.5453C57.8003 63.5453 57.8584 63.57 57.9015 63.6131C57.9446 63.6563 57.9693 63.7143 57.9693 63.7753V65.5819C57.9693 65.6435 57.9446 65.7015 57.9015 65.7447C57.8584 65.7878 57.8003 65.8119 57.7393 65.8119ZM56.8343 74.242C56.8147 74.2426 56.7952 74.2403 56.7768 74.2357C56.7475 74.2288 56.7199 74.2156 56.6951 74.1977C56.671 74.1799 56.6503 74.1575 56.6348 74.1316C56.6192 74.1057 56.6089 74.077 56.6043 74.0471C56.5997 74.0172 56.6008 73.9867 56.6083 73.9574C57.062 72.099 57.3196 70.198 57.3759 68.2856C57.3765 68.2557 57.3834 68.2258 57.3961 68.1982C57.4081 68.1706 57.426 68.1459 57.4478 68.1252C57.4702 68.1045 57.4955 68.0884 57.5243 68.0774C57.5525 68.0671 57.5824 68.0619 57.6128 68.0625C57.6427 68.0636 57.6726 68.0705 57.7002 68.0826C57.7278 68.0953 57.7526 68.1131 57.7733 68.1349C57.794 68.1568 57.8101 68.1827 57.821 68.2108C57.8313 68.2396 57.8365 68.2695 57.8359 68.2994C57.7784 70.244 57.5168 72.1772 57.0557 74.0666C57.043 74.1167 57.0148 74.1609 56.9746 74.1926C56.9349 74.2242 56.8855 74.242 56.8343 74.242Z" fill="black"/>
<path d="M36.9561 51.7659C37.6139 54.0457 39.7012 55.8765 42.0621 56.114C43.794 56.2865 45.5696 55.631 46.845 54.4465C48.4699 52.9343 49.2603 50.5578 48.8066 48.3837C48.3526 46.2099 46.6621 44.3273 44.5329 43.6971C42.8027 43.1854 40.8483 43.5344 39.3809 44.5774C38.0768 45.5043 37.185 47.135 36.8618 48.6781C36.6418 49.6999 36.6742 50.7596 36.9561 51.7659Z" fill="white"/>
<path d="M40.8274 54.6909C40.7803 54.6909 40.7344 54.6765 40.6959 54.6495C40.6573 54.6225 40.628 54.5845 40.6117 54.5402C39.9466 52.71 39.6492 50.7659 39.7366 48.8207C39.8241 46.8749 40.2946 44.9656 41.1212 43.202C41.1337 43.174 41.1517 43.1489 41.1742 43.1279C41.1965 43.1069 41.2229 43.0907 41.2517 43.0801C41.2805 43.0695 41.3111 43.0647 41.3417 43.0662C41.3724 43.0675 41.4024 43.0751 41.4301 43.0882C41.4578 43.1015 41.4826 43.12 41.503 43.143C41.5234 43.1659 41.539 43.1927 41.5489 43.2217C41.5588 43.2507 41.5628 43.2814 41.5606 43.312C41.5585 43.3426 41.5502 43.3725 41.5363 43.3998C40.7311 45.1066 40.2727 46.9563 40.188 48.8414C40.1033 50.7268 40.3939 52.6105 41.043 54.3821C41.0559 54.4172 41.0602 54.4546 41.0555 54.4914C41.0508 54.5282 41.0373 54.5632 41.0161 54.5937C40.995 54.6242 40.9667 54.6489 40.9339 54.6662C40.901 54.6834 40.8645 54.692 40.8274 54.692V54.6909ZM45.1318 54.5293C45.0976 54.5293 45.0638 54.5218 45.0329 54.5069C45.002 54.4925 44.9748 54.4707 44.9532 54.4442C44.9317 54.4178 44.9164 54.3867 44.9084 54.3534C44.9004 54.32 44.8999 54.2855 44.9071 54.2516C45.6758 50.6406 45.4631 48.3866 44.0302 44.9868C44.0064 44.9306 44.006 44.8672 44.0291 44.8107C44.0521 44.7541 44.0966 44.709 44.1529 44.6853C44.2092 44.6616 44.2726 44.6612 44.3291 44.6842C44.3857 44.7072 44.4308 44.7518 44.4545 44.808C45.911 48.2681 46.1387 50.6728 45.3567 54.347C45.3457 54.3988 45.3174 54.4448 45.2765 54.4781C45.2356 54.5115 45.1845 54.5293 45.1318 54.5293Z" fill="black"/>
<path d="M42.2527 48.8132C40.1873 48.8132 38.1777 48.5625 35.9967 48.1767C35.966 48.1727 35.9365 48.1623 35.9099 48.1462C35.8833 48.1307 35.8601 48.1094 35.8419 48.0847C35.8237 48.0594 35.8107 48.0312 35.8037 48.0008C35.7968 47.9709 35.796 47.9392 35.8014 47.9088C35.8068 47.8783 35.8183 47.849 35.8353 47.8231C35.8523 47.7972 35.8743 47.7754 35.9 47.7579C35.9258 47.7406 35.9547 47.7288 35.9852 47.7231C36.0156 47.7173 36.0469 47.7178 36.0772 47.7244C40.4231 48.493 44.0795 48.7172 48.8741 47.4628C48.931 47.4517 48.9908 47.4629 49.0402 47.4942C49.0897 47.5254 49.1253 47.5743 49.1403 47.631C49.1547 47.6877 49.1472 47.7478 49.119 47.7989C49.0908 47.8507 49.0443 47.8892 48.9891 47.907C46.5273 48.5522 44.3612 48.8132 42.2527 48.8132ZM41.9664 53.4282C39.8912 53.4282 38.0052 53.0884 36.2986 52.6841C36.2683 52.6784 36.2395 52.6663 36.2139 52.6491C36.1884 52.6318 36.1666 52.6094 36.1498 52.5829C36.1332 52.5571 36.1218 52.5283 36.1166 52.4978C36.1114 52.4674 36.1123 52.4357 36.1195 52.4058C36.1266 52.3759 36.1397 52.3472 36.158 52.3225C36.1763 52.2977 36.1995 52.2765 36.2261 52.2609C36.2527 52.2454 36.2822 52.2351 36.3128 52.231C36.3434 52.2264 36.3746 52.2287 36.4044 52.2368C39.8843 53.0602 44.125 53.6122 49.1932 51.464C49.249 51.4404 49.3128 51.4398 49.3691 51.4628C49.4255 51.4858 49.4709 51.5301 49.4945 51.5865C49.5186 51.6428 49.5186 51.7061 49.4962 51.7624C49.4732 51.8193 49.4284 51.8642 49.3726 51.8878C46.6757 53.0309 44.2106 53.4282 41.9664 53.4282Z" fill="black"/>
<path d="M37.099 41.1613C36.6608 41.1142 36.382 41.7501 36.6476 42.1015C36.9133 42.4528 37.4837 42.4522 37.8321 42.1831C38.138 41.9474 38.299 41.4931 38.115 41.1562C37.931 40.8192 37.3595 40.7456 37.1628 41.078L37.099 41.1613ZM49.5912 39.8487C49.0196 39.7785 48.5562 40.5289 48.8437 41.0297C49.1312 41.5305 49.9517 41.557 50.307 41.1039C50.6624 40.6508 50.4859 39.9021 49.9885 39.6089L49.6055 39.6664L49.5912 39.8487Z" fill="white"/>
<path d="M37.3681 41.6554C37.3258 41.6554 37.2843 41.6438 37.2482 41.6217C37.2121 41.5997 37.1828 41.5682 37.1634 41.5306C36.0508 39.368 35.9214 36.1595 36.8339 33.357C37.6659 30.8017 39.6054 28.6621 42.0221 27.6346C43.5171 26.9975 45.6659 26.7272 47.1971 27.8801C48.6033 28.9341 49.0438 30.7925 49.2933 32.472C49.6337 34.7686 49.8999 38.3031 49.8994 40.5186C49.8994 40.5795 49.8746 40.6381 49.8315 40.6812C49.7884 40.7243 49.7303 40.7486 49.6694 40.7486C49.6078 40.7486 49.5498 40.7243 49.5066 40.6812C49.4635 40.6381 49.4394 40.5795 49.4394 40.5186C49.4394 38.3227 49.176 34.818 48.8379 32.5399C48.6033 30.9512 48.1907 29.2014 46.9223 28.2487C45.5457 27.2137 43.5815 27.4713 42.2021 28.0583C39.9061 29.0358 38.0621 31.069 37.2715 33.5001C36.3952 36.1917 36.5131 39.2616 37.5722 41.3201C37.5903 41.3552 37.599 41.3942 37.5976 41.4336C37.5961 41.473 37.5846 41.5113 37.5642 41.545C37.5436 41.5786 37.5149 41.6064 37.4806 41.6258C37.4462 41.6451 37.4075 41.6553 37.3681 41.6554Z" fill="black"/>
<path d="M40.3658 38.0236C40.3353 38.0236 40.3051 38.0176 40.277 38.0058C40.2488 37.9941 40.2233 37.9768 40.202 37.9551C40.1805 37.9333 40.1637 37.9076 40.1523 37.8793C40.1409 37.8509 40.1353 37.8207 40.1358 37.7902C40.1933 33.58 42.2058 31.2536 45.213 29.0559C45.7248 28.681 46.6298 28.5959 47.6338 28.8225C48.31 28.976 49.1245 29.3124 49.3832 29.7954C49.4493 29.9184 49.6132 30.0829 49.7984 30.2726C50.612 31.0989 52.126 32.6376 51.5918 36.3837C51.5832 36.4441 51.5504 36.4986 51.5021 36.5352C51.4532 36.5718 51.3917 36.5875 51.3313 36.5789C51.2709 36.5704 51.2163 36.5381 51.1801 36.4893C51.1433 36.4405 51.1278 36.3792 51.1364 36.3187C51.6384 32.798 50.2814 31.4192 49.4689 30.5952C49.2481 30.3709 49.0733 30.1927 48.9761 30.0127C48.8278 29.7356 48.2329 29.4308 47.5297 29.271C46.6672 29.0743 45.8829 29.1347 45.4827 29.4268C42.5059 31.6043 40.6527 33.7634 40.5952 37.7965C40.5944 37.8569 40.57 37.9146 40.5271 37.9571C40.4841 37.9996 40.4262 38.0235 40.3658 38.0236Z" fill="black"/>
<path d="M34.2862 58.9361C37.9547 58.7757 41.8578 59.0511 44.8748 61.1441C45.6338 61.6702 46.3571 62.7501 45.7195 63.4177C45.432 63.7172 44.984 63.7742 44.5695 63.8121C40.7664 64.1617 36.8926 64.3624 33.2897 65.6297C32.8671 65.7786 32.4002 65.9908 32.2604 66.4163C32.0954 66.9177 32.472 67.4277 32.8596 67.7859C33.909 68.7548 35.2119 69.4028 36.5344 69.9428C39.2175 71.0376 42.0454 71.7356 44.9294 72.0156C49.8746 72.4952 54.8415 71.7362 59.7819 71.2216C60.3799 71.1595 61.067 71.1307 61.4902 71.5579C62.1727 72.2479 61.5851 73.4152 60.8962 74.0983C61.5402 74.0592 62.2084 74.0241 62.8098 74.2587C63.4113 74.4933 63.9265 75.0792 63.8632 75.7215C63.7764 76.6007 62.7707 77.0319 61.9249 77.2838C62.1549 77.7438 61.9416 78.3303 61.5598 78.6776C61.178 79.0249 60.668 79.1882 60.174 79.3388C53.0912 81.5003 45.6096 83.0487 38.2997 81.8608C34.9698 81.3197 31.7562 80.222 28.4545 79.5309C24.2858 78.6598 20.0069 78.4413 15.7712 78.8834C15.2623 78.9369 14.727 78.9984 14.2583 78.7914C13.7253 78.5614 13.3861 78.0324 13.1239 77.5132C12.1044 75.5007 11.7853 73.2226 11.9106 70.9875C11.981 69.8416 12.1445 68.7031 12.3994 67.5835C12.638 66.5094 12.8824 65.3336 13.3337 64.3256C13.4804 63.9978 13.7046 63.8656 14.0237 63.7282C14.5562 63.4982 15.0892 63.2647 15.6268 63.0439C16.7592 62.5793 17.9064 62.1527 19.0682 61.7634C23.7108 60.208 28.5385 59.2725 33.426 58.9804C33.7135 58.9626 34.0002 58.9476 34.2862 58.9361Z" fill="#1B5EC9"/>
<path d="M47.2933 76.6634C46.4499 76.6634 45.6099 76.6381 44.773 76.5875C44.7429 76.5858 44.7133 76.5783 44.6861 76.5651C44.6589 76.5518 44.6346 76.5329 44.6145 76.5105C44.5945 76.488 44.5791 76.4616 44.5693 76.4328C44.5594 76.4041 44.5553 76.3736 44.5571 76.3437C44.559 76.3132 44.5668 76.2839 44.58 76.2569C44.5933 76.2293 44.6118 76.2051 44.6345 76.185C44.6571 76.1649 44.6835 76.1499 44.7122 76.1401C44.7407 76.1298 44.771 76.1258 44.8012 76.1275C50.23 76.4484 55.6695 75.7204 60.8233 73.9833C60.8514 73.9741 60.8819 73.9701 60.9118 73.9718C60.9423 73.9741 60.9716 73.9816 60.9986 73.9954C61.0256 74.0086 61.0498 74.027 61.0699 74.05C61.09 74.0724 61.105 74.0989 61.1148 74.1276C61.1245 74.1564 61.1286 74.1863 61.1263 74.2168C61.1246 74.2467 61.1165 74.276 61.1033 74.3036C61.0901 74.3306 61.0711 74.3548 61.0486 74.3743C61.0256 74.3945 60.9992 74.41 60.971 74.4192C56.5636 75.9044 51.9441 76.6622 47.2933 76.6634ZM47.7929 79.6298C46.8522 79.6298 45.9075 79.5936 44.9651 79.5148C44.9041 79.5102 44.8477 79.4809 44.8081 79.4343C44.7686 79.3872 44.7493 79.3268 44.7544 79.2658C44.7595 79.2049 44.7886 79.1485 44.8354 79.1089C44.8821 79.0692 44.9427 79.0502 45.0037 79.0548C51.238 79.5844 57.6153 78.1705 61.8697 77.0613C61.9278 77.0486 61.9882 77.059 62.0394 77.0906C62.09 77.1217 62.1262 77.1711 62.1411 77.2286C62.1561 77.2861 62.148 77.3476 62.1187 77.3994C62.09 77.4511 62.0417 77.4897 61.9847 77.5063C58.3398 78.4574 53.1459 79.6298 47.7929 79.6298ZM42.4839 77.5046C42.4406 77.5046 42.3981 77.4925 42.3614 77.4695C42.3247 77.446 42.2953 77.4132 42.2766 77.3741C42.2579 77.335 42.2507 77.2913 42.2558 77.2482C42.2608 77.205 42.2779 77.1642 42.3051 77.1303C42.3827 77.0331 42.4385 76.7813 42.262 76.1304C42.246 76.0717 42.254 76.0091 42.2843 75.9562C42.3146 75.9033 42.3647 75.8642 42.4235 75.8481C42.4824 75.8325 42.5452 75.8406 42.5982 75.8705C42.6511 75.901 42.6899 75.951 42.7059 76.0096C42.8341 76.4823 42.9451 77.0693 42.6627 77.4189C42.6412 77.446 42.614 77.4672 42.583 77.4822C42.5521 77.4971 42.5182 77.5046 42.4839 77.5046ZM42.9026 80.8235C42.8743 80.8235 42.8463 80.8184 42.8198 80.808C42.763 80.7862 42.7171 80.7425 42.6925 80.6867C42.6677 80.6309 42.6662 80.5676 42.6882 80.5107C42.7895 80.2422 42.7816 79.9449 42.6663 79.6816C42.6539 79.6545 42.647 79.6247 42.6462 79.5942C42.6453 79.5643 42.6503 79.5338 42.6611 79.5056C42.6827 79.4487 42.7262 79.4027 42.7819 79.3774C42.8375 79.3527 42.9008 79.3509 42.9579 79.3722C43.0149 79.3941 43.061 79.4378 43.0861 79.493C43.2528 79.8679 43.2642 80.2934 43.1177 80.6763C43.1009 80.72 43.0714 80.7574 43.033 80.7838C42.9946 80.8097 42.9491 80.8241 42.9026 80.8235Z" fill="white"/>
<path d="M58.1055 75.215C58.0647 75.2155 58.0239 75.204 57.9888 75.1833C57.9531 75.1626 57.9238 75.1322 57.9037 75.0959C57.7553 74.8245 57.6886 74.5158 57.7128 74.207C57.7369 73.8982 57.8508 73.6032 58.0394 73.3577C58.2286 73.1128 58.485 72.9276 58.7777 72.8258C59.0703 72.7241 59.386 72.7097 59.6862 72.7844C59.7155 72.7919 59.7431 72.8051 59.7678 72.823C59.792 72.8414 59.8121 72.8638 59.8276 72.8897C59.8431 72.9155 59.8535 72.9443 59.8581 72.9742C59.8621 73.0041 59.861 73.0346 59.8535 73.0639C59.846 73.0932 59.8328 73.1208 59.815 73.145C59.7972 73.1691 59.7741 73.1898 59.7483 73.2053C59.7224 73.2209 59.6937 73.2312 59.6638 73.2352C59.6339 73.2398 59.6034 73.2381 59.574 73.2306C59.3607 73.1772 59.1353 73.1869 58.9272 73.2588C58.7184 73.3307 58.5356 73.4624 58.4011 73.6372C58.2659 73.8114 58.1854 74.0218 58.1682 74.2415C58.1509 74.4611 58.1986 74.6814 58.3044 74.8746C58.324 74.9096 58.3338 74.9493 58.3332 74.989C58.332 75.0292 58.3211 75.0683 58.301 75.1023C58.2803 75.1368 58.2515 75.1655 58.217 75.1851C58.182 75.2046 58.1429 75.215 58.1026 75.215H58.1055ZM60.2451 77.9284C60.1933 77.9284 60.1427 77.9111 60.1025 77.8789C59.6942 77.5552 59.7213 76.9336 59.9806 76.5438C60.2273 76.1735 60.6297 75.9596 60.954 75.7877C60.9805 75.7721 61.0104 75.7624 61.0409 75.7583C61.0713 75.7549 61.103 75.7572 61.1323 75.7658C61.1622 75.7739 61.1898 75.7882 61.2139 75.8078C61.2381 75.8273 61.2582 75.8515 61.2726 75.8791C61.287 75.9061 61.2956 75.936 61.2985 75.9671C61.3014 75.9981 61.2973 76.0292 61.2881 76.0585C61.2784 76.0878 61.2628 76.1148 61.2427 76.1384C61.222 76.1614 61.1973 76.1804 61.1697 76.1936C60.877 76.3489 60.5458 76.5248 60.3647 76.7985C60.2209 77.0153 60.1951 77.3643 60.3894 77.5184C60.4262 77.5483 60.4538 77.5891 60.467 77.6346C60.4802 77.6806 60.4785 77.7294 60.463 77.7743C60.4475 77.8197 60.4181 77.8588 60.379 77.8864C60.3399 77.914 60.294 77.9284 60.2462 77.9284H60.2451ZM58.8041 80.0076C58.7926 80.0087 58.7811 80.0087 58.7696 80.0076C58.7092 79.999 58.6546 79.9662 58.6184 79.9173C58.5822 79.8679 58.5672 79.8063 58.5764 79.746C58.6328 79.4096 58.7915 79.0985 59.0313 78.8559C59.2705 78.6126 59.5792 78.4488 59.915 78.3872C59.9748 78.3775 60.0369 78.3918 60.0864 78.4275C60.1358 78.4631 60.1697 78.5166 60.1795 78.577C60.1893 78.6374 60.1749 78.6989 60.1399 78.7483C60.1042 78.7984 60.0502 78.8317 59.9904 78.8415C59.7506 78.8881 59.5309 79.0059 59.3596 79.1796C59.1888 79.3532 59.0738 79.5746 59.0313 79.8144C59.0221 79.8684 58.9945 79.9179 58.9531 79.953C58.9111 79.9886 58.8588 80.0076 58.8041 80.0076ZM40.3659 63.9559H40.3406C40.28 63.9496 40.2246 63.9191 40.1864 63.8714C40.1483 63.8242 40.1305 63.7633 40.1371 63.7023C40.2101 63.0382 40.5879 62.4086 41.175 61.9773C41.762 61.5461 42.4739 61.3667 43.13 61.4914C43.1597 61.4972 43.1879 61.5087 43.2132 61.5254C43.2384 61.542 43.2602 61.5633 43.2772 61.5886C43.2941 61.6133 43.306 61.6415 43.3121 61.6708C43.3183 61.7007 43.3185 61.7312 43.3128 61.7605C43.3072 61.7904 43.2957 61.8186 43.2791 61.8439C43.2626 61.8692 43.2412 61.8911 43.2162 61.9077C43.1912 61.925 43.1631 61.9371 43.1335 61.9428C43.1039 61.9491 43.0734 61.9491 43.0437 61.9434C42.5136 61.8422 41.9322 61.9894 41.4481 62.3459C40.9639 62.7024 40.6534 63.217 40.5942 63.7535C40.5875 63.8093 40.5605 63.861 40.5185 63.8984C40.4765 63.9358 40.4222 63.9559 40.3659 63.9559Z" fill="white"/>
<path d="M11.5613 83.541C11.0576 83.541 10.5838 83.4409 10.1916 83.131C9.77361 82.7986 9.55913 82.2961 9.40733 81.8482C8.51436 79.2411 8.73803 76.4432 8.95423 73.7407C9.12961 71.5557 9.31016 69.2948 8.89673 67.1523C8.85361 66.9269 8.80531 66.7021 8.75471 66.4623C8.44938 65.0294 8.13313 63.5476 8.94561 62.335C9.47576 61.5432 10.3768 61.1091 11.1881 60.7882C11.7827 60.5536 12.3956 60.3455 13.0132 60.1695C13.9165 59.9119 14.8359 59.767 15.7254 59.6233C15.9284 59.5911 16.1325 59.5589 16.3367 59.5249C16.5668 59.4772 16.7918 59.4071 17.0083 59.3151C17.2111 59.2328 17.4192 59.1638 17.631 59.1081C18.1786 58.9787 18.7366 58.8982 19.2985 58.8677C19.5768 58.8528 19.866 58.8643 20.0977 59.0454C20.3295 59.2265 20.4077 59.5054 20.4514 59.7319C20.6463 60.7468 20.4341 61.7669 20.2283 62.7536C20.2012 62.8847 20.1742 63.0146 20.1478 63.1451C19.3904 66.9413 19.502 70.8593 20.4744 74.6055C20.5715 74.9792 20.6802 75.3599 20.7849 75.7279C21.1379 76.967 21.503 78.2487 21.5421 79.5666C21.5554 80.0036 21.526 80.6338 21.1241 81.0616C20.851 81.3491 20.4606 81.4813 20.1759 81.5791C17.6859 82.4076 15.1328 83.0327 12.5417 83.4484C12.2178 83.5053 11.89 83.5364 11.5613 83.541ZM11.3595 61.2149C10.612 61.5093 9.79028 61.9049 9.33028 62.5897C8.62648 63.6408 8.92203 65.026 9.20723 66.3657C9.25668 66.5957 9.30728 66.8332 9.35156 67.0632C9.77361 69.2672 9.59018 71.5591 9.41308 73.7752C9.20033 76.4334 8.98068 79.1802 9.84261 81.6992C9.97428 82.0839 10.1525 82.5123 10.478 82.7705C10.9777 83.1678 11.7298 83.1155 12.4686 82.9936C15.0362 82.5801 17.5661 81.9591 20.0333 81.1363C20.3427 81.0334 20.6129 80.9322 20.7929 80.7424C21.077 80.4411 21.0959 79.934 21.0856 79.5792C21.0476 78.3182 20.6906 77.0647 20.3456 75.8526C20.2398 75.4823 20.1305 75.0994 20.0322 74.7205C19.042 70.9065 18.9284 66.9177 19.6998 63.0531C19.7263 62.922 19.7533 62.7909 19.7809 62.6587C19.977 61.7163 20.18 60.7422 20.0023 59.8176C19.9741 59.6716 19.9275 59.4933 19.8171 59.4065C19.7067 59.3197 19.5147 59.3156 19.3255 59.326C18.7911 59.3553 18.2604 59.4324 17.7397 59.556C17.5475 59.6072 17.3589 59.6698 17.175 59.7452C16.9299 59.8487 16.6751 59.9269 16.4143 59.9792C16.2092 60.0131 16.0045 60.0465 15.8002 60.0787C14.8842 60.2241 14.0177 60.3621 13.142 60.6123C12.5394 60.7848 11.9396 60.9877 11.3595 61.2166V61.2149Z" fill="black"/>
<path d="M8.46781 64.4607C8.42641 64.4613 8.38576 64.4498 8.35016 64.4291C8.31451 64.4078 8.28525 64.3779 8.26541 64.3411C8.25092 64.3147 8.24183 64.2859 8.23861 64.2555C8.23539 64.2256 8.2381 64.1951 8.24666 64.1663C8.25523 64.137 8.26938 64.11 8.28841 64.0864C8.30738 64.0634 8.33084 64.0439 8.35741 64.0289C11.4699 62.3298 14.8601 61.1982 18.3693 60.687C18.4297 60.6784 18.4911 60.6939 18.54 60.7307C18.5889 60.7669 18.6213 60.8216 18.6301 60.8819C18.6388 60.9423 18.6232 61.0038 18.5867 61.0527C18.5503 61.1016 18.4958 61.1338 18.4354 61.1424C14.9804 61.6455 11.6426 62.7599 8.57821 64.4326C8.5444 64.4515 8.50639 64.4613 8.46781 64.4607ZM10.7448 65.2054C10.6937 65.2054 10.6441 65.1887 10.6037 65.1571C10.5633 65.126 10.5345 65.0823 10.5219 65.0329C10.5092 64.9828 10.5134 64.9305 10.5338 64.8839C10.5542 64.8368 10.5896 64.7983 10.6344 64.7735C12.59 63.7104 14.7673 63.1198 16.9922 63.0485C17.0532 63.0468 17.1124 63.0692 17.1569 63.1112C17.2013 63.1532 17.2272 63.2107 17.2291 63.2716C17.2309 63.3332 17.2084 63.3924 17.1666 63.4367C17.1248 63.4809 17.067 63.5068 17.006 63.5085C14.8531 63.577 12.7461 64.1479 10.8535 65.176C10.8202 65.195 10.7829 65.2048 10.7448 65.2054ZM10.9615 67.5364C10.9086 67.5364 10.8574 67.5186 10.8163 67.4852C10.7753 67.4519 10.7471 67.4053 10.7364 67.3536C10.7256 67.3018 10.7331 67.2478 10.7574 67.2006C10.7818 67.154 10.8216 67.1167 10.8701 67.0954C13.889 65.7878 17.1124 65.0156 20.3961 64.8126C20.4263 64.8109 20.4566 64.8149 20.4853 64.8247C20.5139 64.8345 20.5403 64.85 20.563 64.8701C20.5856 64.8903 20.6042 64.9144 20.6175 64.9414C20.6308 64.969 20.6386 64.9984 20.6405 65.0283C20.6424 65.0587 20.6383 65.0892 20.6285 65.1174C20.6187 65.1461 20.6033 65.1726 20.5833 65.1956C20.5633 65.218 20.539 65.2364 20.5118 65.2496C20.4846 65.2634 20.4551 65.2709 20.4249 65.2726C17.1941 65.4727 14.0227 66.2323 11.0524 67.5186C11.0237 67.5312 10.9927 67.537 10.9615 67.5364ZM10.2451 70.121C10.193 70.1216 10.1423 70.1038 10.1014 70.0716C10.0606 70.0394 10.0319 69.994 10.0201 69.9434C10.0083 69.8922 10.0142 69.8393 10.0367 69.7921C10.0592 69.745 10.097 69.707 10.1439 69.684C13.2313 68.1775 16.5688 67.2495 19.9908 66.9459C20.0518 66.9407 20.1125 66.9597 20.1595 66.9988C20.2065 67.0379 20.236 67.0942 20.2415 67.1552C20.247 67.2167 20.228 67.2771 20.1888 67.3242C20.1495 67.3714 20.0932 67.4007 20.0322 67.4059C16.6658 67.7049 13.3827 68.618 10.3458 70.1003C10.3142 70.1147 10.2798 70.1222 10.2451 70.121ZM10.1675 72.2761C10.1157 72.2767 10.0654 72.2589 10.0248 72.2273C9.98414 72.1951 9.95545 72.1502 9.94343 72.0996C9.93141 72.0496 9.9367 71.9967 9.95844 71.9495C9.98023 71.903 10.0172 71.8644 10.0634 71.8409C12.6409 70.5356 15.4119 69.6536 18.2698 69.2286C18.3302 69.22 18.3917 69.2355 18.4407 69.2718C18.4898 69.308 18.5224 69.362 18.5314 69.4224C18.5404 69.4828 18.5251 69.5443 18.4887 69.5938C18.4524 69.6426 18.3981 69.6754 18.3376 69.684C15.5284 70.1015 12.8047 70.968 10.271 72.2508C10.239 72.2675 10.2035 72.2761 10.1675 72.2761ZM8.23033 75.8268C8.18715 75.8273 8.14483 75.8147 8.10826 75.7923C8.07163 75.7693 8.04219 75.7365 8.02333 75.6974C8.01005 75.6704 8.00229 75.641 8.00045 75.6111C7.99855 75.5807 8.00269 75.5508 8.01247 75.522C8.0223 75.4933 8.03765 75.4668 8.05766 75.4444C8.07767 75.422 8.10199 75.4036 8.12913 75.3898C11.1489 73.9149 14.3574 72.8621 17.6644 72.2618C17.6943 72.256 17.7251 72.256 17.755 72.2623C17.7849 72.2681 17.8133 72.2802 17.8386 72.2974C17.8639 72.3147 17.8854 72.3365 17.9021 72.3624C17.9187 72.3877 17.9301 72.4164 17.9356 72.4463C17.941 72.4762 17.9405 72.5073 17.9339 72.5372C17.9273 72.5671 17.9148 72.5953 17.8972 72.62C17.8796 72.6453 17.8573 72.6666 17.8314 72.6827C17.8055 72.6988 17.7767 72.7097 17.7466 72.7143C14.4813 73.3065 11.313 74.345 8.33096 75.8009C8.29991 75.8176 8.26541 75.8262 8.23033 75.8268ZM10.6689 77.2959C10.6212 77.2959 10.5748 77.2815 10.536 77.2539C10.4971 77.2263 10.4678 77.1872 10.452 77.1424C10.4363 77.0975 10.4348 77.0486 10.4479 77.0026C10.461 76.9572 10.488 76.9164 10.5251 76.8865C11.3543 76.2206 12.3703 75.8613 13.2569 75.5772C15.35 74.9073 17.4984 74.4243 19.6768 74.1334C19.7378 74.1253 19.7995 74.142 19.8484 74.1794C19.8972 74.2168 19.9292 74.272 19.9373 74.3329C19.9453 74.3944 19.9289 74.456 19.8915 74.5048C19.854 74.5537 19.7988 74.5853 19.7378 74.5934C17.5864 74.8809 15.4648 75.3581 13.3978 76.02C12.5503 76.2919 11.582 76.6335 10.8132 77.2505C10.7715 77.2815 10.7207 77.2976 10.6689 77.2959ZM11.6694 79.7983C11.6188 79.7983 11.5697 79.7816 11.5296 79.7511C11.4895 79.7201 11.4607 79.677 11.4476 79.6281C11.4345 79.5792 11.4379 79.5275 11.4572 79.4809C11.4765 79.4343 11.5107 79.3952 11.5544 79.3693C13.4922 78.2469 15.653 77.5644 17.884 77.3695C17.945 77.3643 18.0056 77.3839 18.0524 77.423C18.0993 77.4626 18.1286 77.519 18.1338 77.5799C18.1391 77.6409 18.1199 77.7013 18.0805 77.7484C18.041 77.795 17.9846 77.8243 17.9236 77.8295C15.7598 78.0181 13.6638 78.6799 11.7844 79.7684C11.7493 79.7885 11.7097 79.7989 11.6694 79.7983ZM12.8757 81.3933C12.8199 81.3933 12.7659 81.3732 12.7241 81.3358C12.6822 81.299 12.6552 81.2479 12.6482 81.1927C12.6412 81.1369 12.6546 81.0811 12.6858 81.0345C12.7171 80.9885 12.7642 80.9552 12.8182 80.9408C15.6495 80.2054 18.4889 79.3561 21.2575 78.4148C21.3133 78.4016 21.372 78.4097 21.4222 78.4373C21.4724 78.4649 21.5105 78.5103 21.529 78.5643C21.5475 78.619 21.5451 78.6782 21.5222 78.7305C21.4993 78.7828 21.4576 78.8254 21.4053 78.8484C18.6257 79.7925 15.776 80.6458 12.9338 81.3836C12.915 81.3899 12.8954 81.3928 12.8757 81.3933Z" fill="black"/>
<path d="M56.589 17.1678C55.0578 17.5024 53.576 18.0303 52.0994 18.5524L45.6856 20.8311C45.4262 20.9231 45.1583 21.0203 44.9611 21.2118C44.7638 21.4032 44.6511 21.6827 44.5517 21.9478L40.7728 31.9539C40.6003 32.4053 40.4278 32.8854 40.5198 33.3592C40.6118 33.833 41.0775 34.2689 41.5427 34.1412C41.5973 34.7248 42.442 35.0411 42.8652 34.6369C43.4977 35.3614 44.669 35.0106 45.5424 34.6081C50.5181 32.3173 55.5868 30.1323 60.9337 28.9415L53.5225 31.851C52.9429 32.081 52.2529 32.4737 52.315 33.0936C52.3558 33.503 52.7284 33.7968 53.101 33.9699C54.1797 34.4718 55.4286 34.3724 56.6131 34.2666L63.4033 33.6496C65.5205 33.457 67.6583 33.2603 69.6783 32.595C73.2893 31.4054 76.3356 28.7788 80.0248 27.8593C80.9989 27.6167 82.0074 27.4965 82.9435 27.1348C83.8796 26.7732 84.768 26.1108 85.0837 25.1586C85.3235 24.4364 85.2062 23.6452 85.0084 22.9109C84.3293 20.4231 82.7894 18.2573 80.6619 16.7992C79.2831 15.8631 77.7053 15.2605 76.0533 15.0391C75.4657 14.9621 74.8711 14.9535 74.2961 15.1104C73.8022 15.2456 73.3387 15.4761 72.8586 15.6504C71.2958 16.2167 69.5754 16.3605 67.928 16.4554C66.1455 16.5577 64.3572 16.5422 62.5719 16.5819C60.7865 16.6215 58.9919 16.7135 57.2313 17.0378C57.0168 17.0781 56.8029 17.1214 56.589 17.1678Z" fill="#1B5EC9"/>
<path d="M42.8432 34.6558C42.7994 34.6558 42.7564 34.6433 42.7194 34.6197C42.6824 34.596 42.653 34.5623 42.6345 34.5224C42.1998 33.5858 43.2365 32.9027 43.9944 32.4036L44.1462 32.3035C48.4049 29.4668 53.0037 27.1771 57.8343 25.4886C57.8918 25.4685 57.955 25.4721 58.0102 25.4986C58.0649 25.5252 58.1074 25.5725 58.1275 25.6301C58.1477 25.6877 58.1436 25.751 58.1172 25.806C58.0907 25.861 58.0436 25.9032 57.9861 25.9233C53.1923 27.5989 48.628 29.871 44.4015 32.6859L44.2474 32.7877C43.4182 33.3339 42.8036 33.7945 43.0514 34.3287C43.077 34.384 43.0797 34.4472 43.0588 34.5044C43.0379 34.5617 42.9951 34.6083 42.9398 34.634C42.9097 34.6484 42.8767 34.6559 42.8432 34.6558ZM54.9461 24.1259C54.8914 24.126 54.8391 24.107 54.7977 24.0722C54.7563 24.0374 54.7281 23.9892 54.7189 23.9359C54.7097 23.8826 54.7195 23.8277 54.7465 23.7808C54.7736 23.7339 54.8161 23.6982 54.8673 23.6797L55.3848 23.4899L56.2335 23.1788C56.2898 23.1596 56.3519 23.1633 56.4066 23.1892C56.4606 23.2152 56.5026 23.2612 56.5233 23.3176C56.5434 23.374 56.5417 23.4362 56.517 23.491C56.4922 23.5457 56.4474 23.5887 56.3916 23.6107L55.6027 23.8982L55.022 24.1115C54.9972 24.1206 54.9719 24.1255 54.9461 24.1259ZM41.4811 34.0809C41.4311 34.0808 41.3825 34.0644 41.3427 34.0342C41.3028 34.004 41.2739 33.9616 41.2603 33.9136C41.1384 33.4869 41.3574 32.9545 41.9112 32.3312L44.6137 29.294C45.5308 28.2619 46.4796 27.1953 47.7089 26.4679C48.43 26.0407 49.2191 25.7514 49.9821 25.4714L51.6013 24.878C51.6295 24.8668 51.6599 24.8614 51.691 24.862C51.7215 24.8628 51.7519 24.8696 51.7795 24.8822C51.8077 24.8948 51.833 24.9128 51.8537 24.9352C51.8744 24.9577 51.8905 24.9841 51.9014 25.0129C51.9118 25.0417 51.9164 25.0723 51.9152 25.103C51.9135 25.1336 51.906 25.1636 51.8928 25.1913C51.8796 25.219 51.8612 25.2437 51.8382 25.2641C51.8152 25.2844 51.7882 25.3 51.7594 25.3098L50.1402 25.9038C49.3967 26.1764 48.628 26.4581 47.943 26.8635C46.7757 27.5535 45.8511 28.5943 44.9576 29.5999L42.2551 32.6371C41.825 33.1207 41.6288 33.5295 41.7024 33.7871C41.7191 33.8457 41.7118 33.9085 41.6822 33.9618C41.6525 34.0151 41.603 34.0544 41.5443 34.0711C41.5238 34.0774 41.5025 34.0807 41.4811 34.0809ZM53.531 21.5257C53.4764 21.5259 53.424 21.5069 53.3821 21.472C53.3407 21.4371 53.3125 21.3886 53.3033 21.3351C53.2941 21.2816 53.3039 21.2265 53.3315 21.1797C53.3591 21.1328 53.4022 21.0971 53.4534 21.0789L53.7759 20.9639L53.8122 20.9501C53.8697 20.9294 53.9272 20.9076 53.9484 20.9013C53.9772 20.8908 54.0082 20.8859 54.0393 20.8869L54.2693 20.8098C54.2975 20.8003 54.3279 20.7964 54.3578 20.7985C54.3883 20.8006 54.4176 20.8086 54.4447 20.8221C54.4717 20.8356 54.4958 20.8543 54.516 20.8771C54.5355 20.8999 54.5505 20.9264 54.5602 20.955C54.57 20.9837 54.5735 21.014 54.5717 21.0441C54.5694 21.0743 54.5614 21.1037 54.5482 21.1308C54.5344 21.1578 54.516 21.1819 54.493 21.2018C54.47 21.2215 54.4435 21.2367 54.4153 21.2463C54.2003 21.3181 54.0611 21.3613 53.9755 21.3912C53.9358 21.4049 53.8955 21.4158 53.8547 21.4239L53.6075 21.5125C53.5827 21.5212 53.5569 21.5257 53.531 21.5257ZM42.8128 30.3267C42.7734 30.3268 42.7348 30.3168 42.7005 30.2976C42.6661 30.2785 42.6372 30.2509 42.6166 30.2175C42.5959 30.1841 42.5842 30.1459 42.5825 30.1066C42.5808 30.0673 42.5892 30.0283 42.6069 29.9932C43.083 29.0467 43.8558 27.9134 44.835 26.4782C45.0865 26.109 45.3529 25.7171 45.6343 25.3023C45.9735 24.8003 46.3956 24.1753 46.9505 23.7084C47.5594 23.1955 48.285 22.8902 49.1018 22.5716C49.3226 22.4854 49.6009 22.4049 49.87 22.3273C50.081 22.2663 50.2811 22.2088 50.4369 22.1548C50.4933 22.1365 50.5554 22.141 50.6088 22.1674C50.6623 22.1938 50.7037 22.24 50.7238 22.2963C50.744 22.3526 50.7411 22.4145 50.7164 22.4689C50.6916 22.5233 50.6468 22.5659 50.5916 22.5877C50.4225 22.6487 50.2161 22.7079 49.997 22.7712C49.7383 22.8459 49.4703 22.9235 49.2691 23.0012C48.4888 23.3036 47.8015 23.5911 47.2466 24.0603C46.778 24.4548 46.4266 24.9516 46.0155 25.5593C45.7343 25.9762 45.467 26.3678 45.2151 26.7375C44.2457 28.1583 43.4798 29.2807 43.018 30.1996C42.9989 30.2377 42.9697 30.2698 42.9334 30.2922C42.8972 30.3147 42.8554 30.3266 42.8128 30.3267ZM58.0746 34.128C58.0344 34.1279 57.9953 34.1174 57.9602 34.0975C57.9257 34.0776 57.897 34.049 57.8763 34.0145C57.8561 33.98 57.8452 33.9409 57.8446 33.9009C57.8446 33.8609 57.8544 33.8215 57.874 33.7864C58.0309 33.5041 57.8642 33.1189 57.61 32.936C57.2783 32.698 56.8355 32.7003 56.5221 32.7445C56.272 32.7851 56.0248 32.8415 55.7821 32.9136C55.6148 32.959 55.4417 33.0062 55.2646 33.0435C55.2054 33.055 55.1439 33.0429 55.0938 33.0097C55.0432 32.9765 55.0082 32.925 54.9955 32.8661C54.9829 32.8072 54.9938 32.7457 55.026 32.6949C55.0582 32.644 55.1094 32.6077 55.168 32.5939C55.3313 32.5588 55.4981 32.5134 55.6596 32.4697C55.9207 32.3926 56.1869 32.3323 56.456 32.2891C56.8528 32.2316 57.4214 32.2351 57.8768 32.5628C58.3501 32.9027 58.5283 33.5518 58.2747 34.0095C58.2546 34.0453 58.2259 34.0751 58.1902 34.096C58.1551 34.1168 58.1155 34.1278 58.0746 34.128Z" fill="white"/>
<path d="M44.9614 33.7928C44.9093 33.7923 44.8588 33.7742 44.8184 33.7414C44.7779 33.7086 44.7498 33.663 44.7386 33.612C44.7275 33.5611 44.7339 33.5079 44.757 33.4611C44.78 33.4143 44.8183 33.3768 44.8655 33.3546C45.2588 33.1717 45.5974 32.9958 45.7579 32.698C45.8257 32.5715 45.7924 32.3484 45.6825 32.2006C45.6464 32.1444 45.594 32.1007 45.5323 32.0753C45.4706 32.05 45.4026 32.0441 45.3375 32.0586C45.3076 32.0654 45.2766 32.0661 45.2464 32.0607C45.2162 32.0554 45.1874 32.044 45.1616 32.0274C45.1359 32.0107 45.1137 31.9891 45.0964 31.9637C45.0792 31.9384 45.0672 31.9098 45.0611 31.8797C45.055 31.8496 45.0551 31.8186 45.0612 31.7886C45.0673 31.7586 45.0793 31.73 45.0966 31.7046C45.1139 31.6793 45.1361 31.6577 45.1618 31.641C45.1876 31.6244 45.2164 31.6131 45.2467 31.6078C45.3973 31.5758 45.5541 31.589 45.6973 31.6459C45.8405 31.7026 45.9638 31.8004 46.0517 31.9269C46.2713 32.223 46.3161 32.6296 46.162 32.9159C45.9159 33.373 45.4209 33.603 45.0592 33.7715C45.0285 33.7855 44.9952 33.7928 44.9614 33.7928ZM44.0972 31.9338C44.0816 31.9338 44.0659 31.932 44.0506 31.9286C43.991 31.9164 43.9386 31.881 43.9049 31.8303C43.8713 31.7795 43.8592 31.7175 43.8712 31.6578C43.8839 31.5962 43.835 31.4692 43.7309 31.3628C43.6355 31.265 43.5245 31.2133 43.4434 31.2282C43.3844 31.2367 43.3244 31.222 43.276 31.1871C43.2277 31.1522 43.1948 31.0999 43.1843 31.0412C43.1737 30.9825 43.1865 30.922 43.2196 30.8725C43.2529 30.8229 43.304 30.7882 43.3623 30.7757C43.6004 30.7332 43.8563 30.8298 44.0633 31.0419C44.2703 31.2541 44.3709 31.5249 44.3249 31.7492C44.3143 31.8017 44.2859 31.8488 44.2443 31.8825C44.2027 31.9162 44.1507 31.9343 44.0972 31.9338ZM60.3406 29.3077C60.286 29.3079 60.2331 29.2885 60.1911 29.2531C60.1497 29.2176 60.1221 29.1685 60.1129 29.1144C60.1043 29.0604 60.1152 29.005 60.144 28.9582C60.1721 28.9114 60.2164 28.8764 60.2682 28.8592C61.7275 28.3767 63.2139 27.9808 64.7192 27.6736C64.779 27.6614 64.8417 27.6735 64.8923 27.7071C64.9435 27.7407 64.9786 27.7932 64.9906 27.853C65.0033 27.9128 64.9912 27.9749 64.9573 28.0259C64.9239 28.0768 64.871 28.1122 64.8112 28.1244C63.3237 28.4271 61.8552 28.8176 60.4131 29.2939C60.3901 29.3024 60.3653 29.3071 60.3406 29.3077Z" fill="white"/>
<path d="M73.7344 13.2612L77.3712 12.558C78.3792 12.3625 79.4108 12.167 80.4256 12.3211C82.0581 12.5695 83.434 13.6971 84.4506 14.9972C85.4672 16.2972 86.2078 17.7911 87.1353 19.1567C87.7103 20.0031 88.3664 20.8167 88.7028 21.7833C89.4319 23.8815 88.5027 26.1769 87.409 28.1083C86.926 28.9622 86.3953 29.8109 85.6518 30.4509C85.0751 30.9472 84.3903 31.301 83.652 31.4837C82.9137 31.6665 82.1426 31.673 81.4014 31.5028C80.6602 31.3326 79.9691 30.9904 79.3843 30.5039C78.8001 30.0175 78.3378 29.4003 78.0359 28.7023C78.8455 27.6489 80.6809 27.9502 81.4244 26.8502C81.6544 26.5121 81.8269 25.7313 81.8143 25.323C81.7131 21.988 79.6005 19.9077 77.0694 17.7365C76.1131 16.9165 75.0373 16.1443 73.7919 15.9678C73.1645 15.8792 72.5303 15.9482 71.9059 16.0293C71.4671 16.0868 70.9663 16.2242 70.646 15.8246C69.9514 14.9575 71.2567 14.0346 71.934 13.7437C72.5067 13.4993 73.1249 13.3791 73.7344 13.2612Z" fill="#FACBDF"/>
<path d="M78.3105 13.5786C78.268 13.5785 78.2266 13.5668 78.1909 13.5447C77.1864 12.9319 76.0531 12.5608 74.8812 12.4608C74.8197 12.4557 74.7633 12.4264 74.7242 12.3796C74.6846 12.3329 74.6656 12.2723 74.6708 12.2113C74.6759 12.1503 74.7047 12.0939 74.7518 12.0544C74.7984 12.0149 74.8588 11.9957 74.9203 12.0008C76.1623 12.1079 77.3629 12.5015 78.4278 13.1508C78.4704 13.1769 78.5037 13.2164 78.5221 13.2633C78.5405 13.3101 78.5434 13.3617 78.5296 13.4102C78.5158 13.4586 78.4865 13.5012 78.4462 13.5314C78.406 13.5616 78.3571 13.5778 78.3071 13.5775L78.3105 13.5786ZM80.8244 15.2778C80.7692 15.2779 80.7163 15.2585 80.6749 15.2231C80.1902 14.8083 79.6359 14.483 79.0373 14.2629C79.0086 14.2525 78.9827 14.2365 78.9603 14.216C78.9384 14.1955 78.9206 14.1708 78.9079 14.1433C78.8953 14.1159 78.8878 14.0862 78.8867 14.056C78.8855 14.0259 78.8901 13.9957 78.901 13.9673C78.9114 13.939 78.9275 13.913 78.9476 13.8908C78.9683 13.8686 78.993 13.8507 79.0206 13.838C79.0477 13.8254 79.0776 13.8182 79.1075 13.817C79.1379 13.8159 79.1678 13.8206 79.1966 13.8311C79.8469 14.0701 80.4495 14.4229 80.9762 14.873C81.0107 14.9037 81.0354 14.9443 81.0469 14.9894C81.0584 15.0345 81.0556 15.082 81.0395 15.1255C81.0234 15.1691 80.994 15.2068 80.9561 15.2336C80.9181 15.2603 80.8727 15.2749 80.8267 15.2755L80.8244 15.2778ZM83.8547 18.0751C83.8179 18.0752 83.7822 18.0666 83.75 18.0501C83.7178 18.0336 83.6896 18.0097 83.6684 17.9803C83.1917 17.3288 82.5925 16.7773 81.9037 16.357C81.8514 16.3253 81.814 16.2742 81.7996 16.2149C81.7852 16.1555 81.7944 16.0929 81.8266 16.0408C81.8583 15.9886 81.9094 15.9512 81.9687 15.9368C82.0279 15.9223 82.0906 15.932 82.1429 15.9637C82.8835 16.4157 83.5281 17.0089 84.0404 17.7094C84.0651 17.7438 84.0801 17.7843 84.0835 17.8266C84.087 17.869 84.0789 17.9114 84.0594 17.9493C84.0404 17.9872 84.0111 18.0189 83.9748 18.0412C83.9386 18.0634 83.8972 18.0751 83.8547 18.0751ZM85.8384 21.6034C85.7895 21.6033 85.7418 21.5877 85.7021 21.5589C85.663 21.5301 85.6337 21.4895 85.6193 21.443C85.352 20.6074 84.8925 19.8462 84.2773 19.2212C84.2549 19.1998 84.237 19.1744 84.225 19.1461C84.2129 19.1179 84.2066 19.0876 84.2066 19.0569C84.2066 19.0262 84.2123 18.9958 84.2238 18.9675C84.2359 18.9391 84.2531 18.9134 84.275 18.8919C84.2968 18.8703 84.3227 18.8533 84.3515 18.8419C84.3796 18.8306 84.4101 18.825 84.4406 18.8256C84.4716 18.8261 84.5015 18.8328 84.5297 18.8452C84.5579 18.8577 84.5832 18.8756 84.6045 18.898C85.2703 19.5747 85.7683 20.3986 86.0581 21.3032C86.0759 21.3611 86.0701 21.4239 86.0425 21.4777C86.0144 21.5316 85.9661 21.5722 85.9086 21.5907C85.8856 21.5986 85.862 21.6029 85.8384 21.6034ZM86.2444 25.0148C86.2202 25.0149 86.1961 25.0112 86.1731 25.0039C86.1156 24.9851 86.0678 24.9443 86.0397 24.8905C86.0121 24.8367 86.0069 24.7741 86.0253 24.7164C86.2541 24.0089 86.2886 23.2529 86.1259 22.5274C86.1179 22.4976 86.1161 22.4665 86.1207 22.436C86.1253 22.4055 86.1357 22.3762 86.1518 22.35C86.1679 22.3237 86.1892 22.3009 86.2145 22.2829C86.2392 22.2649 86.2679 22.2522 86.2978 22.2454C86.3277 22.2386 86.3588 22.238 86.3893 22.2434C86.4197 22.2489 86.4485 22.2604 86.4744 22.2773C86.5002 22.2941 86.5221 22.316 86.5393 22.3416C86.5566 22.3672 86.5681 22.3959 86.5744 22.4262C86.7561 23.2321 86.7176 24.072 86.4629 24.8578C86.4473 24.9037 86.418 24.9434 86.3789 24.9716C86.3392 24.9998 86.2927 25.0149 86.2444 25.0148ZM80.212 31.4496C80.0763 31.4496 79.9412 31.4456 79.8055 31.4376C79.7756 31.4358 79.7463 31.428 79.7187 31.4148C79.6917 31.4016 79.6675 31.3831 79.6474 31.3604C79.6273 31.3378 79.6117 31.3115 79.602 31.2828C79.5922 31.2542 79.5876 31.224 79.5893 31.1938C79.5916 31.1636 79.5991 31.134 79.6123 31.1068C79.6255 31.0796 79.6439 31.0552 79.6669 31.0352C79.6894 31.0151 79.7158 30.9997 79.7446 30.9898C79.7727 30.9799 79.8032 30.9758 79.8331 30.9776C80.3518 31.0084 80.8721 30.976 81.3827 30.881C81.4132 30.8744 81.4443 30.8739 81.4747 30.8796C81.5046 30.8853 81.5334 30.8969 81.5593 30.914C81.5851 30.931 81.607 30.9529 81.6237 30.9786C81.6409 31.0043 81.6524 31.0331 81.6582 31.0634C81.6639 31.0936 81.6633 31.1248 81.657 31.1548C81.6501 31.1849 81.6375 31.2134 81.6196 31.2385C81.6024 31.2636 81.5794 31.2849 81.5535 31.3012C81.5271 31.3174 81.4977 31.3282 81.4673 31.3329C81.0538 31.4102 80.6335 31.4493 80.212 31.4496ZM82.8294 30.6314C82.7742 30.6315 82.7208 30.6117 82.6788 30.5757C82.6368 30.5396 82.6092 30.4898 82.6012 30.4352C82.5931 30.3805 82.6052 30.3248 82.6345 30.2782C82.6644 30.2315 82.7098 30.1971 82.7627 30.1812C83.3078 30.0135 83.7937 29.6921 84.1617 29.2554C84.1801 29.2309 84.2043 29.2104 84.2313 29.1952C84.2583 29.18 84.2876 29.1705 84.3187 29.1671C84.3497 29.1638 84.3808 29.1666 84.4101 29.1756C84.44 29.1846 84.4676 29.1995 84.4912 29.2194C84.5153 29.2393 84.5343 29.2638 84.5487 29.2914C84.5625 29.319 84.5711 29.3492 84.5734 29.3801C84.5751 29.411 84.5711 29.442 84.5608 29.4713C84.551 29.5006 84.5349 29.5275 84.5142 29.5504C84.0887 30.0557 83.5269 30.4277 82.8961 30.6216C82.8743 30.628 82.8519 30.6313 82.8294 30.6314ZM85.241 28.2279C85.1967 28.2278 85.1536 28.215 85.1168 28.191C85.0794 28.167 85.0501 28.1329 85.0323 28.0927C85.0139 28.0526 85.0075 28.008 85.0139 27.9644C85.0202 27.9208 85.0392 27.8799 85.0685 27.8467C85.4733 27.3825 85.7631 26.8296 85.9155 26.2327C85.9304 26.1735 85.9684 26.1228 86.0213 26.0918C86.0742 26.0607 86.1368 26.0518 86.1961 26.0671C86.2553 26.0823 86.3059 26.1205 86.3369 26.1731C86.368 26.2257 86.3766 26.2885 86.3617 26.3477C86.192 27.0149 85.8672 27.6329 85.4146 28.1514C85.3928 28.1758 85.3658 28.1952 85.3359 28.2084C85.306 28.2216 85.2738 28.2282 85.241 28.2279Z" fill="#1B5EC9"/>
<path d="M62.7895 25.5553C62.7567 25.555 62.7245 25.5476 62.6946 25.5337C62.6653 25.5199 62.6389 25.4997 62.617 25.4748C62.299 25.1022 61.9483 24.6186 62.0541 24.1822C62.0616 24.1529 62.0742 24.1251 62.092 24.1007C62.1099 24.0763 62.1323 24.0556 62.1582 24.0399C62.184 24.0241 62.2128 24.0136 62.2421 24.0089C62.272 24.0042 62.3025 24.0055 62.3318 24.0126C62.3617 24.0197 62.3893 24.0325 62.4135 24.0503C62.4382 24.0681 62.4589 24.0905 62.4744 24.1163C62.4899 24.1421 62.5009 24.1707 62.5055 24.2006C62.5101 24.2304 62.5089 24.261 62.5014 24.2903C62.4721 24.411 62.529 24.6629 62.9666 25.1764C62.9954 25.2096 63.0132 25.2503 63.0195 25.2935C63.0253 25.3368 63.0189 25.3809 63.0011 25.4206C62.9827 25.4603 62.954 25.4942 62.9172 25.518C62.8809 25.5418 62.8378 25.5548 62.7941 25.5553H62.7895ZM61.0231 22.3543C60.9932 22.3543 60.9633 22.3484 60.9351 22.3368C60.9075 22.3253 60.8822 22.3084 60.8604 22.287C60.5729 21.9995 60.206 21.5613 60.3774 21.1261C60.3998 21.0693 60.4441 21.0236 60.4999 20.9993C60.5562 20.9749 60.6195 20.9738 60.6758 20.9961C60.7327 21.0185 60.7787 21.0625 60.8029 21.1184C60.827 21.1744 60.8282 21.2378 60.8058 21.2945C60.7684 21.3883 60.8058 21.582 61.1858 21.9615C61.218 21.9937 61.2405 22.0347 61.2491 22.0793C61.2583 22.124 61.2537 22.1703 61.2359 22.2123C61.2186 22.2544 61.1893 22.2903 61.1513 22.3156C61.1134 22.3409 61.0691 22.3543 61.0231 22.3543ZM58.7237 19.6196C58.6921 19.6195 58.661 19.6129 58.6323 19.6004C58.6035 19.5878 58.5776 19.5695 58.5564 19.5466C58.1723 19.1383 57.9888 18.8485 57.9624 18.6076C57.9555 18.5466 57.9733 18.4854 58.0113 18.4375C58.0498 18.3895 58.1056 18.3588 58.1665 18.352C58.2275 18.3452 58.289 18.3629 58.3367 18.4012C58.3844 18.4396 58.4155 18.4954 58.4224 18.5564C58.4304 18.63 58.5023 18.8146 58.8945 19.2321C58.9249 19.2648 58.9456 19.3058 58.9531 19.35C58.9612 19.3943 58.9554 19.4398 58.9376 19.481C58.9198 19.5222 58.8904 19.5573 58.8525 19.5819C58.8151 19.6066 58.7714 19.6197 58.7266 19.6196H58.7237Z" fill="white"/>
<path d="M50.1103 80.5653C49.962 79.5303 48.9396 78.6678 47.9424 78.8173C46.9453 78.9668 46.2317 80.1807 46.6279 81.1501C46.7751 81.5095 47.0419 81.8079 47.3455 82.0425C47.9688 82.5232 48.6205 82.5997 49.3128 82.2645C50.0051 81.9292 50.5778 81.0754 50.127 80.4216L50.1103 80.5653Z" fill="#FF5400"/>
<path d="M50.319 81.188C50.2604 81.1886 50.2035 81.1656 50.1609 81.1254C50.1178 81.0845 50.0925 81.0293 50.089 80.9701C50.0494 80.2025 49.878 79.8385 49.6325 79.5286C49.3743 79.233 49.0247 79.0306 48.6389 78.9536C48.0067 78.861 47.4104 79.3561 47.1269 79.8546C47.0964 79.9081 47.046 79.9472 46.9866 79.9633C46.9273 79.9794 46.864 79.9713 46.8107 79.9409C46.7573 79.9104 46.7182 79.8604 46.7021 79.8011C46.6858 79.7413 46.6939 79.6781 46.7244 79.6246C47.0953 78.9737 47.8509 78.3723 48.7027 78.4959C48.9747 78.5413 49.234 78.6419 49.4652 78.7909C49.6664 78.9099 49.8447 79.0628 49.9919 79.2434C50.3472 79.6919 50.5094 80.1852 50.5473 80.9465C50.549 80.977 50.545 81.0069 50.5347 81.0357C50.5243 81.0638 50.5088 81.0903 50.4887 81.1127C50.4685 81.1351 50.4438 81.1535 50.4168 81.1662C50.3892 81.1794 50.3599 81.1869 50.3294 81.188H50.319ZM48.5716 82.6842C48.4124 82.6876 48.2546 82.6566 48.1086 82.5933C48.0802 82.5818 48.0545 82.564 48.0331 82.5422C48.0116 82.5197 47.9948 82.4939 47.9836 82.4651C47.9725 82.4364 47.9672 82.4059 47.9681 82.3748C47.969 82.3444 47.976 82.3139 47.9889 82.2857C48.0017 82.2581 48.02 82.2328 48.0427 82.2121C48.0654 82.1914 48.0921 82.1753 48.1211 82.165C48.1501 82.1546 48.1809 82.15 48.2116 82.1523C48.2424 82.154 48.2724 82.1621 48.3 82.1753C48.6665 82.3426 49.4002 82.0753 49.64 81.7602C49.6768 81.7119 49.7314 81.6797 49.7918 81.6716C49.8521 81.6636 49.9137 81.6797 49.962 81.7165C50.0108 81.7533 50.0425 81.8079 50.0505 81.8683C50.0591 81.9286 50.043 81.9902 50.0062 82.0385C49.736 82.3938 49.1104 82.6842 48.5716 82.6842ZM47.3443 82.2725C47.298 82.2725 47.2529 82.2587 47.215 82.2317L47.1764 82.2058C47.1191 82.1724 47.0686 82.1282 47.0275 82.0758C47.0154 82.0615 46.9988 82.0413 46.97 82.0109C46.8234 81.8447 46.7308 81.5612 46.6118 81.0966C46.6043 81.0679 46.6025 81.0374 46.6067 81.0075C46.611 80.9776 46.621 80.9483 46.6364 80.9224C46.6518 80.8965 46.672 80.8735 46.6962 80.8557C46.7203 80.8373 46.7478 80.8241 46.7771 80.8166C46.8064 80.8091 46.8368 80.8074 46.8667 80.8114C46.8966 80.816 46.9255 80.8258 46.9515 80.8413C46.9775 80.8563 47.0003 80.877 47.0184 80.9011C47.0366 80.9253 47.0499 80.9529 47.0574 80.9816C47.108 81.1788 47.2138 81.59 47.315 81.7044C47.3466 81.7406 47.3662 81.7619 47.3806 81.7814L47.3921 81.7952L47.434 81.8246L47.4737 81.8516C47.5142 81.8798 47.5448 81.9194 47.561 81.966C47.5771 82.0126 47.578 82.0632 47.5634 82.1098C47.5487 82.1569 47.5195 82.1977 47.4799 82.2271C47.4402 82.2558 47.3924 82.2719 47.3432 82.2713L47.3443 82.2725ZM53.8927 24.7216L52.7731 22.1341C52.6374 21.8196 52.4897 21.4907 52.2148 21.2871C51.94 21.0836 51.4955 21.0657 51.2948 21.3417C51.0539 21.6706 51.2948 22.1255 51.53 22.4578L52.9479 24.4462C53.1492 24.7291 53.5523 25.0338 53.788 24.7785L53.8927 24.7216Z" fill="black"/>
<path d="M53.5706 25.1051C53.5585 25.1051 53.5459 25.1051 53.5338 25.1051C53.2222 25.0855 52.9209 24.8113 52.7576 24.5818L51.3402 22.5918C50.9314 22.0168 50.8526 21.5522 51.1062 21.206C51.166 21.1271 51.2407 21.0607 51.3264 21.0107C51.4121 20.9608 51.5069 20.9283 51.6053 20.9151C51.8692 20.8778 52.1371 20.9451 52.3528 21.1025C52.6851 21.3486 52.8513 21.735 52.9853 22.0432L54.1048 24.6307C54.1284 24.6866 54.1295 24.7498 54.1071 24.8064C54.0847 24.8629 54.041 24.9083 53.9852 24.9326C53.9725 24.9383 53.9593 24.9427 53.9461 24.9458C53.8978 24.9969 53.8397 25.0374 53.7747 25.0648C53.7103 25.0923 53.6408 25.1059 53.5706 25.1051ZM51.7444 21.3647C51.7208 21.3647 51.6973 21.3664 51.6743 21.3699C51.5966 21.3786 51.5259 21.4175 51.4776 21.478C51.3241 21.6879 51.5219 22.053 51.7145 22.325L53.1319 24.3133C53.2572 24.4887 53.4504 24.6376 53.5626 24.6445C53.5769 24.6465 53.5913 24.643 53.6034 24.6347L52.5609 22.2261C52.443 21.9535 52.3096 21.6447 52.0768 21.4722C51.9796 21.4032 51.8634 21.3656 51.7444 21.3647Z" fill="black"/>
</svg>
