<svg width="117" height="148" viewBox="0 0 117 148" fill="none" xmlns="http://www.w3.org/2000/svg">
<path d="M76.5521 127.416C76.5521 133.932 74.713 139.208 72.4443 139.208H58.6527C56.384 139.208 54.5449 133.928 54.5449 127.416V42.3422C54.5449 35.8266 56.384 30.5474 58.6527 30.5474H72.4443C74.713 30.5474 76.5521 35.8266 76.5521 42.3422V127.416Z" fill="#99BBFF"/>
<path d="M72.3609 133.604C72.3609 141.062 66.3151 147.111 58.8537 147.111H13.5072C6.04888 147.111 0 141.065 0 133.604V36.1542C0 28.6928 6.04888 22.647 13.5072 22.647H58.8537C66.3151 22.647 72.3609 28.6928 72.3609 36.1542V133.604Z" fill="#6795FF"/>
<path d="M67.6565 70.2159C67.6565 76.7067 62.3927 81.9674 55.9049 81.9674H16.4558C9.96804 81.9674 4.70425 76.7067 4.70425 70.2159V42.4905C4.70425 35.9997 9.96495 30.739 16.4558 30.739H55.908C62.3958 30.739 67.6596 35.9997 67.6596 42.4905V70.2159H67.6565ZM15.9675 93.719C15.9675 94.8812 15.0247 95.8208 13.8657 95.8208H6.80605C5.64388 95.8208 4.70425 94.8781 4.70425 93.719V88.755C4.70425 87.5959 5.64697 86.6532 6.80605 86.6532H13.8657C15.0278 86.6532 15.9675 87.5959 15.9675 88.755V93.719ZM25.7223 133.728C25.7223 134.89 24.5756 135.829 23.16 135.829H14.5611C13.1486 135.829 12.0018 134.887 12.0018 133.728V128.764C12.0018 127.604 13.1486 126.662 14.5611 126.662H23.16C24.5756 126.662 25.7223 127.604 25.7223 128.764V133.728ZM43.0406 133.728C43.0406 134.89 41.8939 135.829 40.4783 135.829H31.8825C30.4668 135.829 29.3232 134.887 29.3232 133.728V128.764C29.3232 127.604 30.4699 126.662 31.8825 126.662H40.4783C41.8939 126.662 43.0406 127.604 43.0406 128.764V133.728ZM60.3589 133.728C60.3589 134.89 59.2153 135.829 57.7996 135.829H49.2039C47.7913 135.829 46.6446 134.887 46.6446 133.728V128.764C46.6446 127.604 47.7913 126.662 49.2039 126.662H57.7996C59.2153 126.662 60.3589 127.604 60.3589 128.764V133.728ZM13.2197 108.497H7.0286C5.72424 108.497 4.66406 107.433 4.66406 106.132V101.783C4.66406 100.482 5.72424 99.4186 7.0286 99.4186H13.2197C14.524 99.4186 15.5842 100.479 15.5842 101.783V106.132C15.5811 107.433 14.524 108.497 13.2197 108.497ZM7.0286 100.457C6.29915 100.457 5.7026 101.054 5.7026 101.783V106.132C5.7026 106.865 6.29915 107.458 7.0286 107.458H13.2197C13.9491 107.458 14.5457 106.865 14.5457 106.132V101.783C14.5457 101.054 13.9522 100.457 13.2197 100.457H7.0286ZM26.2045 108.497H20.0134C18.7091 108.497 17.652 107.433 17.652 106.132V101.783C17.652 100.482 18.7122 99.4186 20.0134 99.4186H26.2045C27.5089 99.4186 28.569 100.479 28.569 101.783V106.132C28.569 107.433 27.5089 108.497 26.2045 108.497ZM20.0134 100.457C19.2809 100.457 18.6905 101.054 18.6905 101.783V106.132C18.6905 106.865 19.2809 107.458 20.0134 107.458H26.2045C26.937 107.458 27.5305 106.865 27.5305 106.132V101.783C27.5305 101.054 26.937 100.457 26.2045 100.457H20.0134ZM39.1924 108.497H33.0014C31.7001 108.497 30.6399 107.433 30.6399 106.132V101.783C30.6399 100.482 31.7001 99.4186 33.0014 99.4186H39.1924C40.4968 99.4186 41.557 100.479 41.557 101.783V106.132C41.5601 107.433 40.4968 108.497 39.1924 108.497ZM33.0014 100.457C32.2719 100.457 31.6785 101.054 31.6785 101.783V106.132C31.6785 106.865 32.2719 107.458 33.0014 107.458H39.1924C39.9219 107.458 40.5184 106.865 40.5184 106.132V101.783C40.5184 101.054 39.9219 100.457 39.1924 100.457H33.0014ZM52.1804 108.497H45.9924C44.6911 108.497 43.6279 107.433 43.6279 106.132V101.783C43.6279 100.482 44.6911 99.4186 45.9924 99.4186H52.1804C53.4878 99.4186 54.5449 100.479 54.5449 101.783V106.132C54.5449 107.433 53.4878 108.497 52.1804 108.497ZM45.9924 100.457C45.2599 100.457 44.6664 101.054 44.6664 101.783V106.132C44.6664 106.865 45.2599 107.458 45.9924 107.458H52.1804C52.916 107.458 53.5095 106.865 53.5095 106.132V101.783C53.5095 101.054 52.916 100.457 52.1804 100.457H45.9924ZM65.1714 108.497H58.9803C57.6791 108.497 56.6158 107.433 56.6158 106.132V101.783C56.6158 100.482 57.6791 99.4186 58.9803 99.4186H65.1714C66.4727 99.4186 67.5328 100.479 67.5328 101.783V106.132C67.5328 107.433 66.4727 108.497 65.1714 108.497ZM58.9803 100.457C58.2509 100.457 57.6544 101.054 57.6544 101.783V106.132C57.6544 106.865 58.2478 107.458 58.9803 107.458H65.1714C65.9009 107.458 66.4943 106.865 66.4943 106.132V101.783C66.4943 101.054 65.9009 100.457 65.1714 100.457H58.9803Z" fill="white"/>
<path d="M13.2197 122.134H7.0286C5.72424 122.134 4.66406 121.073 4.66406 119.769V115.42C4.66406 114.116 5.72424 113.056 7.0286 113.056H13.2197C14.524 113.056 15.5842 114.116 15.5842 115.42V119.769C15.5811 121.073 14.524 122.134 13.2197 122.134ZM7.0286 114.094C6.29915 114.094 5.7026 114.688 5.7026 115.42V119.769C5.7026 120.502 6.29915 121.095 7.0286 121.095H13.2197C13.9491 121.095 14.5456 120.502 14.5456 119.769V115.42C14.5456 114.688 13.9522 114.094 13.2197 114.094H7.0286ZM26.2045 122.134H20.0134C18.7091 122.134 17.652 121.073 17.652 119.769V115.42C17.652 114.116 18.7122 113.056 20.0134 113.056H26.2045C27.5089 113.056 28.569 114.116 28.569 115.42V119.769C28.569 121.073 27.5089 122.134 26.2045 122.134ZM20.0134 114.094C19.2809 114.094 18.6905 114.688 18.6905 115.42V119.769C18.6905 120.502 19.2809 121.095 20.0134 121.095H26.2045C26.937 121.095 27.5305 120.502 27.5305 119.769V115.42C27.5305 114.688 26.937 114.094 26.2045 114.094H20.0134ZM39.1924 122.134H33.0014C31.7001 122.134 30.6399 121.073 30.6399 119.769V115.42C30.6399 114.116 31.7001 113.056 33.0014 113.056H39.1924C40.4968 113.056 41.557 114.116 41.557 115.42V119.769C41.5601 121.073 40.4968 122.134 39.1924 122.134ZM33.0014 114.094C32.2719 114.094 31.6785 114.688 31.6785 115.42V119.769C31.6785 120.502 32.2719 121.095 33.0014 121.095H39.1924C39.9219 121.095 40.5184 120.502 40.5184 119.769V115.42C40.5184 114.688 39.9219 114.094 39.1924 114.094H33.0014ZM52.1804 122.134H45.9924C44.6911 122.134 43.6279 121.073 43.6279 119.769V115.42C43.6279 114.116 44.6911 113.056 45.9924 113.056H52.1804C53.4878 113.056 54.5449 114.116 54.5449 115.42V119.769C54.5449 121.073 53.4878 122.134 52.1804 122.134ZM45.9924 114.094C45.2599 114.094 44.6664 114.688 44.6664 115.42V119.769C44.6664 120.502 45.2599 121.095 45.9924 121.095H52.1804C52.916 121.095 53.5095 120.502 53.5095 119.769V115.42C53.5095 114.688 52.916 114.094 52.1804 114.094H45.9924ZM65.1714 122.134H58.9803C57.6791 122.134 56.6158 121.073 56.6158 119.769V115.42C56.6158 114.116 57.6791 113.056 58.9803 113.056H65.1714C66.4727 113.056 67.5328 114.116 67.5328 115.42V119.769C67.5328 121.073 66.4727 122.134 65.1714 122.134ZM58.9803 114.094C58.2509 114.094 57.6543 114.688 57.6543 115.42V119.769C57.6543 120.502 58.2478 121.095 58.9803 121.095H65.1714C65.9008 121.095 66.4943 120.502 66.4943 119.769V115.42C66.4943 114.688 65.9008 114.094 65.1714 114.094H58.9803Z" fill="white"/>
<path d="M33.1997 93.719C33.1997 94.8812 32.257 95.8209 31.0979 95.8209H24.0383C22.8792 95.8209 21.9365 94.8781 21.9365 93.719V88.7551C21.9365 87.596 22.8792 86.6533 24.0383 86.6533H31.0979C32.2601 86.6533 33.1997 87.596 33.1997 88.7551V93.719Z" fill="white"/>
<path d="M50.4284 93.719C50.4284 94.8812 49.4857 95.8209 48.3235 95.8209H41.2639C40.1048 95.8209 39.1621 94.8781 39.1621 93.719V88.7551C39.1621 87.596 40.1048 86.6533 41.2639 86.6533H48.3235C49.4857 86.6533 50.4284 87.596 50.4284 88.7551V93.719Z" fill="white"/>
<path d="M67.6568 93.719C67.6568 94.8812 66.7141 95.8209 65.5519 95.8209H58.4954C57.3363 95.8209 56.3936 94.8781 56.3936 93.719V88.7551C56.3936 87.596 57.3363 86.6533 58.4954 86.6533H65.5519C66.7141 86.6533 67.6568 87.596 67.6568 88.7551V93.719Z" fill="white"/>
<path d="M35.0324 67.4063V64.8316C33.5549 64.8068 32.0249 64.3463 31.1348 63.7096L31.7468 62.0034C32.6648 62.6154 33.9908 63.0976 35.4157 63.0976C37.2238 63.0976 38.4478 62.0528 38.4478 60.6001C38.4478 59.1999 37.4526 58.3314 35.5671 57.5679C32.9677 56.548 31.3635 55.3765 31.3635 53.1603C31.3635 51.0462 32.8657 49.4389 35.2117 49.0587V46.484H36.7911V48.9567C38.3211 49.0093 39.3658 49.4142 40.1045 49.85L39.4678 51.5314C38.9331 51.2254 37.8884 50.666 36.2564 50.666C34.2937 50.666 33.5549 51.8374 33.5549 52.8574C33.5549 54.1834 34.4977 54.8449 36.7138 55.7629C39.338 56.8323 40.664 58.1583 40.664 60.427C40.664 62.4392 39.2638 64.3246 36.6366 64.7605V67.4094H35.0324V67.4063Z" fill="#FBB040"/>
<path d="M36.1813 74.5895C26.1266 74.5895 17.945 66.411 17.945 56.3532C17.945 46.2954 26.1266 38.1169 36.1813 38.1169C46.236 38.1169 54.4207 46.2954 54.4207 56.3532C54.4176 66.411 46.236 74.5895 36.1813 74.5895ZM36.1813 36.5839C25.2797 36.5839 16.415 45.4516 16.415 56.3501C16.415 67.2517 25.2828 76.1195 36.1813 76.1195C47.0829 76.1195 55.9507 67.2517 55.9507 56.3501C55.9507 45.4547 47.0829 36.5839 36.1813 36.5839Z" fill="#6795FF"/>
<mask id="mask0_4357_609" style="mask-type:luminance" maskUnits="userSpaceOnUse" x="73" y="35" width="44" height="92">
<path d="M117 35.3477H73.9502V126.662H117V35.3477Z" fill="white"/>
</mask>
<g mask="url(#mask0_4357_609)">
<path d="M100.834 37.811C108.586 37.811 114.87 44.0979 114.87 51.8499V109.786C114.87 117.538 108.583 123.821 100.834 123.821H73.3961C65.6441 123.821 59.3604 117.538 59.3604 109.786V51.8468C59.3604 44.0948 65.6472 37.8079 73.3961 37.8079H100.834V37.811Z" fill="#FFC466"/>
<path d="M73.3937 123.818H78.4597V37.811H73.3937C71.1497 37.811 69.0355 38.3519 67.1562 39.2884V122.344C69.0386 123.28 71.1497 123.818 73.3937 123.818Z" fill="#FBAE25"/>
<path d="M98.8373 45.9432C104.283 45.9432 108.697 50.3601 108.697 55.8032C108.697 61.2493 104.283 65.6631 98.8373 65.6631C93.3943 65.6631 88.9805 61.2493 88.9805 55.8032C88.9805 50.3601 93.3943 45.9432 98.8373 45.9432Z" fill="white"/>
<path d="M89.8547 96.9707H87.416V113.346H89.8547V96.9707Z" fill="white"/>
<path d="M98.9055 96.9707H96.4668V113.346H98.9055V96.9707Z" fill="white"/>
<path d="M107.952 96.9707H105.514V113.346H107.952V96.9707Z" fill="white"/>
<path d="M94.1526 90.2852H91.7139V113.346H94.1526V90.2852Z" fill="white"/>
</g>
<path d="M59.3761 24.7703H12.002V28.6988H59.3761V24.7703Z" fill="white"/>
<path d="M56.6127 0H15.5811V26.7362H56.6127V0Z" fill="#99BBFF"/>
<path d="M54.5483 19.5622H17.6523V21.2838H54.5483V19.5622Z" fill="white"/>
<path d="M54.5483 15.0186H17.6523V16.7433H54.5483V15.0186Z" fill="white"/>
<path d="M54.5483 10.475H17.6523V12.1998H54.5483V10.475Z" fill="white"/>
<path d="M54.5483 5.93451H17.6523V7.65614H54.5483V5.93451Z" fill="white"/>
</svg>
