<svg width="62" height="218" viewBox="0 0 62 218" fill="none" xmlns="http://www.w3.org/2000/svg">
<path fill-rule="evenodd" clip-rule="evenodd" d="M60.1127 115.235C59.9543 117.36 59.114 120.447 58.9286 122.818C58.7417 125.212 58.9129 130.977 58.7074 133.554C58.5819 135.145 58.3051 137.714 57.9428 139.528C56.673 145.897 54.3575 152.455 53.8368 158.451C52.1548 177.782 51.8723 195.031 51.5541 206.677C51.4314 211.2 51.2075 215.174 51.0505 217.617H8.79551C10.0267 211.594 13.1012 196.525 16.0244 181.928C17.5781 174.178 18.8935 168.39 20.0034 162.214C20.7167 158.264 21.5214 153.551 21.6555 150.038C21.8895 143.87 18.902 138.687 16.8362 133.768C14.8103 128.934 12.2423 123.962 10.6188 119.024C9.59301 115.895 8.86827 111.375 8.30188 108.215C7.24044 102.297 5.81663 97.1525 4.04756 93.8754C1.93324 89.9554 -0.152543 88.9839 0.306844 86.1796C0.527977 84.8339 1.39967 83.7711 2.541 82.6168C3.66093 81.4925 4.96633 80.2482 5.93646 80.1139C9.08512 79.6754 11.2437 83.2782 11.2437 83.2782C11.2437 83.2782 10.984 80.5554 12.0854 78.4496C13.0955 76.5182 15.3824 75.2025 17.1971 74.9296C21.2974 74.3139 25.2293 75.3225 29.4194 75.9296C33.6994 76.5468 38.2262 76.7725 41.3777 77.0996C45.7305 77.5539 49.2686 78.3782 50.7623 79.8625C53.707 82.7896 52.7868 86.9582 52.7868 86.9582C53.6265 87.284 54.4302 87.6963 55.185 88.1882C56.6231 89.1382 58.0184 91.0596 57.7416 98.3754C57.7145 99.1039 57.9114 100.967 57.8443 101.782C57.7216 103.277 60.5578 109.201 60.1127 115.235Z" fill="#FFDDC0"/>
<path fill-rule="evenodd" clip-rule="evenodd" d="M61.166 4.59107C61.166 4.59107 52.4634 0.842493 41.839 0.448208C31.2146 0.0539218 18.6785 3.01964 18.6785 3.01964L18.3789 7.31249C18.3789 7.31249 15.7609 7.94678 12.6865 9.05106C9.61199 10.1553 6.07956 11.7311 6.07956 11.7311C6.07956 11.7311 8.54342 30.5039 12.5837 46.3311C16.6241 62.1582 22.6503 75.0811 22.6503 75.0811C22.6503 75.0811 26.2241 75.7311 29.8906 76.1496C33.5572 76.5682 36.9056 76.6882 36.9056 76.6882C36.9056 76.6882 42.1699 70.4425 48.2361 52.4168C50.7656 44.9025 53.6889 35.2454 55.9401 26.6496C59.0888 14.6282 61.166 4.59107 61.166 4.59107Z" fill="#C1E2D7"/>
<path fill-rule="evenodd" clip-rule="evenodd" d="M45.4684 10.7425C45.4684 10.7425 36.693 8.67534 27.7692 10.0496C18.8454 11.4239 9.77608 16.2411 9.77608 16.2411C9.77608 16.2411 12.0587 34.3839 14.9977 48.5268C17.9366 62.6696 21.5261 72.7796 21.5261 72.7796L23.2652 74.9768C23.2652 74.9768 19.4132 61.7396 17.1462 47.2968C16.2375 41.4953 15.4457 36.4739 14.9863 31.3839C14.3029 23.7825 14.193 17.2011 14.193 17.2011C14.193 17.2011 21.2308 13.6253 28.0702 12.4739C34.9097 11.3225 41.538 12.6039 41.538 12.6039C41.538 12.6039 42.0259 31.0639 40.9602 46.7682C39.8944 62.4725 37.2694 75.4239 37.2694 75.4239C37.2694 75.4239 40.3724 69.7596 42.4225 55.4568C44.4726 41.1539 45.4684 18.2268 45.4684 18.2268V10.7425ZM57.0615 10.1525C57.0615 10.1525 54.4579 8.96534 52.2779 8.42248C50.9684 8.09587 49.64 7.85016 48.3004 7.68677L48.0921 10.0611C48.9677 10.1375 49.8387 10.26 50.7014 10.4282C51.4703 10.5994 52.2113 10.8779 52.9028 11.2553C52.9028 11.2553 50.6101 24.8711 48.4088 35.7496C46.2074 46.6282 44.1003 54.7596 44.1003 54.7596L41.7463 66.3382C41.7463 66.3382 46.2431 54.5339 50.0709 40.4811C53.8986 26.4282 57.0615 10.1525 57.0615 10.1525Z" fill="#88B99B"/>
<path fill-rule="evenodd" clip-rule="evenodd" d="M32.4585 28.9025C32.4585 26.6939 30.4826 24.6539 28.2156 24.6539C25.9486 24.6539 23.9028 26.1311 23.9028 28.3396C23.9028 30.5482 25.8288 32.8911 28.0958 32.8911C30.3627 32.8911 32.4585 31.1111 32.4585 28.9025ZM36.0066 55.9168L35.6928 52.4639C35.6928 52.4639 31.8407 50.2425 29.0117 51.2554C25.9144 52.3668 23.5903 53.9554 23.7615 57.5411C23.9042 60.5239 25.9015 62.9411 28.2983 63.6839C31.6382 64.7254 35.6143 62.0682 35.6143 62.0682L35.5358 63.8525C35.5358 63.8525 36.7899 63.3039 37.2478 60.4011C37.7058 57.4982 36.0066 55.9168 36.0066 55.9168Z" fill="#88B99B"/>
<path d="M42.0177 133.322C42.1052 133.322 42.1898 133.291 42.2576 133.236C42.3254 133.18 42.3723 133.104 42.3908 133.018C42.4092 132.932 42.398 132.843 42.359 132.765C42.3199 132.686 42.2554 132.624 42.1761 132.587C37.2469 130.351 31.4504 129.131 26.6653 129.312C26.6132 129.312 26.5616 129.322 26.5135 129.342C26.4655 129.363 26.422 129.392 26.3857 129.43C26.3495 129.467 26.3212 129.512 26.3026 129.56C26.2839 129.609 26.2754 129.661 26.2774 129.713C26.2794 129.765 26.292 129.816 26.3144 129.864C26.3367 129.911 26.3684 129.953 26.4074 129.987C26.4465 130.022 26.4922 130.048 26.5416 130.064C26.5911 130.081 26.6434 130.087 26.6953 130.082C31.3591 129.904 37.0329 131.101 41.8593 133.287C41.9088 133.31 41.9629 133.323 42.0177 133.322ZM40.7608 154.15C40.842 154.149 40.921 154.123 40.9864 154.075C41.0518 154.026 41.1004 153.959 41.1251 153.881C41.1497 153.804 41.1493 153.72 41.1239 153.643C41.0984 153.566 41.0493 153.499 40.9834 153.451C34.328 148.704 33.5561 138.34 33.9585 136.12C33.9678 136.07 33.9673 136.019 33.957 135.969C33.9466 135.92 33.9267 135.873 33.8982 135.831C33.8697 135.789 33.8333 135.753 33.791 135.726C33.7487 135.698 33.7014 135.679 33.6517 135.67C33.6021 135.66 33.5511 135.661 33.5016 135.671C33.4522 135.681 33.4052 135.701 33.3635 135.73C33.3218 135.758 33.2861 135.795 33.2584 135.837C33.2307 135.88 33.2117 135.927 33.2023 135.977C32.6317 139.12 34.0255 149.427 40.5382 154.072C40.6027 154.121 40.6805 154.148 40.7608 154.15Z" fill="#30394B"/>
<path d="M29.3858 133.061C30.7183 133.061 31.9024 132.861 32.7627 132.435C32.8541 132.39 32.9237 132.31 32.9564 132.214C32.989 132.117 32.9819 132.011 32.9367 131.92C32.8915 131.828 32.8119 131.758 32.7153 131.726C32.6187 131.693 32.5131 131.7 32.4217 131.745C29.4257 133.228 21.472 131.477 19.0581 128.174C16.7969 125.084 15.2318 120.441 17.62 116.682C18.5388 115.237 22.5178 115.254 26.725 115.272C28.3514 115.272 30.032 115.285 31.6727 115.215C33.7214 115.125 36.0312 114.658 38.2639 114.208C42.7137 113.308 47.3161 112.378 49.9711 114.395C50.0112 114.428 50.0575 114.453 50.1072 114.467C50.157 114.482 50.2091 114.486 50.2606 114.48C50.3121 114.474 50.3618 114.458 50.4067 114.432C50.4517 114.406 50.491 114.371 50.5223 114.33C50.5536 114.289 50.5763 114.241 50.5889 114.191C50.6016 114.141 50.604 114.088 50.5959 114.037C50.5879 113.986 50.5696 113.937 50.5422 113.893C50.5147 113.849 50.4787 113.811 50.4362 113.781C47.503 111.555 42.7322 112.521 38.1127 113.454C35.9085 113.898 33.6287 114.358 31.6385 114.445C30.0163 114.515 28.3457 114.508 26.7293 114.502C22.1098 114.48 18.1194 114.465 16.9723 116.27C14.3744 120.355 16.0265 125.332 18.4375 128.63C20.4534 131.387 25.5352 133.061 29.3858 133.061Z" fill="#30394B"/>
<path d="M17.5143 116.28C17.5921 116.28 17.6681 116.255 17.7311 116.21C17.7723 116.181 17.8076 116.145 17.8347 116.103C17.8619 116.061 17.8804 116.015 17.8893 115.965C17.8982 115.916 17.8973 115.866 17.8865 115.817C17.8758 115.768 17.8554 115.722 17.8267 115.681L17.8139 115.665C16.8452 114.308 14.5753 111.131 14.9063 106.495C15.2316 101.931 18.4116 101.704 21.7786 101.462C23.9699 101.307 29.0303 101.422 35.436 101.565H35.6729C38.5062 101.632 41.6321 101.307 44.3884 101.022C48.0521 100.644 51.5117 100.287 52.937 101.014C52.9819 101.037 53.031 101.051 53.0812 101.054C53.1315 101.058 53.1821 101.052 53.2301 101.037C53.278 101.021 53.3224 100.996 53.3608 100.963C53.3991 100.93 53.4306 100.89 53.4534 100.845C53.4763 100.8 53.4901 100.751 53.494 100.701C53.4979 100.65 53.4918 100.6 53.4762 100.552C53.4606 100.504 53.4356 100.459 53.4029 100.421C53.3701 100.383 53.33 100.351 53.2851 100.328C51.6587 99.4981 48.2532 99.8496 44.3099 100.257C41.575 100.542 38.482 100.861 35.69 100.797H35.4532C29.0332 100.654 23.9514 100.537 21.7244 100.695C18.3446 100.937 14.5126 101.212 14.1388 106.441C13.7892 111.354 16.1718 114.688 17.189 116.112C17.2262 116.164 17.2751 116.206 17.3316 116.235C17.3882 116.264 17.4507 116.279 17.5143 116.28Z" fill="#30394B"/>
<path d="M14.7836 104.628C14.8606 104.628 14.9358 104.604 14.9993 104.56C15.0628 104.517 15.1118 104.455 15.1399 104.383C15.168 104.311 15.174 104.233 15.157 104.157C15.14 104.082 15.1009 104.014 15.0447 103.961C12.5081 101.61 10.2896 96.6753 11.1613 93.3424C11.174 93.2936 11.177 93.2426 11.1701 93.1926C11.1632 93.1426 11.1465 93.0944 11.121 93.0508C11.0955 93.0072 11.0617 92.9691 11.0215 92.9386C10.9813 92.9082 10.9355 92.8859 10.8867 92.8731C10.8379 92.8604 10.787 92.8574 10.737 92.8643C10.6871 92.8712 10.639 92.8879 10.5954 92.9134C10.5519 92.939 10.5139 92.9728 10.4834 93.0131C10.453 93.0534 10.4307 93.0993 10.418 93.1481C9.37653 97.1238 12.13 102.311 14.5211 104.525C14.5925 104.591 14.6863 104.628 14.7836 104.628ZM59.1672 124.957C59.2514 129.461 59.2171 135.264 58.1956 140.211C57.7676 142.294 57.304 144.012 56.8146 145.831C55.6505 150.16 54.4464 154.637 53.4463 164.831C53.2194 167.128 52.9227 176.22 52.5774 186.745C52.2364 197.198 51.8527 208.928 51.429 217.624H50.6586C51.0866 208.931 51.4675 197.185 51.8099 186.72C52.1551 176.181 52.4519 167.078 52.6801 164.755C53.6874 154.504 54.9 149.997 56.0728 145.638C56.5592 143.831 57.0186 142.124 57.4438 140.067C58.4425 135.195 58.4824 129.448 58.3982 124.984C58.3511 122.51 58.7207 120.811 59.0759 119.168C59.4654 117.371 59.8691 115.511 59.755 112.552C59.6223 109.148 58.899 106.827 58.3183 104.961C57.9203 103.675 57.575 102.574 57.4951 101.415C57.4352 100.558 57.4523 99.4824 57.468 98.3396C57.498 96.2438 57.5337 93.8696 57.1099 92.2896C55.4222 85.9739 49.7455 86.6953 41.1555 87.7881C38.2908 88.1524 35.0437 88.5667 31.5455 88.7624C30.6053 88.8167 29.1573 88.8281 27.4795 88.8424C22.9513 88.881 16.751 88.9324 14.4027 89.8181C14.1425 89.9169 13.889 90.0324 13.6437 90.1639C13.5545 90.2054 13.4528 90.2112 13.3595 90.1801C13.2662 90.149 13.1883 90.0834 13.1418 89.9966C13.0953 89.9098 13.0836 89.8085 13.1093 89.7134C13.135 89.6184 13.196 89.5367 13.2799 89.4853C13.5564 89.3375 13.8424 89.2082 14.1359 89.0981C16.6126 88.1638 22.8928 88.111 27.4767 88.0724C29.1444 88.0581 30.5854 88.0467 31.5056 87.9953C34.9766 87.7996 38.2109 87.3881 41.0642 87.0253C49.7312 85.9224 55.9957 85.1253 57.8589 92.091C58.3083 93.7738 58.2741 96.2053 58.2427 98.351C58.2256 99.4767 58.2113 100.54 58.2684 101.362C58.3412 102.431 58.6736 103.505 59.0588 104.732C59.6523 106.641 60.3927 109.018 60.5282 112.522C60.6467 115.58 60.2329 117.487 59.8335 119.331C59.4654 120.992 59.1215 122.572 59.1672 124.957Z" fill="#30394B"/>
<path d="M52.8367 87.081C52.9348 87.0808 53.0291 87.0432 53.1004 86.9758C53.1718 86.9083 53.2147 86.8162 53.2205 86.7182C53.3261 84.8539 53.6485 79.1796 47.9889 77.8039C44.408 76.9353 39.4646 76.5439 35.4913 76.2325C33.7793 76.0968 32.1772 75.9696 30.9046 75.8239C29.4408 75.6553 27.9856 75.431 26.5775 75.2125C21.0934 74.3639 16.3569 73.6296 13.4179 76.4267C11.432 78.3182 10.5889 80.7682 10.9798 83.5125C10.9943 83.6134 11.0484 83.7045 11.13 83.7656C11.2116 83.8266 11.3141 83.8528 11.4149 83.8382C11.5157 83.8236 11.6067 83.7695 11.6677 83.6878C11.7287 83.6061 11.7547 83.5034 11.7402 83.4025C11.3864 80.9168 12.1496 78.6968 13.9472 76.9839C16.6122 74.4482 21.1762 75.1553 26.4591 75.9725C27.8758 76.1925 29.3381 76.4182 30.8161 76.5882C32.1001 76.731 33.7194 76.8639 35.43 76.9996C39.3761 77.311 44.2867 77.6996 47.8077 78.5553C52.3231 79.6525 52.6213 83.7153 52.453 86.6767C52.4501 86.7272 52.4572 86.7778 52.4738 86.8255C52.4905 86.8733 52.5164 86.9172 52.55 86.9549C52.5837 86.9926 52.6245 87.0233 52.67 87.0452C52.7155 87.0671 52.7649 87.0797 52.8153 87.0825L52.8367 87.081ZM9.32483 217.617H8.54302C10.1994 208.674 12.2909 198.597 14.321 188.815C18.1602 170.325 21.7868 152.86 21.3331 148.244C20.8038 142.845 18.3171 137.601 15.6835 132.047C13.9615 128.414 12.181 124.657 10.7586 120.522C8.86829 115.03 8.49023 112.005 8.15496 109.337C7.94096 107.622 7.75692 106.147 7.19767 104.292C6.95942 103.502 6.73971 102.731 6.52428 101.975C5.41861 98.0968 4.46417 94.7468 1.68217 90.6625C1.64975 90.6209 1.62622 90.5731 1.61303 90.5221C1.59985 90.471 1.5973 90.4178 1.60555 90.3657C1.61379 90.3136 1.63265 90.2638 1.66095 90.2193C1.68926 90.1749 1.72639 90.1367 1.77006 90.1072C1.81373 90.0778 1.86298 90.0576 1.91476 90.048C1.96655 90.0384 2.01975 90.0396 2.07106 90.0515C2.12237 90.0633 2.17068 90.0857 2.213 90.1171C2.25532 90.1484 2.29073 90.1882 2.31704 90.2339C5.17037 94.421 6.18616 97.9896 7.26329 101.768C7.47872 102.522 7.69129 103.288 7.93383 104.075C8.50449 105.991 8.69995 107.504 8.91823 109.245C9.24779 111.877 9.62158 114.858 11.4862 120.277C12.8944 124.37 14.6648 128.107 16.3783 131.721C19.0404 137.337 21.5556 142.641 22.0992 148.172C22.5629 152.901 18.9249 170.422 15.0743 188.972C13.0541 198.698 10.9755 208.718 9.32483 217.617Z" fill="#30394B"/>
<path d="M37.3304 76.5496C37.4014 76.5495 37.471 76.5298 37.5316 76.4928C37.5922 76.4558 37.6416 76.4028 37.6742 76.3396C40.6652 70.3907 42.8071 64.0507 44.0371 57.5053C47.3185 39.591 48.7822 6.03247 48.7965 5.69676C48.8006 5.60605 48.7724 5.51683 48.717 5.44492C48.6617 5.37301 48.5827 5.32305 48.494 5.3039C48.397 5.28247 38.5944 3.18676 28.0927 4.68247C17.591 6.17819 6.16056 11.2925 6.04643 11.3439C5.97103 11.3783 5.90861 11.436 5.86831 11.5085C5.82801 11.581 5.81193 11.6645 5.82244 11.7468C5.85097 11.9553 8.64581 32.821 12.7489 48.021C15.7934 59.3068 20.2603 71.2082 22.1835 75.121C22.2057 75.1664 22.2366 75.2068 22.2744 75.2402C22.3122 75.2735 22.3562 75.2991 22.4039 75.3154C22.5002 75.3484 22.6057 75.3417 22.6971 75.2968C22.7884 75.2519 22.8583 75.1725 22.8912 75.076C22.9241 74.9796 22.9174 74.874 22.8725 74.7825C20.9694 70.9025 16.5224 59.0582 13.4965 47.8196C9.67444 33.6382 6.98089 14.4953 6.62993 11.931C8.39329 11.1639 18.7095 6.79819 28.2068 5.44533C37.5116 4.11676 46.2613 5.65104 48.0133 5.99104C47.8535 9.52247 46.384 40.4553 43.281 57.3668C42.0651 63.839 39.9467 70.1079 36.988 75.9896C36.9421 76.0808 36.934 76.1865 36.9655 76.2836C36.997 76.3807 37.0656 76.4615 37.1563 76.5082C37.2105 76.535 37.27 76.5492 37.3304 76.5496Z" fill="#30394B"/>
<path d="M37.3021 76.6482C37.3614 76.6481 37.4199 76.6344 37.4731 76.6081C37.5262 76.5819 37.5727 76.5438 37.6089 76.4967C39.9643 73.3824 44.8406 62.5867 47.7382 54.8453C54.134 37.7939 61.4898 5.02102 61.5626 4.69245C61.5829 4.60391 61.571 4.51105 61.5292 4.43045C61.4874 4.34984 61.4183 4.28675 61.3343 4.25245C61.243 4.21388 51.9668 0.418161 41.3696 0.0338752C30.7723 -0.350411 18.6171 2.66102 18.4958 2.69102C18.4164 2.71181 18.3458 2.75761 18.2945 2.82167C18.2431 2.88572 18.2136 2.96463 18.2105 3.04673L18.0336 6.99388C18.0311 7.0444 18.0386 7.09491 18.0557 7.1425C18.0729 7.19009 18.0992 7.23381 18.1333 7.27114C18.1674 7.30846 18.2086 7.33865 18.2544 7.35997C18.3002 7.38128 18.3498 7.39329 18.4002 7.3953C18.4513 7.40055 18.5028 7.39492 18.5516 7.37879C18.6003 7.36267 18.645 7.33641 18.6829 7.30173C18.7207 7.26706 18.7509 7.22476 18.7712 7.17761C18.7916 7.13046 18.8018 7.07953 18.8011 7.02816L18.9652 3.37102C20.8341 2.92816 31.7595 0.461018 41.3467 0.79959C50.7442 1.13959 59.0816 4.19673 60.7494 4.84245C59.969 8.28816 53.064 38.4753 47.0263 54.571C43.7721 63.2367 39.0883 73.2639 36.9954 76.031C36.9338 76.1125 36.907 76.2151 36.9209 76.3164C36.9348 76.4176 36.9883 76.5092 37.0696 76.571C37.1369 76.6209 37.2184 76.648 37.3021 76.6482Z" fill="#30394B"/>
<path d="M37.1506 76.6996C37.2234 76.6985 37.2944 76.6767 37.3553 76.6367C37.4162 76.5967 37.4644 76.5403 37.4945 76.4739C38.8969 73.4967 41.0126 66.7181 42.3451 58.8739C45.1257 42.521 45.9503 10.9396 45.9589 10.6224C45.9609 10.534 45.9325 10.4476 45.8785 10.3776C45.8245 10.3077 45.7481 10.2584 45.6621 10.2381C45.5794 10.2181 37.2776 8.30243 28.3852 9.66671C19.4928 11.031 9.81713 15.7153 9.72725 15.7596C9.6561 15.7946 9.59742 15.8506 9.55914 15.9201C9.52086 15.9896 9.50484 16.0692 9.51325 16.1481C9.5318 16.3381 11.6219 34.9453 14.702 48.9024C17.1987 60.2253 21.3275 72.9839 22.1364 74.6739C22.1805 74.7659 22.2593 74.8367 22.3555 74.8706C22.4516 74.9045 22.5573 74.8987 22.6493 74.8546C22.7412 74.8104 22.8119 74.7315 22.8457 74.6352C22.8796 74.5389 22.8738 74.4331 22.8298 74.341C22.0294 72.671 17.9377 60.0067 15.4525 48.7367C12.5849 35.7367 10.579 18.6896 10.3165 16.3353C11.8644 15.6167 20.53 11.6639 28.5065 10.4367C36.2932 9.23814 43.6291 10.6024 45.1856 10.9267C45.0915 14.2939 44.2126 43.3339 41.5918 58.7496C40.2708 66.5239 38.1821 73.2196 36.8025 76.151C36.7811 76.1967 36.7688 76.2461 36.7664 76.2966C36.7641 76.347 36.7716 76.3974 36.7887 76.4449C36.8058 76.4924 36.8321 76.536 36.866 76.5734C36.9 76.6107 36.9409 76.641 36.9866 76.6624C37.0377 76.6872 37.0938 76.6999 37.1506 76.6996Z" fill="#30394B"/>
<path d="M40.6419 69.7325C40.7171 69.7323 40.7906 69.7102 40.8534 69.6689C40.9163 69.6275 40.9657 69.5687 40.9957 69.4996C50.3204 47.6168 57.3025 10.5739 57.3724 10.2025C57.388 10.1185 57.3753 10.0316 57.3364 9.95561C57.2974 9.87959 57.2343 9.81869 57.157 9.78247C56.9786 9.69962 52.7257 7.7239 48.5499 7.28104C48.4518 7.27655 48.3558 7.3097 48.2813 7.37373C48.2068 7.43776 48.1596 7.52784 48.1492 7.62557C48.1388 7.7233 48.1661 7.82131 48.2255 7.89959C48.2848 7.97787 48.3718 8.03051 48.4686 8.04676C51.9311 8.4139 55.5548 9.91819 56.5606 10.3582C55.8772 13.9296 49.142 48.4396 40.2881 69.1968C40.2481 69.2907 40.2469 69.3968 40.2849 69.4916C40.3229 69.5864 40.3969 69.6622 40.4906 69.7025C40.5386 69.7221 40.59 69.7323 40.6419 69.7325ZM32.3401 76.4353C32.4177 76.4352 32.4935 76.4116 32.5575 76.3675C32.6214 76.3233 32.6705 76.2608 32.6982 76.1882C35.1877 69.7096 37.1294 58.4553 35.9253 51.571C35.9027 51.4753 35.8445 51.3918 35.7624 51.3376C35.6804 51.2834 35.5808 51.2627 35.484 51.2797C35.3871 51.2967 35.3005 51.35 35.2417 51.4289C35.1829 51.5078 35.1565 51.6061 35.1677 51.7039C36.3476 58.4582 34.4316 69.5282 31.9792 75.911C31.9428 76.0066 31.9457 76.1126 31.9871 76.206C32.0285 76.2994 32.1052 76.3726 32.2003 76.4096C32.245 76.4266 32.2923 76.4353 32.3401 76.4353Z" fill="#30394B"/>
<path d="M36.9427 76.6996C37.0275 76.6996 37.11 76.6717 37.1773 76.62C37.2447 76.5684 37.2931 76.4959 37.3151 76.4139C43.2015 53.7467 42.1343 12.9753 42.1229 12.5667C42.1201 12.4804 42.0885 12.3975 42.0331 12.3312C41.9778 12.265 41.902 12.2191 41.8176 12.201C41.7334 12.1839 33.2077 10.4224 24.5407 12.9153C15.4913 15.5239 14.1032 16.661 13.9748 16.7824C13.905 16.8476 13.8627 16.937 13.8564 17.0324C13.8421 17.2039 12.658 34.5953 22.7887 75.0981C22.818 75.1923 22.8821 75.2716 22.9679 75.3199C23.0537 75.3682 23.1547 75.3818 23.2502 75.3578C23.3457 75.3339 23.4284 75.2742 23.4813 75.1911C23.5343 75.108 23.5534 75.0078 23.5349 74.911C13.9762 36.7081 14.5169 19.171 14.6125 17.2653C15.0648 16.9796 17.1334 15.8524 24.7533 13.6553C32.3346 11.4739 39.8003 12.6167 41.3611 12.9024C41.4495 16.7239 42.1557 54.7067 36.5703 76.2224C36.5561 76.2793 36.5549 76.3387 36.5669 76.3961C36.5789 76.4535 36.6038 76.5074 36.6396 76.5538C36.6755 76.6001 36.7214 76.6377 36.7739 76.6637C36.8264 76.6897 36.8841 76.7035 36.9427 76.7039V76.6996ZM43.9705 56.0453C44.0553 56.0454 44.1378 56.0174 44.2051 55.9657C44.2724 55.9141 44.3208 55.8416 44.3428 55.7596C50.078 33.1296 53.3608 11.4596 53.3922 11.2439C53.4047 11.1609 53.3899 11.0762 53.35 11.0025C53.31 10.9288 53.2472 10.8701 53.171 10.8353C53.0683 10.7896 50.6216 9.69243 48.2604 9.69243C48.208 9.68922 48.1554 9.69681 48.106 9.71471C48.0566 9.73261 48.0113 9.76045 47.9731 9.79651C47.9348 9.83258 47.9043 9.8761 47.8834 9.92441C47.8626 9.97272 47.8518 10.0248 47.8518 10.0774C47.8518 10.1301 47.8626 10.1821 47.8834 10.2304C47.9043 10.2787 47.9348 10.3223 47.9731 10.3583C48.0113 10.3944 48.0566 10.4222 48.106 10.4401C48.1554 10.458 48.208 10.4656 48.2604 10.4624C50.021 10.4624 51.9041 11.1496 52.5875 11.4253C52.1738 14.101 48.9595 34.4153 43.5995 55.5681C43.587 55.6176 43.5845 55.6691 43.5922 55.7195C43.5998 55.7699 43.6174 55.8183 43.644 55.8618C43.6706 55.9054 43.7056 55.9431 43.747 55.9729C43.7883 56.0027 43.8352 56.0239 43.8849 56.0353C43.9129 56.0421 43.9416 56.0455 43.9705 56.0453Z" fill="#30394B"/>
<path d="M28.2102 33.1882C30.811 33.1882 32.9296 31.1667 32.9296 28.6782C32.9296 26.1896 30.8139 24.1667 28.2131 24.1667C25.6123 24.1667 23.5051 26.191 23.5051 28.6782C23.5051 31.1653 25.6108 33.1882 28.2102 33.1882ZM28.2102 24.9339C30.3873 24.9339 32.1578 26.6125 32.1578 28.6753C32.1578 30.7382 30.3873 32.4182 28.2102 32.4182C26.0331 32.4182 24.2641 30.7396 24.2641 28.6753C24.2641 26.611 26.0346 24.9367 28.2102 24.9367V24.9339ZM35.355 64.5682C35.4427 64.5678 35.5278 64.5376 35.5961 64.4825C37.0056 63.3482 37.6904 61.751 37.6904 59.5996C37.6904 57.9139 37.0456 56.3839 36.4064 55.7425C36.3343 55.6703 36.2366 55.6297 36.1347 55.6297C36.0327 55.6297 35.935 55.6703 35.8629 55.7425C35.7908 55.8146 35.7503 55.9125 35.7503 56.0146C35.7503 56.1167 35.7908 56.2146 35.8629 56.2867C36.298 56.7296 36.9243 58.0453 36.9243 59.5996C36.9243 61.5025 36.3322 62.9039 35.1153 63.8853C35.0531 63.9351 35.008 64.0031 34.9861 64.0798C34.9642 64.1564 34.9667 64.238 34.9932 64.3132C35.0197 64.3884 35.0689 64.4534 35.134 64.4994C35.199 64.5453 35.2768 64.5699 35.3564 64.5696L35.355 64.5682Z" fill="#30394B"/>
<path d="M30.4575 64.3496C32.3786 64.3511 34.2325 63.6419 35.6634 62.3582C35.739 62.2894 35.7843 62.1934 35.7893 62.0912C35.7942 61.989 35.7584 61.889 35.6898 61.8132C35.6211 61.7374 35.5252 61.6921 35.4231 61.6871C35.321 61.6821 35.2212 61.718 35.1455 61.7868C33.4164 63.3582 30.7642 63.9696 28.5457 63.2968C26.3544 62.631 24.1359 60.2782 24.1359 57.071C24.1359 53.9282 27.1547 51.3796 30.8655 51.3796C32.3478 51.3796 34.2966 51.8225 35.3181 53.0639C35.3502 53.1029 35.3896 53.1352 35.4341 53.159C35.4786 53.1828 35.5273 53.1976 35.5775 53.2025C35.6277 53.2074 35.6784 53.2023 35.7267 53.1876C35.775 53.1729 35.8199 53.1488 35.8588 53.1168C35.8978 53.0847 35.9301 53.0452 35.9538 53.0007C35.9776 52.9561 35.9923 52.9073 35.9972 52.857C36.0021 52.8067 35.9971 52.756 35.9824 52.7076C35.9677 52.6593 35.9437 52.6144 35.9116 52.5753C34.4122 50.7596 31.6701 50.6168 30.8655 50.6168C26.7282 50.6168 23.3669 53.5153 23.3669 57.0782C23.3669 60.641 25.8593 63.2925 28.3217 64.041C29.0147 64.2483 29.7343 64.3522 30.4575 64.3496ZM8.46683 94.171C9.88351 94.171 11.373 93.6196 12.7468 92.0568C14.3989 90.1811 13.7027 86.8268 12.7126 85.1496C12.5899 84.9425 12.4615 84.7125 12.3245 84.4668C11.3901 82.7868 9.97767 80.2453 7.30552 79.8239C4.91586 79.4425 3.91861 80.5953 3.03979 81.6111C2.78893 81.914 2.51872 82.2003 2.23087 82.4682C1.06243 83.5068 -0.0746227 84.7011 0.00384396 86.8611C0.093724 89.3582 1.91557 91.0382 3.49347 92.2225C4.68188 93.1153 6.50517 94.171 8.46683 94.171ZM6.4167 80.5182C6.67529 80.52 6.93336 80.5419 7.18854 80.5839C9.48975 80.9468 10.7424 83.1982 11.6569 84.841C11.7995 85.0925 11.9279 85.3282 12.0535 85.5425C12.9409 87.0439 13.4944 90.0468 12.1733 91.5425C9.30143 94.8039 5.79182 92.9782 3.9557 91.601C1.78717 89.9725 0.835585 88.5439 0.774239 86.8268C0.707185 85.001 1.66733 83.9925 2.74304 83.0382C3.05645 82.7483 3.35051 82.4381 3.6233 82.1096C4.3566 81.2668 5.00573 80.5182 6.4167 80.5182Z" fill="#30394B"/>
<path d="M4.63888 90.5853C4.90597 90.5791 5.16083 90.4719 5.35221 90.2853C5.54624 90.1053 5.78021 89.8567 6.03986 89.571C7.02284 88.501 8.50799 86.8853 10.6737 86.3867C10.7229 86.3754 10.7693 86.3544 10.8104 86.3251C10.8515 86.2958 10.8864 86.2586 10.9132 86.2158C10.94 86.1729 10.958 86.1252 10.9664 86.0754C10.9747 86.0255 10.9732 85.9745 10.9619 85.9253C10.9505 85.876 10.9296 85.8295 10.9003 85.7884C10.871 85.7472 10.8339 85.7122 10.7911 85.6854C10.7484 85.6586 10.7007 85.6405 10.6509 85.6322C10.6012 85.6238 10.5502 85.6254 10.501 85.6367C8.10567 86.1881 6.52065 87.9096 5.47347 89.0453C5.22666 89.3153 5.01409 89.5467 4.8329 89.7139C4.69023 89.8396 4.62175 89.8153 4.58181 89.8024C4.15381 89.6696 3.58314 88.5439 3.3777 87.6596C3.24359 87.081 3.83709 86.2453 5.14249 85.1767C6.31093 84.2181 7.89739 83.2896 9.78629 84.6139C9.87002 84.6663 9.97066 84.6846 10.0674 84.6649C10.1642 84.6452 10.2498 84.589 10.3064 84.5079C10.3629 84.4268 10.3863 84.3271 10.3715 84.2293C10.3568 84.1315 10.3051 84.0431 10.2271 83.9824C7.61633 82.1553 5.38787 83.9824 4.66313 84.581C3.66446 85.4024 2.35906 86.6339 2.63583 87.8339C2.7785 88.4381 3.39054 90.2324 4.36067 90.5339C4.4503 90.5649 4.54409 90.5822 4.63888 90.5853Z" fill="#30394B"/>
<path d="M42.0177 133.322C42.1052 133.322 42.1898 133.291 42.2576 133.236C42.3254 133.18 42.3723 133.104 42.3908 133.018C42.4092 132.932 42.398 132.843 42.359 132.765C42.3199 132.686 42.2554 132.624 42.1761 132.587C37.2469 130.351 31.4504 129.131 26.6653 129.312C26.6132 129.312 26.5616 129.322 26.5135 129.342C26.4655 129.363 26.422 129.392 26.3857 129.43C26.3495 129.467 26.3212 129.512 26.3026 129.56C26.2839 129.609 26.2754 129.661 26.2774 129.713C26.2794 129.765 26.292 129.816 26.3144 129.864C26.3367 129.911 26.3684 129.953 26.4074 129.987C26.4465 130.022 26.4922 130.048 26.5416 130.064C26.5911 130.081 26.6434 130.087 26.6953 130.082C31.3591 129.904 37.0329 131.101 41.8593 133.287C41.9088 133.31 41.9629 133.323 42.0177 133.322ZM40.7608 154.15C40.842 154.149 40.921 154.123 40.9864 154.075C41.0518 154.026 41.1004 153.959 41.1251 153.881C41.1497 153.804 41.1493 153.72 41.1239 153.643C41.0984 153.566 41.0493 153.499 40.9834 153.451C34.328 148.704 33.5561 138.34 33.9585 136.12C33.9678 136.07 33.9673 136.019 33.957 135.969C33.9466 135.92 33.9267 135.873 33.8982 135.831C33.8697 135.789 33.8333 135.753 33.791 135.726C33.7487 135.698 33.7014 135.679 33.6517 135.67C33.6021 135.66 33.5511 135.661 33.5016 135.671C33.4522 135.681 33.4052 135.701 33.3635 135.73C33.3218 135.758 33.2861 135.795 33.2584 135.837C33.2307 135.88 33.2117 135.927 33.2023 135.977C32.6317 139.12 34.0255 149.427 40.5382 154.072C40.6027 154.121 40.6805 154.148 40.7608 154.15Z" fill="#30394B"/>
<path d="M29.3858 133.061C30.7183 133.061 31.9024 132.861 32.7627 132.435C32.8541 132.39 32.9237 132.31 32.9564 132.214C32.989 132.117 32.9819 132.011 32.9367 131.92C32.8915 131.828 32.8119 131.758 32.7153 131.726C32.6187 131.693 32.5131 131.7 32.4217 131.745C29.4257 133.228 21.472 131.477 19.0581 128.174C16.7969 125.084 15.2318 120.441 17.62 116.682C18.5388 115.237 22.5178 115.254 26.725 115.272C28.3514 115.272 30.032 115.285 31.6727 115.215C33.7214 115.125 36.0312 114.658 38.2639 114.208C42.7137 113.308 47.3161 112.378 49.9711 114.395C50.0112 114.428 50.0575 114.453 50.1072 114.467C50.157 114.482 50.2091 114.486 50.2606 114.48C50.3121 114.474 50.3618 114.458 50.4067 114.432C50.4517 114.406 50.491 114.371 50.5223 114.33C50.5536 114.289 50.5763 114.241 50.5889 114.191C50.6016 114.141 50.604 114.088 50.5959 114.037C50.5879 113.986 50.5696 113.937 50.5422 113.893C50.5147 113.849 50.4787 113.811 50.4362 113.781C47.503 111.555 42.7322 112.521 38.1127 113.454C35.9085 113.898 33.6287 114.358 31.6385 114.445C30.0163 114.515 28.3457 114.508 26.7293 114.502C22.1098 114.48 18.1194 114.465 16.9723 116.27C14.3744 120.355 16.0265 125.332 18.4375 128.63C20.4534 131.387 25.5352 133.061 29.3858 133.061Z" fill="#30394B"/>
<path d="M17.5143 116.28C17.5921 116.28 17.6681 116.255 17.7311 116.21C17.7723 116.181 17.8076 116.145 17.8347 116.103C17.8619 116.061 17.8804 116.015 17.8893 115.965C17.8982 115.916 17.8973 115.866 17.8865 115.817C17.8758 115.768 17.8554 115.722 17.8267 115.681L17.8139 115.665C16.8452 114.308 14.5753 111.131 14.9063 106.495C15.2316 101.931 18.4116 101.704 21.7786 101.462C23.9699 101.307 29.0303 101.422 35.436 101.565H35.6729C38.5062 101.632 41.6321 101.307 44.3884 101.022C48.0521 100.644 51.5117 100.287 52.937 101.014C52.9819 101.037 53.031 101.051 53.0812 101.054C53.1315 101.058 53.1821 101.052 53.2301 101.037C53.278 101.021 53.3224 100.996 53.3608 100.963C53.3991 100.93 53.4306 100.89 53.4534 100.845C53.4763 100.8 53.4901 100.751 53.494 100.701C53.4979 100.65 53.4918 100.6 53.4762 100.552C53.4606 100.504 53.4356 100.459 53.4029 100.421C53.3701 100.383 53.33 100.351 53.2851 100.328C51.6587 99.4981 48.2532 99.8496 44.3099 100.257C41.575 100.542 38.482 100.861 35.69 100.797H35.4532C29.0332 100.654 23.9514 100.537 21.7244 100.695C18.3446 100.937 14.5126 101.212 14.1388 106.441C13.7892 111.354 16.1718 114.688 17.189 116.112C17.2262 116.164 17.2751 116.206 17.3316 116.235C17.3882 116.264 17.4507 116.279 17.5143 116.28Z" fill="#30394B"/>
<path d="M14.7836 104.628C14.8606 104.628 14.9358 104.604 14.9993 104.56C15.0628 104.517 15.1118 104.455 15.1399 104.383C15.168 104.311 15.174 104.233 15.157 104.157C15.14 104.082 15.1009 104.014 15.0447 103.961C12.5081 101.61 10.2896 96.6753 11.1613 93.3424C11.174 93.2936 11.177 93.2426 11.1701 93.1926C11.1632 93.1426 11.1465 93.0944 11.121 93.0508C11.0955 93.0072 11.0617 92.9691 11.0215 92.9386C10.9813 92.9082 10.9355 92.8859 10.8867 92.8731C10.8379 92.8604 10.787 92.8574 10.737 92.8643C10.6871 92.8712 10.639 92.8879 10.5954 92.9134C10.5519 92.939 10.5139 92.9728 10.4834 93.0131C10.453 93.0534 10.4307 93.0993 10.418 93.1481C9.37653 97.1238 12.13 102.311 14.5211 104.525C14.5925 104.591 14.6863 104.628 14.7836 104.628ZM59.1672 124.957C59.2514 129.461 59.2171 135.264 58.1956 140.211C57.7676 142.294 57.304 144.012 56.8146 145.831C55.6505 150.16 54.4464 154.637 53.4463 164.831C53.2194 167.128 52.9227 176.22 52.5774 186.745C52.2364 197.198 51.8527 208.928 51.429 217.624H50.6586C51.0866 208.931 51.4675 197.185 51.8099 186.72C52.1551 176.181 52.4519 167.078 52.6801 164.755C53.6874 154.504 54.9 149.997 56.0728 145.638C56.5592 143.831 57.0186 142.124 57.4438 140.067C58.4425 135.195 58.4824 129.448 58.3982 124.984C58.3511 122.51 58.7207 120.811 59.0759 119.168C59.4654 117.371 59.8691 115.511 59.755 112.552C59.6223 109.148 58.899 106.827 58.3183 104.961C57.9203 103.675 57.575 102.574 57.4951 101.415C57.4352 100.558 57.4523 99.4824 57.468 98.3396C57.498 96.2438 57.5337 93.8696 57.1099 92.2896C55.4222 85.9739 49.7455 86.6953 41.1555 87.7881C38.2908 88.1524 35.0437 88.5667 31.5455 88.7624C30.6053 88.8167 29.1573 88.8281 27.4795 88.8424C22.9513 88.881 16.751 88.9324 14.4027 89.8181C14.1425 89.9169 13.889 90.0324 13.6437 90.1639C13.5545 90.2054 13.4528 90.2112 13.3595 90.1801C13.2662 90.149 13.1883 90.0834 13.1418 89.9966C13.0953 89.9098 13.0836 89.8085 13.1093 89.7134C13.135 89.6184 13.196 89.5367 13.2799 89.4853C13.5564 89.3375 13.8424 89.2082 14.1359 89.0981C16.6126 88.1638 22.8928 88.111 27.4767 88.0724C29.1444 88.0581 30.5854 88.0467 31.5056 87.9953C34.9766 87.7996 38.2109 87.3881 41.0642 87.0253C49.7312 85.9224 55.9957 85.1253 57.8589 92.091C58.3083 93.7738 58.2741 96.2053 58.2427 98.351C58.2256 99.4767 58.2113 100.54 58.2684 101.362C58.3412 102.431 58.6736 103.505 59.0588 104.732C59.6523 106.641 60.3927 109.018 60.5282 112.522C60.6467 115.58 60.2329 117.487 59.8335 119.331C59.4654 120.992 59.1215 122.572 59.1672 124.957Z" fill="#30394B"/>
<path d="M52.8367 87.081C52.9348 87.0808 53.0291 87.0432 53.1004 86.9758C53.1718 86.9083 53.2147 86.8162 53.2205 86.7182C53.3261 84.8539 53.6485 79.1796 47.9889 77.8039C44.408 76.9353 39.4646 76.5439 35.4913 76.2325C33.7793 76.0968 32.1772 75.9696 30.9046 75.8239C29.4408 75.6553 27.9856 75.431 26.5775 75.2125C21.0934 74.3639 16.3569 73.6296 13.4179 76.4267C11.432 78.3182 10.5889 80.7682 10.9798 83.5125C10.9943 83.6134 11.0484 83.7045 11.13 83.7656C11.2116 83.8266 11.3141 83.8528 11.4149 83.8382C11.5157 83.8236 11.6067 83.7695 11.6677 83.6878C11.7287 83.6061 11.7547 83.5034 11.7402 83.4025C11.3864 80.9168 12.1496 78.6968 13.9472 76.9839C16.6122 74.4482 21.1762 75.1553 26.4591 75.9725C27.8758 76.1925 29.3381 76.4182 30.8161 76.5882C32.1001 76.731 33.7194 76.8639 35.43 76.9996C39.3761 77.311 44.2867 77.6996 47.8077 78.5553C52.3231 79.6525 52.6213 83.7153 52.453 86.6767C52.4501 86.7272 52.4572 86.7778 52.4738 86.8255C52.4905 86.8733 52.5164 86.9172 52.55 86.9549C52.5837 86.9926 52.6245 87.0233 52.67 87.0452C52.7155 87.0671 52.7649 87.0797 52.8153 87.0825L52.8367 87.081ZM9.32483 217.617H8.54302C10.1994 208.674 12.2909 198.597 14.321 188.815C18.1602 170.325 21.7868 152.86 21.3331 148.244C20.8038 142.845 18.3171 137.601 15.6835 132.047C13.9615 128.414 12.181 124.657 10.7586 120.522C8.86829 115.03 8.49023 112.005 8.15496 109.337C7.94096 107.622 7.75692 106.147 7.19767 104.292C6.95942 103.502 6.73971 102.731 6.52428 101.975C5.41861 98.0968 4.46417 94.7468 1.68217 90.6625C1.64975 90.6209 1.62622 90.5731 1.61303 90.5221C1.59985 90.471 1.5973 90.4178 1.60555 90.3657C1.61379 90.3136 1.63265 90.2638 1.66095 90.2193C1.68926 90.1749 1.72639 90.1367 1.77006 90.1072C1.81373 90.0778 1.86298 90.0576 1.91476 90.048C1.96655 90.0384 2.01975 90.0396 2.07106 90.0515C2.12237 90.0633 2.17068 90.0857 2.213 90.1171C2.25532 90.1484 2.29073 90.1882 2.31704 90.2339C5.17037 94.421 6.18616 97.9896 7.26329 101.768C7.47872 102.522 7.69129 103.288 7.93383 104.075C8.50449 105.991 8.69995 107.504 8.91823 109.245C9.24779 111.877 9.62158 114.858 11.4862 120.277C12.8944 124.37 14.6648 128.107 16.3783 131.721C19.0404 137.337 21.5556 142.641 22.0992 148.172C22.5629 152.901 18.9249 170.422 15.0743 188.972C13.0541 198.698 10.9755 208.718 9.32483 217.617Z" fill="#30394B"/>
<path d="M37.3304 76.5496C37.4014 76.5495 37.471 76.5298 37.5316 76.4928C37.5922 76.4558 37.6416 76.4028 37.6742 76.3396C40.6652 70.3907 42.8071 64.0507 44.0371 57.5053C47.3185 39.591 48.7822 6.03247 48.7965 5.69676C48.8006 5.60605 48.7724 5.51683 48.717 5.44492C48.6617 5.37301 48.5827 5.32305 48.494 5.3039C48.397 5.28247 38.5944 3.18676 28.0927 4.68247C17.591 6.17819 6.16056 11.2925 6.04643 11.3439C5.97103 11.3783 5.90861 11.436 5.86831 11.5085C5.82801 11.581 5.81193 11.6645 5.82244 11.7468C5.85097 11.9553 8.64581 32.821 12.7489 48.021C15.7934 59.3068 20.2603 71.2082 22.1835 75.121C22.2057 75.1664 22.2366 75.2068 22.2744 75.2402C22.3122 75.2735 22.3562 75.2991 22.4039 75.3154C22.5002 75.3484 22.6057 75.3417 22.6971 75.2968C22.7884 75.2519 22.8583 75.1725 22.8912 75.076C22.9241 74.9796 22.9174 74.874 22.8725 74.7825C20.9694 70.9025 16.5224 59.0582 13.4965 47.8196C9.67444 33.6382 6.98089 14.4953 6.62993 11.931C8.39329 11.1639 18.7095 6.79819 28.2068 5.44533C37.5116 4.11676 46.2613 5.65104 48.0133 5.99104C47.8535 9.52247 46.384 40.4553 43.281 57.3668C42.0651 63.839 39.9467 70.1079 36.988 75.9896C36.9421 76.0808 36.934 76.1865 36.9655 76.2836C36.997 76.3807 37.0656 76.4615 37.1563 76.5082C37.2105 76.535 37.27 76.5492 37.3304 76.5496Z" fill="#30394B"/>
<path d="M37.3021 76.6482C37.3614 76.6481 37.4199 76.6344 37.4731 76.6081C37.5262 76.5819 37.5727 76.5438 37.6089 76.4967C39.9643 73.3824 44.8406 62.5867 47.7382 54.8453C54.134 37.7939 61.4898 5.02102 61.5626 4.69245C61.5829 4.60391 61.571 4.51105 61.5292 4.43045C61.4874 4.34984 61.4183 4.28675 61.3343 4.25245C61.243 4.21388 51.9668 0.418161 41.3696 0.0338752C30.7723 -0.350411 18.6171 2.66102 18.4958 2.69102C18.4164 2.71181 18.3458 2.75761 18.2945 2.82167C18.2431 2.88572 18.2136 2.96463 18.2105 3.04673L18.0336 6.99388C18.0311 7.0444 18.0386 7.09491 18.0557 7.1425C18.0729 7.19009 18.0992 7.23381 18.1333 7.27114C18.1674 7.30846 18.2086 7.33865 18.2544 7.35997C18.3002 7.38128 18.3498 7.39329 18.4002 7.3953C18.4513 7.40055 18.5028 7.39492 18.5516 7.37879C18.6003 7.36267 18.645 7.33641 18.6829 7.30173C18.7207 7.26706 18.7509 7.22476 18.7712 7.17761C18.7916 7.13046 18.8018 7.07953 18.8011 7.02816L18.9652 3.37102C20.8341 2.92816 31.7595 0.461018 41.3467 0.79959C50.7442 1.13959 59.0816 4.19673 60.7494 4.84245C59.969 8.28816 53.064 38.4753 47.0263 54.571C43.7721 63.2367 39.0883 73.2639 36.9954 76.031C36.9338 76.1125 36.907 76.2151 36.9209 76.3164C36.9348 76.4176 36.9883 76.5092 37.0696 76.571C37.1369 76.6209 37.2184 76.648 37.3021 76.6482Z" fill="#30394B"/>
<path d="M37.1506 76.6996C37.2234 76.6985 37.2944 76.6767 37.3553 76.6367C37.4162 76.5967 37.4644 76.5403 37.4945 76.4739C38.8969 73.4967 41.0126 66.7181 42.3451 58.8739C45.1257 42.521 45.9503 10.9396 45.9589 10.6224C45.9609 10.534 45.9325 10.4476 45.8785 10.3776C45.8245 10.3077 45.7481 10.2584 45.6621 10.2381C45.5794 10.2181 37.2776 8.30243 28.3852 9.66671C19.4928 11.031 9.81713 15.7153 9.72725 15.7596C9.6561 15.7946 9.59742 15.8506 9.55914 15.9201C9.52086 15.9896 9.50484 16.0692 9.51325 16.1481C9.5318 16.3381 11.6219 34.9453 14.702 48.9024C17.1987 60.2253 21.3275 72.9839 22.1364 74.6739C22.1805 74.7659 22.2593 74.8367 22.3555 74.8706C22.4516 74.9045 22.5573 74.8987 22.6493 74.8546C22.7412 74.8104 22.8119 74.7315 22.8457 74.6352C22.8796 74.5389 22.8738 74.4331 22.8298 74.341C22.0294 72.671 17.9377 60.0067 15.4525 48.7367C12.5849 35.7367 10.579 18.6896 10.3165 16.3353C11.8644 15.6167 20.53 11.6639 28.5065 10.4367C36.2932 9.23814 43.6291 10.6024 45.1856 10.9267C45.0915 14.2939 44.2126 43.3339 41.5918 58.7496C40.2708 66.5239 38.1821 73.2196 36.8025 76.151C36.7811 76.1967 36.7688 76.2461 36.7664 76.2966C36.7641 76.347 36.7716 76.3974 36.7887 76.4449C36.8058 76.4924 36.8321 76.536 36.866 76.5734C36.9 76.6107 36.9409 76.641 36.9866 76.6624C37.0377 76.6872 37.0938 76.6999 37.1506 76.6996Z" fill="#30394B"/>
<path d="M40.6419 69.7325C40.7171 69.7323 40.7906 69.7102 40.8534 69.6689C40.9163 69.6275 40.9657 69.5687 40.9957 69.4996C50.3204 47.6168 57.3025 10.5739 57.3724 10.2025C57.388 10.1185 57.3753 10.0316 57.3364 9.95561C57.2974 9.87959 57.2343 9.81869 57.157 9.78247C56.9786 9.69962 52.7257 7.7239 48.5499 7.28104C48.4518 7.27655 48.3558 7.3097 48.2813 7.37373C48.2068 7.43776 48.1596 7.52784 48.1492 7.62557C48.1388 7.7233 48.1661 7.82131 48.2255 7.89959C48.2848 7.97787 48.3718 8.03051 48.4686 8.04676C51.9311 8.4139 55.5548 9.91819 56.5606 10.3582C55.8772 13.9296 49.142 48.4396 40.2881 69.1968C40.2481 69.2907 40.2469 69.3968 40.2849 69.4916C40.3229 69.5864 40.3969 69.6622 40.4906 69.7025C40.5386 69.7221 40.59 69.7323 40.6419 69.7325ZM32.3401 76.4353C32.4177 76.4352 32.4935 76.4116 32.5575 76.3675C32.6214 76.3233 32.6705 76.2608 32.6982 76.1882C35.1877 69.7096 37.1294 58.4553 35.9253 51.571C35.9027 51.4753 35.8445 51.3918 35.7624 51.3376C35.6804 51.2834 35.5808 51.2627 35.484 51.2797C35.3871 51.2967 35.3005 51.35 35.2417 51.4289C35.1829 51.5078 35.1565 51.6061 35.1677 51.7039C36.3476 58.4582 34.4316 69.5282 31.9792 75.911C31.9428 76.0066 31.9457 76.1126 31.9871 76.206C32.0285 76.2994 32.1052 76.3726 32.2003 76.4096C32.245 76.4266 32.2923 76.4353 32.3401 76.4353Z" fill="#30394B"/>
<path d="M36.9427 76.6996C37.0275 76.6996 37.11 76.6717 37.1773 76.62C37.2447 76.5684 37.2931 76.4959 37.3151 76.4139C43.2015 53.7467 42.1343 12.9753 42.1229 12.5667C42.1201 12.4804 42.0885 12.3975 42.0331 12.3312C41.9778 12.265 41.902 12.2191 41.8176 12.201C41.7334 12.1839 33.2077 10.4224 24.5407 12.9153C15.4913 15.5239 14.1032 16.661 13.9748 16.7824C13.905 16.8476 13.8627 16.937 13.8564 17.0324C13.8421 17.2039 12.658 34.5953 22.7887 75.0981C22.818 75.1923 22.8821 75.2716 22.9679 75.3199C23.0537 75.3682 23.1547 75.3818 23.2502 75.3578C23.3457 75.3339 23.4284 75.2742 23.4813 75.1911C23.5343 75.108 23.5534 75.0078 23.5349 74.911C13.9762 36.7081 14.5169 19.171 14.6125 17.2653C15.0648 16.9796 17.1334 15.8524 24.7533 13.6553C32.3346 11.4739 39.8003 12.6167 41.3611 12.9024C41.4495 16.7239 42.1557 54.7067 36.5703 76.2224C36.5561 76.2793 36.5549 76.3387 36.5669 76.3961C36.5789 76.4535 36.6038 76.5074 36.6396 76.5538C36.6755 76.6001 36.7214 76.6377 36.7739 76.6637C36.8264 76.6897 36.8841 76.7035 36.9427 76.7039V76.6996ZM43.9705 56.0453C44.0553 56.0454 44.1378 56.0174 44.2051 55.9657C44.2724 55.9141 44.3208 55.8416 44.3428 55.7596C50.078 33.1296 53.3608 11.4596 53.3922 11.2439C53.4047 11.1609 53.3899 11.0762 53.35 11.0025C53.31 10.9288 53.2472 10.8701 53.171 10.8353C53.0683 10.7896 50.6216 9.69243 48.2604 9.69243C48.208 9.68922 48.1554 9.69681 48.106 9.71471C48.0566 9.73261 48.0113 9.76045 47.9731 9.79651C47.9348 9.83258 47.9043 9.8761 47.8834 9.92441C47.8626 9.97272 47.8518 10.0248 47.8518 10.0774C47.8518 10.1301 47.8626 10.1821 47.8834 10.2304C47.9043 10.2787 47.9348 10.3223 47.9731 10.3583C48.0113 10.3944 48.0566 10.4222 48.106 10.4401C48.1554 10.458 48.208 10.4656 48.2604 10.4624C50.021 10.4624 51.9041 11.1496 52.5875 11.4253C52.1738 14.101 48.9595 34.4153 43.5995 55.5681C43.587 55.6176 43.5845 55.6691 43.5922 55.7195C43.5998 55.7699 43.6174 55.8183 43.644 55.8618C43.6706 55.9054 43.7056 55.9431 43.747 55.9729C43.7883 56.0027 43.8352 56.0239 43.8849 56.0353C43.9129 56.0421 43.9416 56.0455 43.9705 56.0453Z" fill="#30394B"/>
<path d="M28.2102 33.1882C30.811 33.1882 32.9296 31.1667 32.9296 28.6782C32.9296 26.1896 30.8139 24.1667 28.2131 24.1667C25.6123 24.1667 23.5051 26.191 23.5051 28.6782C23.5051 31.1653 25.6108 33.1882 28.2102 33.1882ZM28.2102 24.9339C30.3873 24.9339 32.1578 26.6125 32.1578 28.6753C32.1578 30.7382 30.3873 32.4182 28.2102 32.4182C26.0331 32.4182 24.2641 30.7396 24.2641 28.6753C24.2641 26.611 26.0346 24.9367 28.2102 24.9367V24.9339ZM35.355 64.5682C35.4427 64.5678 35.5278 64.5376 35.5961 64.4825C37.0056 63.3482 37.6904 61.751 37.6904 59.5996C37.6904 57.9139 37.0456 56.3839 36.4064 55.7425C36.3343 55.6703 36.2366 55.6297 36.1347 55.6297C36.0327 55.6297 35.935 55.6703 35.8629 55.7425C35.7908 55.8146 35.7503 55.9125 35.7503 56.0146C35.7503 56.1167 35.7908 56.2146 35.8629 56.2867C36.298 56.7296 36.9243 58.0453 36.9243 59.5996C36.9243 61.5025 36.3322 62.9039 35.1153 63.8853C35.0531 63.9351 35.008 64.0031 34.9861 64.0798C34.9642 64.1564 34.9667 64.238 34.9932 64.3132C35.0197 64.3884 35.0689 64.4534 35.134 64.4994C35.199 64.5453 35.2768 64.5699 35.3564 64.5696L35.355 64.5682Z" fill="#30394B"/>
<path d="M30.4575 64.3496C32.3786 64.3511 34.2325 63.6419 35.6634 62.3582C35.739 62.2894 35.7843 62.1934 35.7893 62.0912C35.7942 61.989 35.7584 61.889 35.6898 61.8132C35.6211 61.7374 35.5252 61.6921 35.4231 61.6871C35.321 61.6821 35.2212 61.718 35.1455 61.7868C33.4164 63.3582 30.7642 63.9696 28.5457 63.2968C26.3544 62.631 24.1359 60.2782 24.1359 57.071C24.1359 53.9282 27.1547 51.3796 30.8655 51.3796C32.3478 51.3796 34.2966 51.8225 35.3181 53.0639C35.3502 53.1029 35.3896 53.1352 35.4341 53.159C35.4786 53.1828 35.5273 53.1976 35.5775 53.2025C35.6277 53.2074 35.6784 53.2023 35.7267 53.1876C35.775 53.1729 35.8199 53.1488 35.8588 53.1168C35.8978 53.0847 35.9301 53.0452 35.9538 53.0007C35.9776 52.9561 35.9923 52.9073 35.9972 52.857C36.0021 52.8067 35.9971 52.756 35.9824 52.7076C35.9677 52.6593 35.9437 52.6144 35.9116 52.5753C34.4122 50.7596 31.6701 50.6168 30.8655 50.6168C26.7282 50.6168 23.3669 53.5153 23.3669 57.0782C23.3669 60.641 25.8593 63.2925 28.3217 64.041C29.0147 64.2483 29.7343 64.3522 30.4575 64.3496ZM8.46683 94.171C9.88351 94.171 11.373 93.6196 12.7468 92.0568C14.3989 90.1811 13.7027 86.8268 12.7126 85.1496C12.5899 84.9425 12.4615 84.7125 12.3245 84.4668C11.3901 82.7868 9.97767 80.2453 7.30552 79.8239C4.91586 79.4425 3.91861 80.5953 3.03979 81.6111C2.78893 81.914 2.51872 82.2003 2.23087 82.4682C1.06243 83.5068 -0.0746227 84.7011 0.00384396 86.8611C0.093724 89.3582 1.91557 91.0382 3.49347 92.2225C4.68188 93.1153 6.50517 94.171 8.46683 94.171ZM6.4167 80.5182C6.67529 80.52 6.93336 80.5419 7.18854 80.5839C9.48975 80.9468 10.7424 83.1982 11.6569 84.841C11.7995 85.0925 11.9279 85.3282 12.0535 85.5425C12.9409 87.0439 13.4944 90.0468 12.1733 91.5425C9.30143 94.8039 5.79182 92.9782 3.9557 91.601C1.78717 89.9725 0.835585 88.5439 0.774239 86.8268C0.707185 85.001 1.66733 83.9925 2.74304 83.0382C3.05645 82.7483 3.35051 82.4381 3.6233 82.1096C4.3566 81.2668 5.00573 80.5182 6.4167 80.5182Z" fill="#30394B"/>
<path d="M4.63888 90.5853C4.90597 90.5791 5.16083 90.4719 5.35221 90.2853C5.54624 90.1053 5.78021 89.8567 6.03986 89.571C7.02284 88.501 8.50799 86.8853 10.6737 86.3867C10.7229 86.3754 10.7693 86.3544 10.8104 86.3251C10.8515 86.2958 10.8864 86.2586 10.9132 86.2158C10.94 86.1729 10.958 86.1252 10.9664 86.0754C10.9747 86.0255 10.9732 85.9745 10.9619 85.9253C10.9505 85.876 10.9296 85.8295 10.9003 85.7884C10.871 85.7472 10.8339 85.7122 10.7911 85.6854C10.7484 85.6586 10.7007 85.6405 10.6509 85.6322C10.6012 85.6238 10.5502 85.6254 10.501 85.6367C8.10567 86.1881 6.52065 87.9096 5.47347 89.0453C5.22666 89.3153 5.01409 89.5467 4.8329 89.7139C4.69023 89.8396 4.62175 89.8153 4.58181 89.8024C4.15381 89.6696 3.58314 88.5439 3.3777 87.6596C3.24359 87.081 3.83709 86.2453 5.14249 85.1767C6.31093 84.2181 7.89739 83.2896 9.78629 84.6139C9.87002 84.6663 9.97066 84.6846 10.0674 84.6649C10.1642 84.6452 10.2498 84.589 10.3064 84.5079C10.3629 84.4268 10.3863 84.3271 10.3715 84.2293C10.3568 84.1315 10.3051 84.0431 10.2271 83.9824C7.61633 82.1553 5.38787 83.9824 4.66313 84.581C3.66446 85.4024 2.35906 86.6339 2.63583 87.8339C2.7785 88.4381 3.39054 90.2324 4.36067 90.5339C4.4503 90.5649 4.54409 90.5822 4.63888 90.5853Z" fill="#30394B"/>
</svg>
