<svg width="355" height="81" viewBox="0 0 355 81" fill="none" xmlns="http://www.w3.org/2000/svg">
<path fill-rule="evenodd" clip-rule="evenodd" d="M0 79.9284H40.8439C61.3893 79.9284 78.1981 63.1285 78.1981 42.5942C78.1981 22.0599 61.3893 5.26018 40.8439 5.26018H14.2836C6.4274 5.26018 0 11.6844 0 19.5351L0 79.9284ZM347.416 5.92611C348.643 5.92611 349.841 6.24037 351.013 6.87212C352.181 7.50058 353.094 8.4035 353.746 9.5741C354.398 10.7485 354.726 11.9723 354.726 13.2421C354.726 14.5023 354.404 15.716 353.759 16.8767C353.117 18.0412 352.217 18.9439 351.056 19.5858C349.894 20.2304 348.68 20.5513 347.416 20.5513C346.148 20.5513 344.934 20.2304 343.772 19.5858C342.611 18.9439 341.708 18.0412 341.062 16.8767C340.417 15.716 340.093 14.5023 340.093 13.2421C340.093 11.9723 340.42 10.7485 341.075 9.5741C341.734 8.4035 342.647 7.50058 343.815 6.87212C344.987 6.24037 346.185 5.92611 347.416 5.92611ZM347.416 7.13671C346.387 7.13671 345.384 7.40131 344.411 7.92726C343.438 8.45291 342.677 9.2072 342.128 10.1861C341.579 11.1653 341.304 12.1837 341.304 13.2421C341.304 14.2972 341.575 15.306 342.115 16.2715C342.654 17.2375 343.408 17.9916 344.378 18.5307C345.347 19.0697 346.36 19.3409 347.416 19.3409C348.468 19.3409 349.481 19.0697 350.45 18.5307C351.42 17.9916 352.175 17.2375 352.711 16.2715C353.247 15.306 353.515 14.2972 353.515 13.2421C353.515 12.1837 353.24 11.1653 352.694 10.1861C352.148 9.2072 351.387 8.45291 350.41 7.92726C349.434 7.40131 348.435 7.13671 347.416 7.13671ZM344.203 17.277V9.41889H346.909C347.836 9.41889 348.504 9.49156 348.918 9.63716C349.335 9.78251 349.663 10.034 349.911 10.3978C350.156 10.7584 350.278 11.142 350.278 11.5486C350.278 12.1209 350.073 12.6238 349.659 13.0472C349.249 13.4735 348.703 13.7118 348.021 13.7647C348.299 13.8804 348.524 14.0192 348.69 14.1815C349.008 14.4889 349.395 15.0082 349.855 15.739L350.814 17.277H349.272L348.57 16.0401C348.021 15.0645 347.575 14.4527 347.237 14.2078C347.005 14.0293 346.668 13.94 346.221 13.9432H345.473V17.277H344.203ZM345.473 12.8519H347.015C347.753 12.8519 348.256 12.7428 348.524 12.5243C348.792 12.3063 348.928 12.0151 348.928 11.6578C348.928 11.4264 348.862 11.218 348.733 11.0361C348.604 10.8508 348.425 10.7151 348.197 10.626C347.965 10.5365 347.542 10.4905 346.919 10.4905H345.473V12.8519ZM337.118 25.8709C333.75 24.8773 330.382 23.8847 326.251 23.195C322.121 22.5045 317.228 22.1166 312.386 22.2764C307.545 22.4351 302.757 23.1398 298.953 24.7867C295.149 26.4323 292.333 29.0201 290.561 31.1121C288.788 33.2052 288.061 34.8044 287.673 37.0322C287.285 39.2594 287.238 42.1149 287.819 44.6829C288.401 47.2495 289.612 49.5248 291.283 51.2436C292.954 52.9624 295.086 54.1254 298.309 55.0934C301.532 56.0624 305.841 56.837 309.674 57.4072C313.506 57.9772 316.856 58.3438 319.101 59.1447C321.346 59.9436 322.484 61.179 322.883 62.5236C323.282 63.8669 322.944 65.3193 321.418 66.5425C319.892 67.764 317.179 68.7569 314.158 68.9979C311.139 69.238 307.812 68.728 305.131 68.3515C302.45 67.9739 300.415 67.7321 298.839 67.5029C297.263 67.2755 296.143 67.0593 295.005 67.3748C293.867 67.6888 292.707 68.5345 291.231 69.9735C289.756 71.4123 287.964 73.4458 286.171 75.4803C289.854 76.836 293.536 78.1909 298.21 79.1362C302.886 80.0793 308.556 80.6139 313.896 80.4698C319.235 80.325 324.247 79.5036 327.928 77.9534C331.611 76.4051 333.964 74.1254 335.625 72.2377C337.287 70.3475 338.256 68.846 338.789 67.2495C339.321 65.6492 339.418 63.956 339.495 62.0799C339.574 60.2044 339.631 58.1486 338.836 56.0685C338.041 53.9866 336.393 51.8807 333.579 50.3908C330.763 48.9001 326.782 48.0266 322.252 47.2272C317.724 46.428 312.646 45.7018 309.47 44.9349C306.295 44.1679 305.018 43.3596 304.346 42.0404C303.672 40.7202 303.605 38.8884 304.019 37.5328C304.433 36.1753 305.33 35.2924 307.572 34.6626C309.812 34.0324 313.399 33.6556 316.55 33.723C319.699 33.7891 322.411 34.2963 324.704 34.5999C326.998 34.9027 328.872 35.0027 330.589 34.1096C332.308 33.2145 333.87 31.3251 334.93 29.7879C335.994 28.2488 336.556 27.0595 337.118 25.8709ZM249.483 21.729C267.667 21.729 282.408 34.9979 282.408 51.3649C282.408 67.7321 267.667 81 249.483 81C231.298 81 216.556 67.7321 216.556 51.3649C216.556 34.9979 231.298 21.729 249.483 21.729ZM249.429 35.5314C257.269 35.5314 263.624 42.6537 263.624 51.4396C263.624 60.2237 257.269 67.3457 249.429 67.3457C241.587 67.3457 235.232 60.2237 235.232 51.4396C235.232 42.6537 241.587 35.5314 249.429 35.5314ZM155.932 9.54881C155.686 33.0955 155.44 56.6435 155.194 80.189C161.299 80.189 167.404 80.189 173.509 80.189C173.183 75.3742 172.858 70.5605 172.533 65.7462C175.197 63.1303 177.863 60.5148 180.527 57.9007C186.037 65.0399 191.545 72.1785 197.056 79.3177C204.42 79.3177 211.783 79.3177 219.148 79.3177C210.621 68.7619 202.094 58.2046 193.567 47.6488C204.128 36.609 214.69 25.5689 225.252 14.5279C218.079 15.1938 210.906 15.8605 203.88 19.3475C196.855 22.8335 189.978 29.1406 184.454 34.3036C178.931 39.4678 174.761 43.4893 171.803 46.1227C168.846 48.7571 167.103 50.0016 165.359 51.2484C167.879 47.7865 170.401 44.3223 172.921 40.8602C172.922 27.2411 172.925 13.6201 172.927 0C168.879 0.581379 164.831 1.16326 161.998 2.75392C159.165 4.34532 157.549 6.94757 155.932 9.54881ZM133.629 61.7721C137.408 62.3531 141.186 62.9353 144.966 63.5164C144.469 65.9158 143.971 68.315 142.057 70.6878C140.143 73.0609 136.813 75.4066 133.815 77.0641C130.818 78.7211 128.153 79.6902 125.318 80.1981C122.484 80.7063 119.48 80.7549 116.306 80.5377C106.575 79.8685 94.214 75.8191 89.3207 66.6646C87.6253 63.4916 86.0251 59.1095 85.408 54.8237C84.79 50.5376 85.1526 46.3493 86.4725 42.1199C87.7935 37.89 90.0685 33.6209 93.326 30.2629C96.5851 26.9051 100.823 24.459 105.051 23.1687C109.279 21.8773 113.496 21.7416 116.973 21.8393C120.449 21.936 123.184 22.2652 126.466 23.3027C129.748 24.3395 133.575 26.0819 136.579 28.3772C139.583 30.671 141.763 33.5163 143.313 36.4341C144.863 39.3516 145.784 42.3405 146.269 45.5595C146.754 48.7771 146.805 52.2245 146.854 55.6712C132.077 55.6228 117.301 55.5745 102.523 55.5264C105.917 73.1429 122.671 70.0641 133.629 61.7721ZM102.162 47.0264H130.215C130.215 39.5554 124.101 33.4452 116.627 33.4452H115.752C108.277 33.4452 102.162 39.5554 102.162 47.0264ZM18.9122 19.8177C18.9122 35.1192 18.9122 50.4217 18.9122 65.7229C23.418 65.7229 27.9235 65.7229 31.6049 65.6748C35.288 65.6261 38.1472 65.5287 40.8591 64.924C43.5727 64.3191 46.1406 63.2042 48.3926 61.7272C50.6464 60.25 52.5842 58.4107 54.0136 56.3288C55.4432 54.2459 56.3641 51.9224 56.9516 49.0531C57.5399 46.1837 57.7935 42.7707 57.454 39.4779C57.1156 36.1847 56.1824 33.0133 54.7529 30.4647C53.3237 27.9164 51.3973 25.9897 49.2048 24.3132C47.0131 22.6359 44.5541 21.2081 39.4611 20.5006C34.3671 19.7921 26.6398 19.8043 18.9122 19.8177Z" fill="#0A23A0"/>
</svg>
