<svg width="146" height="146" viewBox="0 0 146 146" fill="none" xmlns="http://www.w3.org/2000/svg">
<path d="M119.766 0H10.2656C9.00409 0 7.98438 1.01972 7.98438 2.28125V143.719C7.98438 144.98 9.00409 146 10.2656 146H65.0156C66.2772 146 67.2969 144.98 67.2969 143.719V125.441C69.2086 126.89 71.5628 127.78 74.1406 127.78C74.1566 127.78 74.1703 127.775 74.1862 127.775H126.587C126.596 127.775 126.6 127.78 126.609 127.78C132.89 127.78 137.997 122.677 138.009 116.401C138.009 116.389 138.016 116.378 138.016 116.367C138.016 115.105 136.996 114.085 135.734 114.085H122.047V2.28125C122.047 1.01972 121.027 0 119.766 0ZM85.5469 114.088V4.5625H99.2344V114.088H85.5469ZM62.7344 141.438H49.0469V4.5625H62.7344V141.438ZM30.7969 4.5625H44.4844V141.438H30.7969V4.5625ZM26.2344 141.438H12.5469V4.5625H26.2344V141.438ZM67.2969 116.376V4.5625H80.9844V116.369C80.9844 116.371 80.9844 116.373 80.9844 116.376C80.9844 120.133 77.9389 123.19 74.1862 123.215H74.1406C74.1361 123.215 74.1315 123.217 74.1247 123.217C70.3583 123.21 67.2969 120.144 67.2969 116.376ZM126.625 123.217C126.618 123.217 126.614 123.215 126.609 123.215H83.2132C84.2192 121.883 84.972 120.345 85.3188 118.65H133.033C132.091 121.299 129.591 123.21 126.625 123.217ZM103.797 114.088V4.5625H117.484V114.088H103.797Z" fill="#4C81FF"/>
<path d="M37.7093 18.2545C38.9686 18.2545 39.9906 17.2348 39.9906 15.9733C39.9906 14.7117 38.9686 13.692 37.7093 13.692H37.6865C36.4273 13.692 35.4189 14.7117 35.4189 15.9733C35.4189 17.2348 36.4501 18.2545 37.7093 18.2545ZM37.7093 36.5045H37.6865C36.4273 36.5045 35.4189 37.5242 35.4189 38.7858C35.4189 40.0473 36.4501 41.067 37.7116 41.067C38.9709 41.067 39.9929 40.0473 39.9929 38.7858C39.9929 37.5242 38.9686 36.5045 37.7093 36.5045ZM37.7093 59.317H37.6865C36.4273 59.317 35.4189 60.3367 35.4189 61.5983C35.4189 62.8598 36.4501 63.8795 37.7116 63.8795C38.9709 63.8795 39.9929 62.8598 39.9929 61.5983C39.9929 60.3367 38.9686 59.317 37.7093 59.317ZM37.7093 82.1295H37.6865C36.4273 82.1295 35.4189 83.1492 35.4189 84.4108C35.4189 85.6723 36.4501 86.692 37.7116 86.692C38.9709 86.692 39.9929 85.6723 39.9929 84.4108C39.9929 83.1492 38.9686 82.1295 37.7093 82.1295ZM37.7093 104.942H37.6865C36.4273 104.942 35.4189 105.962 35.4189 107.223C35.4189 108.485 36.4501 109.505 37.7116 109.505C38.9709 109.505 39.9929 108.485 39.9929 107.223C39.9929 105.962 38.9686 104.942 37.7093 104.942ZM37.7093 127.755H37.6865C36.4273 127.755 35.4189 128.774 35.4189 130.036C35.4189 131.297 36.4501 132.317 37.7116 132.317C38.9709 132.317 39.9929 131.297 39.9929 130.036C39.9929 128.774 38.9686 127.755 37.7093 127.755ZM92.4593 18.2545C93.7186 18.2545 94.7406 17.2348 94.7406 15.9733C94.7406 14.7117 93.7186 13.692 92.4593 13.692H92.4365C91.1773 13.692 90.1689 14.7117 90.1689 15.9733C90.1689 17.2348 91.2001 18.2545 92.4593 18.2545ZM92.4593 36.5045H92.4365C91.1773 36.5045 90.1689 37.5242 90.1689 38.7858C90.1689 40.0473 91.2001 41.067 92.4616 41.067C93.7208 41.067 94.7428 40.0473 94.7428 38.7858C94.7428 37.5242 93.7186 36.5045 92.4593 36.5045ZM92.4593 59.317H92.4365C91.1773 59.317 90.1689 60.3367 90.1689 61.5983C90.1689 62.8598 91.2001 63.8795 92.4616 63.8795C93.7208 63.8795 94.7428 62.8598 94.7428 61.5983C94.7428 60.3367 93.7186 59.317 92.4593 59.317ZM92.4593 82.1295H92.4365C91.1773 82.1295 90.1689 83.1492 90.1689 84.4108C90.1689 85.6723 91.2001 86.692 92.4616 86.692C93.7208 86.692 94.7428 85.6723 94.7428 84.4108C94.7428 83.1492 93.7186 82.1295 92.4593 82.1295ZM92.4593 104.942H92.4365C91.1773 104.942 90.1689 105.962 90.1689 107.223C90.1689 108.485 91.2001 109.505 92.4616 109.505C93.7208 109.505 94.7428 108.485 94.7428 107.223C94.7428 105.962 93.7186 104.942 92.4593 104.942Z" fill="#4C81FF"/>
</svg>
