<svg width="175" height="175" viewBox="0 0 175 175" fill="none" xmlns="http://www.w3.org/2000/svg">
<g clip-path="url(#clip0_173_2352)">
<path d="M156.083 129.391L104.612 174.081V139.081L156.083 94.3852V129.391ZM82.3154 94.8008L174.956 15.3235V64.3235L82.3154 143.801V94.8008Z" fill="#3453E0"/>
<path d="M82.3102 143.844L156.002 129.407V80.407L82.3102 94.8445V143.844ZM0 32.9218L175 0.918701V63.9187L0 95.9218V32.9218Z" fill="#3477E0"/>
<path d="M129.09 19.8733L111.711 23.2365V63.7768L129.09 60.4136V54.6217L118.082 56.7546V44.8819L126.832 43.1869V37.3951L118.082 39.0907V27.792L129.09 25.6705V19.8733ZM98.3996 25.8073L92.034 27.043V67.5827L108.889 64.3236V58.5317L98.3996 60.5558V25.8073ZM82.6332 28.8642L73.309 30.6686L66.8176 72.4613L72.6801 71.3177L73.7738 63.7601L81.5941 62.2401L82.6879 69.3818L89.1246 68.1461L82.6332 28.8642ZM57.652 33.403C56.9738 33.403 56.2465 33.5017 55.4754 33.6493C49.2793 34.8524 46.091 39.173 46.091 45.6589C46.091 57.2417 58.5379 56.3936 58.5379 64.7335C58.5379 67.6264 57.2691 68.9119 55.2402 69.3057C53.2168 69.6994 51.9426 68.9008 51.9426 66.0079V63.1146L45.916 64.2742V66.7622C45.916 73.2482 49.159 76.3328 55.4152 75.1242C61.6715 73.9156 64.9145 69.5846 64.9145 63.0932C64.9145 51.5159 52.4566 52.3525 52.4566 44.0127C52.4566 41.1143 53.6215 39.7907 55.6504 39.4024C57.6738 39.0087 58.8332 39.8893 58.8332 42.7877V44.4606L64.8543 43.3017V42.0273C64.8543 36.3508 62.4152 33.2827 57.652 33.403ZM77.6512 36.9958L80.7246 56.9075L74.5832 58.0945L77.6457 37.0019L77.6512 36.9958Z" fill="white"/>
</g>
<defs>
<clipPath id="clip0_173_2352">
<rect width="175" height="175" fill="white"/>
</clipPath>
</defs>
</svg>
