<svg width="14" height="14" viewBox="0 0 14 14" fill="none" xmlns="http://www.w3.org/2000/svg">
<path d="M9.91667 7.58335H4.08333C3.92862 7.58335 3.78025 7.5219 3.67085 7.4125C3.56146 7.3031 3.5 7.15473 3.5 7.00002C3.5 6.84531 3.56146 6.69694 3.67085 6.58754C3.78025 6.47815 3.92862 6.41669 4.08333 6.41669H9.91667C10.0714 6.41669 10.2197 6.47815 10.3291 6.58754C10.4385 6.69694 10.5 6.84531 10.5 7.00002C10.5 7.15473 10.4385 7.3031 10.3291 7.4125C10.2197 7.5219 10.0714 7.58335 9.91667 7.58335Z" fill="#FF0044"/>
<path d="M7.00002 10.5C6.88466 10.4999 6.77191 10.4657 6.676 10.4016C6.5801 10.3375 6.50535 10.2464 6.46121 10.1399C6.41706 10.0333 6.40551 9.91601 6.42801 9.80287C6.45051 9.68973 6.50605 9.5858 6.5876 9.50422L9.09185 6.99997L6.5876 4.49572C6.48134 4.38571 6.42255 4.23835 6.42388 4.08541C6.4252 3.93246 6.48655 3.78615 6.59471 3.678C6.70286 3.56984 6.84917 3.50849 7.00212 3.50716C7.15507 3.50583 7.30242 3.56463 7.41243 3.67089L10.3291 6.58756C10.4385 6.69695 10.4999 6.84529 10.4999 6.99997C10.4999 7.15465 10.4385 7.303 10.3291 7.41239L7.41243 10.3291C7.35834 10.3833 7.29405 10.4263 7.22328 10.4557C7.1525 10.485 7.07663 10.5001 7.00002 10.5Z" fill="#FF0044"/>
</svg>
