<svg width="44" height="44" viewBox="0 0 44 44" fill="none" xmlns="http://www.w3.org/2000/svg">
<path d="M32.7422 8.03516H11.2578C9.47891 8.03516 8.03516 9.47891 8.03516 11.2578V32.7422C8.03516 34.5211 9.47891 35.9648 11.2578 35.9648H32.7422C34.5211 35.9648 35.9648 34.5211 35.9648 32.7422V11.2578C35.9648 9.47891 34.5211 8.03516 32.7422 8.03516ZM33.8164 11.2578V21.3555H22.6445V10.1836H32.7422C33.3352 10.1836 33.8164 10.6648 33.8164 11.2578ZM11.2578 10.1836H21.3555V21.3555H10.1836V11.2578C10.1836 10.6648 10.6648 10.1836 11.2578 10.1836ZM10.1836 32.7422V22.6445H21.3555V33.8164H11.2578C10.6648 33.8164 10.1836 33.3352 10.1836 32.7422ZM32.7422 33.8164H22.6445V22.6445H33.8164V32.7422C33.8164 33.3352 33.3352 33.8164 32.7422 33.8164Z" fill="#686868"/>
<path d="M13.1914 16.8438H14.6953V18.3477C14.6953 18.9406 15.1766 19.4219 15.7695 19.4219C16.3625 19.4219 16.8438 18.9406 16.8438 18.3477V16.8438H18.3477C18.9406 16.8438 19.4219 16.3625 19.4219 15.7695C19.4219 15.1766 18.9406 14.6953 18.3477 14.6953H16.8438V13.1914C16.8438 12.5984 16.3625 12.1172 15.7695 12.1172C15.1766 12.1172 14.6953 12.5984 14.6953 13.1914V14.6953H13.1914C12.5984 14.6953 12.1172 15.1766 12.1172 15.7695C12.1172 16.3625 12.5984 16.8438 13.1914 16.8438ZM17.2906 28.0156L18.4766 26.8297C18.8977 26.4086 18.8977 25.7297 18.4766 25.3086C18.0555 24.8875 17.3766 24.8875 16.9555 25.3086L15.7695 26.4945L14.5836 25.3086C14.1625 24.8875 13.4836 24.8875 13.0625 25.3086C12.6414 25.7297 12.6414 26.4086 13.0625 26.8297L14.2484 28.0156L13.0625 29.2016C12.6414 29.6227 12.6414 30.3016 13.0625 30.7227C13.2687 30.9289 13.5438 31.0406 13.8188 31.0406C14.0938 31.0406 14.3688 30.9375 14.575 30.7227L15.7609 29.5367L16.9469 30.7227C17.1531 30.9289 17.4281 31.0406 17.7031 31.0406C17.9781 31.0406 18.2531 30.9375 18.4594 30.7227C18.8805 30.3016 18.8805 29.6227 18.4594 29.2016L17.2906 28.0156ZM30.5938 25.2055H25.8672C25.2742 25.2055 24.793 25.6867 24.793 26.2797C24.793 26.8727 25.2742 27.3539 25.8672 27.3539H30.5938C31.1867 27.3539 31.668 26.8727 31.668 26.2797C31.668 25.6867 31.1867 25.2055 30.5938 25.2055ZM25.8672 16.8438H30.5938C31.1867 16.8438 31.668 16.3625 31.668 15.7695C31.668 15.1766 31.1867 14.6953 30.5938 14.6953H25.8672C25.2742 14.6953 24.793 15.1766 24.793 15.7695C24.793 16.3625 25.2742 16.8438 25.8672 16.8438ZM30.5938 28.643H25.8672C25.2742 28.643 24.793 29.1242 24.793 29.7172C24.793 30.3102 25.2742 30.7914 25.8672 30.7914H30.5938C31.1867 30.7914 31.668 30.3102 31.668 29.7172C31.668 29.1242 31.1867 28.643 30.5938 28.643Z" fill="#686868"/>
</svg>
