<svg width="32" height="32" viewBox="0 0 32 32" fill="none" xmlns="http://www.w3.org/2000/svg">
<path d="M23.64 3H8.36C6.93925 3.00264 5.57745 3.5682 4.57283 4.57283C3.5682 5.57745 3.00264 6.93925 3 8.36V23.64C3.00264 25.0607 3.5682 26.4226 4.57283 27.4272C5.57745 28.4318 6.93925 28.9974 8.36 29H23.64C25.0607 28.9974 26.4226 28.4318 27.4272 27.4272C28.4318 26.4226 28.9974 25.0607 29 23.64V8.36C28.9974 6.93925 28.4318 5.57745 27.4272 4.57283C26.4226 3.5682 25.0607 3.00264 23.64 3ZM13.12 21.71C13.3063 21.8974 13.4108 22.1508 13.4108 22.415C13.4108 22.6792 13.3063 22.9326 13.12 23.12C12.9326 23.3063 12.6792 23.4108 12.415 23.4108C12.1508 23.4108 11.8974 23.3063 11.71 23.12L11 22.41L10.29 23.12C10.1026 23.3063 9.84919 23.4108 9.585 23.4108C9.32081 23.4108 9.06736 23.3063 8.88 23.12C8.69375 22.9326 8.58921 22.6792 8.58921 22.415C8.58921 22.1508 8.69375 21.8974 8.88 21.71L9.59 21L8.88 20.29C8.71617 20.0987 8.63057 19.8526 8.64029 19.6009C8.65001 19.3493 8.75434 19.1105 8.93244 18.9324C9.11053 18.7543 9.34927 18.65 9.60095 18.6403C9.85262 18.6306 10.0987 18.7162 10.29 18.88L11 19.59L11.71 18.88C11.9013 18.7162 12.1474 18.6306 12.3991 18.6403C12.6507 18.65 12.8895 18.7543 13.0676 18.9324C13.2457 19.1105 13.35 19.3493 13.3597 19.6009C13.3694 19.8526 13.2838 20.0987 13.12 20.29L12.41 21L13.12 21.71ZM13 12H12V13C12 13.2652 11.8946 13.5196 11.7071 13.7071C11.5196 13.8946 11.2652 14 11 14C10.7348 14 10.4804 13.8946 10.2929 13.7071C10.1054 13.5196 10 13.2652 10 13V12H9C8.73478 12 8.48043 11.8946 8.29289 11.7071C8.10536 11.5196 8 11.2652 8 11C8 10.7348 8.10536 10.4804 8.29289 10.2929C8.48043 10.1054 8.73478 10 9 10H10V9C10 8.73478 10.1054 8.48043 10.2929 8.29289C10.4804 8.10536 10.7348 8 11 8C11.2652 8 11.5196 8.10536 11.7071 8.29289C11.8946 8.48043 12 8.73478 12 9V10H13C13.2652 10 13.5196 10.1054 13.7071 10.2929C13.8946 10.4804 14 10.7348 14 11C14 11.2652 13.8946 11.5196 13.7071 11.7071C13.5196 11.8946 13.2652 12 13 12ZM21.71 23.71C21.5471 23.8742 21.3324 23.9769 21.1023 24.0005C20.8722 24.0242 20.6411 23.9674 20.4482 23.8397C20.2553 23.7121 20.1126 23.5216 20.0445 23.3006C19.9763 23.0796 19.9868 22.8418 20.0743 22.6277C20.1617 22.4135 20.3207 22.2364 20.5241 22.1263C20.7275 22.0162 20.9628 21.9801 21.1899 22.024C21.4169 22.0679 21.6218 22.1891 21.7695 22.3671C21.9172 22.5451 21.9987 22.7687 22 23C21.9963 23.2648 21.8927 23.5184 21.71 23.71ZM23 21H19C18.7348 21 18.4804 20.8946 18.2929 20.7071C18.1054 20.5196 18 20.2652 18 20C18 19.7348 18.1054 19.4804 18.2929 19.2929C18.4804 19.1054 18.7348 19 19 19H23C23.2652 19 23.5196 19.1054 23.7071 19.2929C23.8946 19.4804 24 19.7348 24 20C24 20.2652 23.8946 20.5196 23.7071 20.7071C23.5196 20.8946 23.2652 21 23 21ZM20 17C20.0013 16.7687 20.0828 16.5451 20.2305 16.3671C20.3782 16.1891 20.5831 16.0679 20.8101 16.024C21.0372 15.9801 21.2725 16.0162 21.4759 16.1263C21.6793 16.2364 21.8383 16.4135 21.9257 16.6277C22.0132 16.8418 22.0237 17.0796 21.9555 17.3006C21.8874 17.5216 21.7447 17.7121 21.5518 17.8397C21.3589 17.9674 21.1278 18.0242 20.8977 18.0005C20.6676 17.9769 20.4529 17.8742 20.29 17.71C20.1073 17.5184 20.0037 17.2648 20 17ZM23 12H19C18.7348 12 18.4804 11.8946 18.2929 11.7071C18.1054 11.5196 18 11.2652 18 11C18 10.7348 18.1054 10.4804 18.2929 10.2929C18.4804 10.1054 18.7348 10 19 10H23C23.2652 10 23.5196 10.1054 23.7071 10.2929C23.8946 10.4804 24 10.7348 24 11C24 11.2652 23.8946 11.5196 23.7071 11.7071C23.5196 11.8946 23.2652 12 23 12Z" fill="#F5F5F5"/>
</svg>
