<svg width="20" height="21" viewBox="0 0 20 21" fill="none" xmlns="http://www.w3.org/2000/svg">
<path d="M17.9165 14.6667H5.4165C4.72615 14.6667 4.1665 14.107 4.1665 13.4167C4.1665 12.7263 4.72615 12.1667 5.4165 12.1667H14.5531C15.6082 12.1701 16.5301 11.4546 16.7886 10.4317L18.3201 4.35172C18.3769 4.12924 18.2424 3.9029 18.0199 3.84619C17.9861 3.8376 17.9513 3.83327 17.9165 3.83332H5.32556L5.30338 3.74462C5.07232 2.81653 4.23832 2.16554 3.2819 2.16666H2.08317C1.85307 2.16666 1.6665 2.35322 1.6665 2.58332C1.6665 2.81343 1.85307 2.99999 2.08317 2.99999H3.2819C3.85563 2.99918 4.35597 3.3897 4.49447 3.94644L6.34098 11.3333H5.4165C4.26589 11.3333 3.33317 12.266 3.33317 13.4167C3.33317 14.5673 4.26589 15.5 5.4165 15.5H6.26021C5.98474 15.8586 5.8347 16.2978 5.83317 16.75C5.83317 17.9006 6.76589 18.8333 7.9165 18.8333C9.06712 18.8333 9.99984 17.9006 9.99984 16.75C9.99831 16.2978 9.84827 15.8586 9.57279 15.5H12.9269C12.6514 15.8586 12.5014 16.2978 12.4998 16.75C12.4998 17.9006 13.4326 18.8333 14.5832 18.8333C15.7338 18.8333 16.6665 17.9006 16.6665 16.75C16.665 16.2978 16.5149 15.8586 16.2395 15.5H17.9165C18.1466 15.5 18.3332 15.3134 18.3332 15.0833C18.3332 14.8532 18.1466 14.6667 17.9165 14.6667ZM5.5345 4.66666H17.3818L15.9805 10.2282C15.8149 10.8806 15.2262 11.3365 14.5531 11.3333H7.21338L5.5345 4.66666ZM7.9165 18C7.22614 18 6.6665 17.4403 6.6665 16.75C6.6665 16.0596 7.22614 15.5 7.9165 15.5C8.60686 15.5 9.1665 16.0596 9.1665 16.75C9.16574 17.44 8.60656 17.9992 7.9165 18ZM14.5832 18C13.8928 18 13.3332 17.4403 13.3332 16.75C13.3332 16.0596 13.8928 15.5 14.5832 15.5C15.2735 15.5 15.8332 16.0596 15.8332 16.75C15.8324 17.44 15.2732 17.9992 14.5832 18Z" fill="white"/>
</svg>
