<svg width="28" height="28" viewBox="0 0 28 28" fill="none" xmlns="http://www.w3.org/2000/svg">
<path d="M11.2183 7.4962C10.7636 7.92977 10.3555 8.40973 10.0008 8.92826C9.91613 9.05516 9.88491 9.2103 9.91387 9.36006C9.94283 9.50983 10.0297 9.64214 10.1555 9.72833C10.2814 9.81452 10.4361 9.84764 10.5862 9.82051C10.7363 9.79339 10.8697 9.7082 10.9574 9.58341C11.2663 9.13178 11.6219 8.71396 12.0184 8.33688C12.0736 8.28435 12.1179 8.22145 12.1488 8.15179C12.1797 8.08213 12.1966 8.00707 12.1985 7.93089C12.2003 7.85471 12.1872 7.7789 12.1598 7.7078C12.1324 7.6367 12.0912 7.57169 12.0387 7.51649C11.9862 7.46129 11.9233 7.41698 11.8536 7.38608C11.784 7.35519 11.7089 7.33832 11.6327 7.33644C11.5565 7.33455 11.4807 7.34769 11.4096 7.3751C11.3385 7.40251 11.2735 7.44366 11.2183 7.4962V7.4962Z" fill="black"/>
<path d="M8.67314 16.1117C8.70374 16.2415 8.7781 16.3567 8.8837 16.438C8.9893 16.5193 9.11969 16.5617 9.25292 16.5582C9.29913 16.5638 9.34585 16.5638 9.39206 16.5582C9.46641 16.5405 9.53653 16.5083 9.59838 16.4634C9.66024 16.4185 9.71261 16.3618 9.75248 16.2966C9.79235 16.2314 9.81894 16.159 9.83072 16.0835C9.84249 16.008 9.83923 15.9309 9.8211 15.8566C9.69303 15.3245 9.62113 14.7804 9.60658 14.2333C9.60658 14.0795 9.5455 13.932 9.43677 13.8233C9.32804 13.7146 9.18057 13.6535 9.0268 13.6535C8.87304 13.6535 8.72557 13.7146 8.61684 13.8233C8.50811 13.932 8.44702 14.0795 8.44702 14.2333C8.456 14.8656 8.53179 15.4953 8.67314 16.1117V16.1117Z" fill="black"/>
<path d="M9.03832 13.0563H9.14268C9.27996 13.0585 9.41359 13.012 9.51976 12.9249C9.62593 12.8379 9.69776 12.7159 9.72246 12.5809C9.82228 12.0444 9.97773 11.5197 10.1863 11.0155C10.2156 10.945 10.2308 10.8695 10.2309 10.7932C10.231 10.717 10.2161 10.6414 10.187 10.5709C10.158 10.5003 10.1153 10.4362 10.0614 10.3822C10.0076 10.3282 9.94363 10.2853 9.8732 10.2559C9.80277 10.2266 9.72726 10.2115 9.65098 10.2114C9.57469 10.2112 9.49913 10.2261 9.4286 10.2552C9.35808 10.2843 9.29397 10.3269 9.23993 10.3808C9.1859 10.4346 9.143 10.4986 9.11369 10.569C8.87379 11.1479 8.69502 11.7503 8.58029 12.3664C8.56426 12.4418 8.56344 12.5197 8.57788 12.5954C8.59232 12.6712 8.62172 12.7433 8.66438 12.8075C8.70703 12.8718 8.76207 12.9269 8.82628 12.9696C8.89049 13.0123 8.96258 13.0418 9.03832 13.0563V13.0563Z" fill="black"/>
<path d="M24.472 10.6386C24.7086 11.1322 24.8932 11.6491 25.0228 12.1808C25.0664 12.3218 25.1621 12.4408 25.2903 12.5136C25.4186 12.5865 25.5698 12.6077 25.7132 12.573C25.8566 12.5382 25.9813 12.4502 26.062 12.3267C26.1427 12.2032 26.1733 12.0536 26.1476 11.9083C25.9969 11.3085 25.7851 10.7257 25.5156 10.169C25.4431 10.0416 25.3251 9.94632 25.1852 9.90245C25.0453 9.85857 24.894 9.86931 24.7617 9.93251C24.6294 9.99571 24.526 10.1067 24.4723 10.2431C24.4185 10.3795 24.4184 10.5311 24.472 10.6676V10.6386Z" fill="black"/>
<path d="M23.614 9.24132C23.6605 9.30184 23.7184 9.35263 23.7845 9.39078C23.8505 9.42893 23.9235 9.45369 23.9991 9.46365C24.0748 9.47361 24.1516 9.46858 24.2253 9.44883C24.299 9.42909 24.3681 9.39502 24.4286 9.34857C24.4892 9.30213 24.54 9.24422 24.5781 9.17815C24.6163 9.11207 24.641 9.03913 24.651 8.96349C24.6609 8.88785 24.6559 8.81099 24.6362 8.73729C24.6164 8.6636 24.5823 8.59451 24.5359 8.53398C24.1522 8.03533 23.7169 7.57863 23.2372 7.1715C23.1203 7.07155 22.9685 7.02212 22.8152 7.03408C22.6619 7.04604 22.5196 7.11841 22.4197 7.23527C22.3197 7.35214 22.2703 7.50392 22.2823 7.65723C22.2942 7.81054 22.3666 7.95281 22.4835 8.05276C22.9011 8.4081 23.28 8.80649 23.614 9.24132V9.24132Z" fill="black"/>
<path d="M16.303 6.26125H16.3784C16.9212 6.1792 17.4711 6.15394 18.0192 6.18588C18.0953 6.19159 18.1718 6.18225 18.2444 6.15839C18.3169 6.13453 18.384 6.09661 18.4419 6.04681C18.4997 5.99701 18.5472 5.9363 18.5817 5.86814C18.6161 5.79999 18.6367 5.72572 18.6424 5.64958C18.6481 5.57344 18.6388 5.49693 18.6149 5.4244C18.5911 5.35187 18.5532 5.28475 18.5034 5.22688C18.4536 5.169 18.3929 5.1215 18.3247 5.08709C18.2565 5.05268 18.1823 5.03203 18.1061 5.02632C17.4799 4.97844 16.8503 4.99592 16.2276 5.0785C16.0739 5.08849 15.9304 5.15916 15.8287 5.27496C15.7271 5.39076 15.6756 5.5422 15.6856 5.69596C15.6955 5.84973 15.7662 5.99323 15.882 6.09489C15.9978 6.19656 16.1493 6.24805 16.303 6.23806V6.26125Z" fill="black"/>
<path d="M13.0156 7.42662C13.1216 7.42764 13.2259 7.39957 13.3171 7.34545C13.7859 7.05875 14.2833 6.82169 14.8013 6.63812C14.8749 6.61383 14.9429 6.57502 15.0013 6.52399C15.0596 6.47296 15.1071 6.41074 15.141 6.34103C15.1749 6.27131 15.1945 6.1955 15.1986 6.11809C15.2026 6.04068 15.1912 5.96324 15.1648 5.89034C15.1384 5.81745 15.0977 5.75058 15.0451 5.69369C14.9924 5.63681 14.9289 5.59106 14.8582 5.55915C14.7876 5.52725 14.7112 5.50983 14.6337 5.50794C14.5563 5.50605 14.4792 5.51971 14.407 5.54813C13.816 5.75908 13.2486 6.03112 12.7141 6.35983C12.6072 6.42606 12.5247 6.52526 12.4791 6.64245C12.4336 6.75964 12.4273 6.88848 12.4613 7.00954C12.4954 7.1306 12.5678 7.23731 12.6678 7.31359C12.7678 7.38986 12.8898 7.43157 13.0156 7.43242V7.42662Z" fill="black"/>
<path d="M10.2789 19.4861C10.3745 19.6008 10.5106 19.6742 10.659 19.691C10.8074 19.7078 10.9566 19.6667 11.0754 19.5763C11.1942 19.4859 11.2736 19.3531 11.2969 19.2056C11.3203 19.0581 11.2858 18.9072 11.2007 18.7845C10.8691 18.3495 10.5834 17.8812 10.3484 17.3873C10.3193 17.3131 10.2753 17.2458 10.219 17.1895C10.1627 17.1331 10.0955 17.089 10.0214 17.0598C9.94729 17.0306 9.86799 17.017 9.78841 17.0198C9.70884 17.0226 9.63069 17.0417 9.55884 17.0761C9.48699 17.1104 9.42299 17.1592 9.37081 17.2193C9.31864 17.2795 9.27941 17.3497 9.25558 17.4257C9.23175 17.5017 9.22382 17.5817 9.2323 17.6609C9.24077 17.7401 9.26546 17.8167 9.30483 17.8859C9.57343 18.4514 9.89985 18.9877 10.2789 19.4861V19.4861Z" fill="black"/>
<path d="M22.7964 19.7006C22.3969 20.0717 21.9597 20.4001 21.4919 20.6804C21.385 20.7467 21.3026 20.8459 21.257 20.9631C21.2114 21.0802 21.2051 21.2091 21.2392 21.3301C21.2732 21.4512 21.3456 21.5579 21.4456 21.6342C21.5456 21.7105 21.6677 21.7522 21.7934 21.753C21.9 21.7523 22.0043 21.7222 22.0949 21.6661C22.6309 21.3329 23.1303 20.9442 23.5849 20.5065C23.684 20.3984 23.7384 20.2569 23.7373 20.1103C23.7362 19.9638 23.6796 19.8231 23.579 19.7165C23.4783 19.61 23.341 19.5456 23.1948 19.5361C23.0485 19.5267 22.9041 19.5731 22.7906 19.6658L22.7964 19.7006Z" fill="black"/>
<path d="M24.6575 17.0162C24.4475 17.5215 24.1852 18.0035 23.8748 18.4541C23.8306 18.5168 23.7994 18.5877 23.7829 18.6627C23.7664 18.7376 23.7649 18.8151 23.7785 18.8906C23.7922 18.9661 23.8207 19.0382 23.8624 19.1026C23.9041 19.167 23.9582 19.2225 24.0215 19.2659C24.0848 19.3092 24.1561 19.3396 24.2312 19.3552C24.3063 19.3708 24.3838 19.3713 24.4592 19.3567C24.5345 19.3422 24.6062 19.3128 24.6701 19.2703C24.734 19.2278 24.7888 19.1731 24.8314 19.1092C25.1903 18.5878 25.4935 18.03 25.7359 17.4452L25.2025 17.2133L24.6575 17.0162Z" fill="black"/>
<path d="M26.3969 13.7636C26.3946 13.6875 26.3774 13.6126 26.3461 13.5431C26.3149 13.4736 26.2703 13.411 26.2148 13.3588C26.1594 13.3065 26.0942 13.2658 26.0229 13.2387C25.9517 13.2117 25.8759 13.199 25.7998 13.2012C25.7236 13.2035 25.6487 13.2208 25.5792 13.252C25.5097 13.2833 25.4471 13.3279 25.3949 13.3834C25.3427 13.4388 25.3019 13.504 25.2748 13.5752C25.2478 13.6464 25.2351 13.7223 25.2374 13.7984C25.2374 13.8738 25.2374 13.9434 25.2374 14.0187C25.2378 14.4913 25.1951 14.9628 25.1098 15.4276C25.0956 15.5026 25.0962 15.5797 25.1119 15.6545C25.1275 15.7292 25.1577 15.8001 25.2008 15.8631C25.2439 15.9262 25.299 15.9801 25.363 16.0217C25.427 16.0634 25.4986 16.092 25.5736 16.106H25.678C25.8153 16.1082 25.9489 16.0616 26.0551 15.9746C26.1613 15.8875 26.2331 15.7656 26.2578 15.6305C26.3529 15.0986 26.3995 14.5591 26.3969 14.0187C26.3969 13.9318 26.3969 13.8506 26.3969 13.7636Z" fill="black"/>
<path d="M21.921 6.89901C21.9929 6.76362 22.0083 6.60527 21.9637 6.45859C21.9192 6.31191 21.8184 6.18884 21.6833 6.11631C21.4137 5.97108 21.137 5.8395 20.8542 5.72206C20.5604 5.59859 20.2604 5.49022 19.9556 5.39738C19.8079 5.35355 19.649 5.37017 19.5136 5.44356C19.3782 5.51695 19.2776 5.64111 19.2337 5.78873C19.1899 5.93635 19.2065 6.09533 19.2799 6.2307C19.3533 6.36606 19.4775 6.46673 19.6251 6.51056C19.8921 6.58195 20.1553 6.6671 20.4136 6.76566C20.6629 6.87002 20.9064 6.98598 21.1383 7.10773C21.2221 7.15294 21.3156 7.17683 21.4108 7.17731C21.5128 7.17992 21.6137 7.15557 21.7033 7.1067C21.7929 7.05784 21.868 6.9862 21.921 6.89901V6.89901Z" fill="black"/>
<path d="M13.6708 20.8949C13.1893 20.6338 12.7366 20.3229 12.32 19.9673C12.2031 19.8673 12.0513 19.8179 11.898 19.8299C11.7447 19.8418 11.6024 19.9142 11.5025 20.031C11.4025 20.1479 11.3531 20.2997 11.365 20.453C11.377 20.6063 11.4494 20.7486 11.5662 20.8485C12.0434 21.2558 12.5623 21.6115 13.1143 21.9095C13.2496 21.9864 13.4099 22.0064 13.5599 21.9651C13.71 21.9238 13.8375 21.8245 13.9143 21.6892C13.9912 21.5539 14.0112 21.3936 13.9699 21.2435C13.9286 21.0935 13.8293 20.966 13.694 20.8891L13.6708 20.8949Z" fill="black"/>
<path d="M20.0194 21.3936C19.5046 21.5759 18.9722 21.7042 18.4308 21.7762C18.3546 21.7812 18.2802 21.8011 18.2118 21.8348C18.1433 21.8685 18.0822 21.9153 18.0318 21.9727C17.9815 22.03 17.9429 22.0967 17.9184 22.1689C17.8938 22.2412 17.8837 22.3175 17.8887 22.3937C17.8936 22.4698 17.9135 22.5442 17.9472 22.6127C17.9809 22.6811 18.0278 22.7423 18.0851 22.7926C18.1425 22.843 18.2092 22.8815 18.2814 22.9061C18.3536 22.9306 18.43 22.9407 18.5061 22.9358H18.5815C19.204 22.853 19.8161 22.7053 20.4078 22.4951C20.5539 22.4436 20.6735 22.3362 20.7404 22.1965C20.8073 22.0568 20.8159 21.8962 20.7644 21.7501C20.7129 21.604 20.6054 21.4844 20.4657 21.4175C20.326 21.3507 20.1654 21.3421 20.0194 21.3936V21.3936Z" fill="black"/>
<path d="M16.7898 21.84C16.2454 21.796 15.7071 21.6949 15.1838 21.5385C15.0362 21.4947 14.8772 21.5113 14.7419 21.5847C14.6065 21.6581 14.5058 21.7822 14.462 21.9299C14.4182 22.0775 14.4348 22.2365 14.5082 22.3718C14.5816 22.5072 14.7057 22.6079 14.8534 22.6517C15.456 22.8321 16.0759 22.9487 16.7029 22.9996H16.7492C16.903 23.0057 17.0529 22.9505 17.166 22.8461C17.2791 22.7418 17.3461 22.5967 17.3522 22.443C17.3584 22.2892 17.3032 22.1393 17.1988 22.0262C17.0944 21.9131 16.9494 21.8461 16.7956 21.84H16.7898Z" fill="black"/>
<path d="M11.224 21.724C10.1558 21.91 9.06062 21.8719 8.00788 21.6123C6.95513 21.3528 5.9678 20.8773 5.10849 20.216C4.24917 19.5548 3.53662 18.7222 3.016 17.7711C2.49538 16.82 2.17806 15.7711 2.08415 14.6909C1.99023 13.6107 2.12178 12.5227 2.47045 11.496C2.81911 10.4693 3.37729 9.52628 4.1096 8.72666C4.8419 7.92704 5.73236 7.2883 6.72451 6.85092C7.71667 6.41354 8.78887 6.18708 9.87315 6.18589C10.3259 6.18565 10.7779 6.22445 11.224 6.30184C11.3778 6.32798 11.5357 6.29197 11.6629 6.20172C11.7901 6.11148 11.8762 5.97439 11.9024 5.82062C11.9285 5.66686 11.8925 5.509 11.8023 5.38179C11.712 5.25457 11.5749 5.16842 11.4212 5.14228C10.201 4.94497 8.95328 5.00149 7.75596 5.30829C6.55863 5.61509 5.43747 6.16558 4.46256 6.92535C3.48765 7.68511 2.67994 8.63782 2.08994 9.72392C1.49994 10.81 1.14032 12.0061 1.03358 13.2375C0.926832 14.4689 1.07525 15.7091 1.46955 16.8805C1.86385 18.0519 2.49556 19.1294 3.32519 20.0456C4.15481 20.9618 5.16452 21.697 6.29118 22.2053C7.41785 22.7136 8.63725 22.9839 9.87315 22.9995C10.392 22.9995 10.9099 22.9549 11.4212 22.8662C11.4973 22.8532 11.5701 22.8254 11.6355 22.7843C11.7009 22.7432 11.7576 22.6897 11.8023 22.6267C11.847 22.5637 11.8788 22.4925 11.896 22.4172C11.9131 22.3419 11.9153 22.264 11.9024 22.1878C11.8894 22.1117 11.8616 22.0389 11.8205 21.9735C11.7794 21.9081 11.7259 21.8514 11.6629 21.8067C11.5999 21.7621 11.5287 21.7302 11.4534 21.713C11.3781 21.6959 11.3002 21.6937 11.224 21.7066V21.724Z" fill="black"/>
<path d="M15.1435 21.295C16.182 20.5431 17.0477 19.5777 17.6823 18.4635C18.317 17.3494 18.7058 16.1124 18.8228 14.8355C18.9398 13.5587 18.7821 12.2716 18.3605 11.0607C17.9389 9.84981 17.2631 8.74316 16.3784 7.81507C16.3258 7.75987 16.263 7.71556 16.1933 7.68467C16.1236 7.65377 16.0486 7.6369 15.9724 7.63502C15.8185 7.63121 15.6695 7.68868 15.558 7.79478C15.4465 7.90088 15.3817 8.04692 15.3779 8.20077C15.3741 8.35463 15.4316 8.50369 15.5377 8.61517C16.3081 9.42369 16.8965 10.3877 17.2635 11.4425C17.6305 12.4972 17.7675 13.6183 17.6654 14.7304C17.5632 15.8425 17.2243 16.9199 16.6713 17.8901C16.1183 18.8604 15.3641 19.7011 14.4593 20.3557C14.3941 20.3989 14.3384 20.4547 14.2953 20.5199C14.2523 20.5851 14.2229 20.6584 14.2089 20.7352C14.1949 20.8121 14.1965 20.891 14.2138 20.9672C14.231 21.0434 14.2635 21.1154 14.3092 21.1787C14.355 21.2421 14.4131 21.2955 14.48 21.3358C14.5469 21.3762 14.6213 21.4026 14.6987 21.4134C14.776 21.4243 14.8548 21.4194 14.9302 21.399C15.0057 21.3787 15.0762 21.3433 15.1377 21.295H15.1435Z" fill="black"/>
</svg>
