<svg width="28" height="28" viewBox="0 0 28 28" fill="none" xmlns="http://www.w3.org/2000/svg">
<path d="M23.3016 13.1796C23.8292 12.6925 23.8732 11.8512 23.3456 11.3198C23.1257 11.0984 22.8619 10.9656 22.5541 10.9213L18.4208 10.3014C17.9811 10.2571 17.6293 9.94719 17.4095 9.54867L15.5627 5.78495C15.2549 5.12076 14.4634 4.8108 13.8038 5.12076C13.54 5.2536 13.2762 5.47499 13.1443 5.78495L11.2975 9.54867C11.1216 9.94719 10.7258 10.2129 10.2861 10.3014L6.15284 10.9213C5.4493 11.0099 4.92165 11.6741 5.00959 12.3825C5.05356 12.6925 5.18547 12.9582 5.40533 13.1796L8.39537 16.102C8.70317 16.4119 8.83508 16.8547 8.79111 17.2975L8.17551 21.4155C8.0436 22.124 8.48331 22.8324 9.23082 22.9653C9.53862 23.0095 9.84642 22.9653 10.1102 22.8324L13.8038 20.8841C14.1996 20.6627 14.6393 20.6627 15.035 20.8841L18.7286 22.8324C19.3442 23.1866 20.1796 22.9653 20.5314 22.3011C20.6633 22.0354 20.7513 21.7254 20.6633 21.4155L19.9598 17.2975C19.8718 16.8547 20.0477 16.4119 20.3555 16.102L23.3016 13.1796Z" stroke="black" stroke-linecap="round" stroke-linejoin="round"/>
</svg>
