<svg width="26" height="20" viewBox="0 0 26 20" fill="none" xmlns="http://www.w3.org/2000/svg">
<path d="M13.4727 8.03824C14.9618 8.03827 16.3083 8.48859 17.2803 9.21011C18.2523 9.93177 18.8446 10.9202 18.8447 12.0011C18.8447 13.0189 18.277 14.75 17.3105 16.2287C16.3425 17.7098 15.0005 18.8995 13.4727 18.8996C11.9447 18.8996 10.6028 17.7098 9.63477 16.2287C8.66832 14.7499 8.09961 13.0189 8.09961 12.0011C8.09977 10.9203 8.69209 9.93176 9.66406 9.21011C10.6361 8.4884 11.9833 8.03824 13.4727 8.03824ZM13.4727 9.11343C12.3171 9.11343 11.2479 9.43708 10.4648 9.95718C9.68341 10.4763 9.17499 11.2004 9.1748 12.0011C9.1748 12.4187 9.30319 12.9902 9.52637 13.6066C9.75022 14.2248 10.072 14.8963 10.4629 15.5177C10.8536 16.1388 11.3158 16.7137 11.8232 17.1339C12.3302 17.5537 12.8903 17.8253 13.4727 17.8253C14.0548 17.8253 14.6143 17.5535 15.1211 17.1339C15.6286 16.7137 16.0917 16.1388 16.4824 15.5177C16.8733 14.8964 17.1941 14.2247 17.418 13.6066C17.6411 12.9902 17.7705 12.4187 17.7705 12.0011C17.7703 11.2004 17.2618 10.4762 16.4805 9.95718C15.6975 9.43708 14.6281 9.11346 13.4727 9.11343Z" fill="black" stroke="white" stroke-width="0.2"/>
<path d="M12.9321 1.15332C13.469 1.04653 14.026 1.10108 14.5317 1.31055C15.0374 1.52002 15.4698 1.87497 15.7739 2.33008C16.0779 2.78506 16.2397 3.32002 16.2397 3.86719C16.2389 4.60097 15.9471 5.30438 15.4282 5.82324C14.9094 6.3421 14.2059 6.63395 13.4722 6.63477C12.925 6.63469 12.39 6.4729 11.9351 6.16895C11.48 5.86485 11.125 5.43244 10.9155 4.92676C10.7061 4.42105 10.6515 3.864 10.7583 3.32715C10.8652 2.79049 11.1282 2.29709 11.5151 1.91016C11.9021 1.52323 12.3955 1.26017 12.9321 1.15332ZM13.8032 2.20703C13.4748 2.1417 13.1341 2.17557 12.8247 2.30371C12.5154 2.43183 12.251 2.64844 12.0649 2.92676C11.879 3.20508 11.7799 3.53245 11.7798 3.86719C11.7802 4.31607 11.9585 4.74704 12.2759 5.06445C12.5932 5.38172 13.0234 5.56006 13.4722 5.56055C13.807 5.56055 14.1351 5.46143 14.4136 5.27539C14.6918 5.0894 14.9085 4.82483 15.0366 4.51562C15.1648 4.20625 15.1986 3.86554 15.1333 3.53711C15.068 3.20872 14.9062 2.90668 14.6694 2.66992C14.4328 2.43343 14.1313 2.27237 13.8032 2.20703Z" fill="black" stroke="white" stroke-width="0.2"/>
</svg>
