<svg width="26" height="20" viewBox="0 0 26 20" fill="none" xmlns="http://www.w3.org/2000/svg">
<path d="M20.9166 14.1667H8.41663C7.72627 14.1667 7.16663 13.607 7.16663 12.9167C7.16663 12.2263 7.72627 11.6667 8.41663 11.6667H17.5532C18.6083 11.6701 19.5302 10.9546 19.7887 9.9317L21.3203 3.85173C21.377 3.62926 21.2426 3.40292 21.02 3.34621C20.9862 3.33761 20.9515 3.33329 20.9166 3.33334H8.32568L8.30351 3.24464C8.07244 2.31654 7.23844 1.66555 6.28202 1.66667H5.08329C4.85319 1.66667 4.66663 1.85324 4.66663 2.08334C4.66663 2.31344 4.85319 2.50001 5.08329 2.50001H6.28202C6.85575 2.49919 7.35609 2.88972 7.49459 3.44646L9.3411 10.8333H8.41663C7.26601 10.8333 6.33329 11.7661 6.33329 12.9167C6.33329 14.0673 7.26601 15 8.41663 15H9.26033C8.98486 15.3586 8.83482 15.7978 8.83329 16.25C8.83329 17.4006 9.76601 18.3333 10.9166 18.3333C12.0672 18.3333 13 17.4006 13 16.25C12.9984 15.7978 12.8484 15.3586 12.5729 15H15.927C15.6515 15.3586 15.5015 15.7978 15.5 16.25C15.5 17.4006 16.4327 18.3333 17.5833 18.3333C18.7339 18.3333 19.6666 17.4006 19.6666 16.25C19.6651 15.7978 19.5151 15.3586 19.2396 15H20.9166C21.1467 15 21.3333 14.8134 21.3333 14.5833C21.3333 14.3532 21.1467 14.1667 20.9166 14.1667ZM8.53463 4.16667H20.382L18.9806 9.7282C18.815 10.3807 18.2263 10.8365 17.5532 10.8333H10.2135L8.53463 4.16667ZM10.9166 17.5C10.2263 17.5 9.66663 16.9404 9.66663 16.25C9.66663 15.5596 10.2263 15 10.9166 15C11.607 15 12.1666 15.5596 12.1666 16.25C12.1659 16.9401 11.6067 17.4992 10.9166 17.5ZM17.5833 17.5C16.8929 17.5 16.3333 16.9404 16.3333 16.25C16.3333 15.5596 16.8929 15 17.5833 15C18.2736 15 18.8333 15.5596 18.8333 16.25C18.8325 16.9401 18.2733 17.4992 17.5833 17.5Z" fill="black"/>
</svg>
