<svg width="26" height="20" viewBox="0 0 26 20" fill="none" xmlns="http://www.w3.org/2000/svg">
<path d="M22.3016 9.17956C22.8292 8.69249 22.8732 7.85119 22.3456 7.31984C22.1257 7.09844 21.8619 6.96561 21.5541 6.92133L17.4208 6.30142C16.9811 6.25714 16.6293 5.94719 16.4095 5.54867L14.5627 1.78495C14.2549 1.12076 13.4634 0.810804 12.8038 1.12076C12.54 1.2536 12.2762 1.47499 12.1443 1.78495L10.2975 5.54867C10.1216 5.94719 9.72584 6.21286 9.28613 6.30142L5.15284 6.92133C4.4493 7.00988 3.92165 7.67407 4.00959 8.38254C4.05356 8.69249 4.18547 8.95817 4.40533 9.17956L7.39537 12.102C7.70316 12.4119 7.83508 12.8547 7.79111 13.2975L7.17551 17.4155C7.0436 18.124 7.48331 18.8324 8.23082 18.9653C8.53862 19.0095 8.84642 18.9653 9.11024 18.8324L12.8038 16.8841C13.1996 16.6627 13.6393 16.6627 14.035 16.8841L17.7286 18.8324C18.3442 19.1866 19.1796 18.9653 19.5314 18.3011C19.6633 18.0354 19.7513 17.7254 19.6633 17.4155L18.9598 13.2975C18.8718 12.8547 19.0477 12.4119 19.3555 12.102L22.3016 9.17956Z" stroke="black" stroke-linecap="round" stroke-linejoin="round"/>
</svg>
