<svg width="26" height="20" viewBox="0 0 26 20" fill="none" xmlns="http://www.w3.org/2000/svg">
<path d="M10.4608 3.4962C9.99534 3.92977 9.57759 4.40973 9.21439 4.92826C9.12774 5.05516 9.09577 5.2103 9.12542 5.36006C9.15508 5.50983 9.24395 5.64214 9.37279 5.72833C9.50164 5.81452 9.66006 5.84764 9.81373 5.82051C9.9674 5.79339 10.1039 5.7082 10.1937 5.58341C10.51 5.13178 10.874 4.71396 11.2799 4.33688C11.3364 4.28435 11.3818 4.22145 11.4134 4.15179C11.4451 4.08213 11.4623 4.00707 11.4643 3.93089C11.4662 3.85471 11.4527 3.7789 11.4247 3.7078C11.3966 3.6367 11.3545 3.57169 11.3007 3.51649C11.2469 3.46129 11.1825 3.41698 11.1112 3.38608C11.0399 3.35519 10.9631 3.33832 10.8851 3.33644C10.8071 3.33455 10.7295 3.34769 10.6567 3.3751C10.5839 3.40251 10.5173 3.44366 10.4608 3.4962V3.4962Z" fill="black"/>
<path d="M7.85514 12.1117C7.88647 12.2415 7.9626 12.3567 8.07071 12.438C8.17881 12.5193 8.3123 12.5617 8.44869 12.5582C8.496 12.5638 8.54383 12.5638 8.59114 12.5582C8.66725 12.5405 8.73903 12.5083 8.80235 12.4634C8.86568 12.4185 8.91929 12.3618 8.96011 12.2966C9.00093 12.2314 9.02815 12.159 9.04021 12.0835C9.05226 12.008 9.04892 11.9309 9.03036 11.8566C8.89925 11.3245 8.82564 10.7804 8.81075 10.2333C8.81075 10.0795 8.74822 9.93202 8.6369 9.82329C8.52559 9.71456 8.37462 9.65347 8.2172 9.65347C8.05979 9.65347 7.90881 9.71456 7.7975 9.82329C7.68619 9.93202 7.62366 10.0795 7.62366 10.2333C7.63285 10.8656 7.71044 11.4953 7.85514 12.1117V12.1117Z" fill="black"/>
<path d="M8.22918 9.05629H8.33602C8.47656 9.05853 8.61336 9.01198 8.72205 8.92491C8.83075 8.83785 8.90428 8.71594 8.92956 8.58087C9.03175 8.04437 9.19089 7.51974 9.4044 7.01546C9.43441 6.94503 9.44993 6.86952 9.45006 6.79324C9.45019 6.71695 9.43494 6.64139 9.40518 6.57086C9.37542 6.50034 9.33172 6.43623 9.2766 6.38219C9.22147 6.32816 9.15599 6.28526 9.08389 6.25595C9.01179 6.22664 8.93448 6.21148 8.85639 6.21135C8.77829 6.21122 8.70093 6.22612 8.62873 6.25519C8.55653 6.28426 8.4909 6.32694 8.43558 6.38079C8.38027 6.43464 8.33635 6.4986 8.30634 6.56903C8.06075 7.14793 7.87773 7.75031 7.76028 8.36635C7.74387 8.44179 7.74303 8.51966 7.75781 8.59542C7.77259 8.67117 7.8027 8.74328 7.84636 8.80753C7.89003 8.87178 7.94638 8.92688 8.01211 8.96959C8.07784 9.01231 8.15164 9.04178 8.22918 9.05629V9.05629Z" fill="black"/>
<path d="M24.0292 6.63861C24.2714 7.1322 24.4604 7.64905 24.5931 8.18083C24.6377 8.32176 24.7357 8.44077 24.867 8.51363C24.9983 8.58649 25.1531 8.60772 25.2999 8.57298C25.4467 8.53825 25.5744 8.45017 25.657 8.32668C25.7396 8.20319 25.7709 8.05359 25.7446 7.90833C25.5903 7.30849 25.3735 6.72567 25.0976 6.16899C25.0234 6.04156 24.9025 5.94632 24.7593 5.90245C24.6161 5.85857 24.4612 5.86931 24.3258 5.93251C24.1904 5.99571 24.0845 6.10668 24.0295 6.24307C23.9745 6.37946 23.9744 6.53114 24.0292 6.6676V6.63861Z" fill="black"/>
<path d="M23.1508 5.24132C23.1984 5.30184 23.2577 5.35263 23.3253 5.39078C23.3929 5.42893 23.4676 5.45369 23.5451 5.46365C23.6225 5.47361 23.7012 5.46858 23.7766 5.44883C23.8521 5.42909 23.9228 5.39502 23.9848 5.34857C24.0467 5.30213 24.0987 5.24422 24.1378 5.17815C24.1768 5.11207 24.2022 5.03913 24.2124 4.96349C24.2226 4.88785 24.2174 4.81099 24.1972 4.73729C24.177 4.6636 24.1421 4.59451 24.0946 4.53398C23.7018 4.03533 23.2561 3.57863 22.765 3.1715C22.6454 3.07155 22.49 3.02212 22.3331 3.03408C22.1761 3.04604 22.0304 3.11841 21.9281 3.23527C21.8258 3.35214 21.7752 3.50392 21.7874 3.65723C21.7997 3.81054 21.8738 3.95281 21.9934 4.05276C22.4209 4.4081 22.8089 4.80649 23.1508 5.24132V5.24132Z" fill="black"/>
<path d="M15.6662 2.26125H15.7434C16.2991 2.1792 16.862 2.15394 17.4231 2.18588C17.5011 2.19159 17.5794 2.18225 17.6536 2.15839C17.7279 2.13453 17.7966 2.09661 17.8559 2.04681C17.9151 1.99701 17.9637 1.9363 17.999 1.86814C18.0342 1.79999 18.0553 1.72572 18.0612 1.64958C18.067 1.57344 18.0575 1.49693 18.033 1.4244C18.0086 1.35187 17.9698 1.28475 17.9188 1.22688C17.8678 1.169 17.8057 1.1215 17.7359 1.08709C17.6661 1.05268 17.5901 1.03203 17.5121 1.02632C16.871 0.978437 16.2265 0.995925 15.5891 1.0785C15.4316 1.08849 15.2847 1.15916 15.1807 1.27496C15.0766 1.39076 15.0239 1.5422 15.0341 1.69596C15.0443 1.84973 15.1167 1.99323 15.2352 2.09489C15.3538 2.19656 15.5088 2.24805 15.6662 2.23806V2.26125Z" fill="black"/>
<path d="M12.3008 3.42662C12.4094 3.42764 12.5161 3.39957 12.6095 3.34545C13.0894 3.05875 13.5987 2.82169 14.129 2.63812C14.2043 2.61383 14.2739 2.57502 14.3337 2.52399C14.3934 2.47296 14.4421 2.41074 14.4768 2.34103C14.5115 2.27131 14.5315 2.1955 14.5357 2.11809C14.5399 2.04068 14.5281 1.96324 14.5011 1.89034C14.4741 1.81745 14.4324 1.75058 14.3785 1.69369C14.3246 1.63681 14.2596 1.59106 14.1872 1.55915C14.1149 1.52725 14.0368 1.50983 13.9574 1.50794C13.8781 1.50605 13.7992 1.51971 13.7254 1.54813C13.1203 1.75908 12.5394 2.03112 11.9922 2.35983C11.8828 2.42606 11.7984 2.52526 11.7517 2.64245C11.705 2.75964 11.6986 2.88848 11.7334 3.00954C11.7683 3.1306 11.8425 3.23731 11.9448 3.31359C12.0472 3.38986 12.1721 3.43157 12.3008 3.43242V3.42662Z" fill="black"/>
<path d="M9.49935 15.4861C9.59721 15.6008 9.73662 15.6742 9.88853 15.691C10.0404 15.7078 10.1931 15.6667 10.3148 15.5763C10.4364 15.4859 10.5177 15.3531 10.5416 15.2056C10.5655 15.0581 10.5302 14.9072 10.4431 14.7845C10.1036 14.3495 9.81115 13.8812 9.57057 13.3873C9.54077 13.3131 9.49566 13.2458 9.43806 13.1895C9.38045 13.1331 9.31158 13.089 9.23574 13.0598C9.1599 13.0306 9.07872 13.017 8.99725 13.0198C8.91579 13.0226 8.83578 13.0417 8.76223 13.0761C8.68868 13.1104 8.62315 13.1592 8.56974 13.2193C8.51632 13.2795 8.47616 13.3497 8.45177 13.4257C8.42737 13.5017 8.41926 13.5817 8.42793 13.6609C8.43661 13.7401 8.46188 13.8167 8.50219 13.8859C8.77716 14.4514 9.11133 14.9877 9.49935 15.4861V15.4861Z" fill="black"/>
<path d="M22.314 15.7006C21.905 16.0717 21.4574 16.4001 20.9785 16.6804C20.8691 16.7467 20.7847 16.8459 20.738 16.9631C20.6913 17.0802 20.6849 17.2091 20.7198 17.3301C20.7546 17.4512 20.8288 17.5579 20.9311 17.6342C21.0335 17.7105 21.1584 17.7522 21.2872 17.753C21.3963 17.7523 21.5031 17.7222 21.5958 17.6661C22.1445 17.3329 22.6558 16.9442 23.1212 16.5065C23.2226 16.3984 23.2784 16.2569 23.2772 16.1103C23.2761 15.9638 23.2182 15.8231 23.1151 15.7165C23.0121 15.61 22.8716 15.5456 22.7218 15.5361C22.5721 15.5267 22.4243 15.5731 22.3081 15.6658L22.314 15.7006Z" fill="black"/>
<path d="M24.2193 13.0162C24.0044 13.5215 23.7359 14.0035 23.418 14.4541C23.3729 14.5168 23.3409 14.5877 23.324 14.6627C23.3071 14.7376 23.3055 14.8151 23.3195 14.8906C23.3335 14.9661 23.3627 15.0382 23.4054 15.1026C23.4481 15.167 23.5034 15.2225 23.5682 15.2659C23.633 15.3092 23.706 15.3396 23.7829 15.3552C23.8599 15.3708 23.9392 15.3713 24.0163 15.3567C24.0934 15.3422 24.1668 15.3128 24.2323 15.2703C24.2977 15.2278 24.3538 15.1731 24.3974 15.1092C24.7648 14.5878 25.0752 14.03 25.3233 13.4452L24.7773 13.2133L24.2193 13.0162Z" fill="black"/>
<path d="M25.9999 9.76364C25.9975 9.6875 25.9799 9.61256 25.9479 9.54309C25.9159 9.47362 25.8702 9.41099 25.8134 9.35876C25.7567 9.30654 25.6899 9.26575 25.617 9.23873C25.5441 9.2117 25.4665 9.19897 25.3885 9.20125C25.3106 9.20353 25.2339 9.22079 25.1627 9.25204C25.0916 9.28329 25.0275 9.32791 24.974 9.38336C24.9206 9.43882 24.8788 9.50401 24.8511 9.57523C24.8235 9.64644 24.8104 9.72229 24.8128 9.79842C24.8128 9.8738 24.8128 9.94337 24.8128 10.0187C24.8132 10.4913 24.7695 10.9628 24.6822 11.4276C24.6676 11.5026 24.6683 11.5797 24.6843 11.6545C24.7003 11.7292 24.7312 11.8001 24.7753 11.8631C24.8195 11.9262 24.8759 11.9801 24.9414 12.0217C25.0069 12.0634 25.0802 12.092 25.157 12.106H25.2639C25.4044 12.1082 25.5412 12.0616 25.6499 11.9746C25.7586 11.8875 25.8321 11.7656 25.8574 11.6305C25.9548 11.0986 26.0025 10.5591 25.9999 10.0187C25.9999 9.93177 25.9999 9.8506 25.9999 9.76364Z" fill="black"/>
<path d="M21.4178 2.89901C21.4914 2.76362 21.5071 2.60527 21.4615 2.45859C21.4159 2.31191 21.3127 2.18884 21.1744 2.11631C20.8984 1.97108 20.6151 1.8395 20.3256 1.72206C20.0248 1.59859 19.7178 1.49022 19.4056 1.39738C19.2545 1.35355 19.0918 1.37017 18.9532 1.44356C18.8146 1.51695 18.7115 1.64111 18.6667 1.78873C18.6218 1.93635 18.6388 2.09533 18.7139 2.2307C18.7891 2.36606 18.9162 2.46673 19.0673 2.51056C19.3407 2.58195 19.6101 2.6671 19.8745 2.76566C20.1298 2.87002 20.3791 2.98598 20.6165 3.10773C20.7022 3.15294 20.798 3.17683 20.8954 3.17731C20.9999 3.17992 21.1032 3.15557 21.1949 3.1067C21.2866 3.05784 21.3635 2.9862 21.4178 2.89901V2.89901Z" fill="black"/>
<path d="M12.9716 16.8949C12.4787 16.6338 12.0152 16.3229 11.5886 15.9673C11.469 15.8673 11.3136 15.8179 11.1567 15.8299C10.9997 15.8418 10.8541 15.9142 10.7517 16.031C10.6494 16.1479 10.5988 16.2997 10.6111 16.453C10.6233 16.6063 10.6974 16.7486 10.817 16.8485C11.3055 17.2558 11.8367 17.6115 12.4018 17.9095C12.5403 17.9864 12.7044 18.0064 12.8581 17.9651C13.0117 17.9238 13.1422 17.8245 13.2209 17.6892C13.2996 17.5539 13.3201 17.3936 13.2778 17.2435C13.2355 17.0935 13.1339 16.966 12.9953 16.8891L12.9716 16.8949Z" fill="black"/>
<path d="M19.471 17.3936C18.944 17.5759 18.3989 17.7042 17.8447 17.7762C17.7667 17.7812 17.6905 17.8011 17.6205 17.8348C17.5504 17.8685 17.4878 17.9153 17.4363 17.9727C17.3847 18.03 17.3453 18.0967 17.3201 18.1689C17.295 18.2412 17.2846 18.3175 17.2897 18.3937C17.2948 18.4698 17.3151 18.5442 17.3496 18.6127C17.3842 18.6811 17.4321 18.7423 17.4908 18.7926C17.5495 18.8429 17.6178 18.8815 17.6918 18.9061C17.7657 18.9306 17.8439 18.9407 17.9218 18.9358H17.999C18.6362 18.853 19.2629 18.7053 19.8687 18.4951C20.0182 18.4436 20.1407 18.3362 20.2091 18.1965C20.2776 18.0568 20.2864 17.8962 20.2337 17.7501C20.181 17.604 20.071 17.4844 19.9279 17.4175C19.7849 17.3507 19.6205 17.342 19.471 17.3936V17.3936Z" fill="black"/>
<path d="M16.1649 17.84C15.6075 17.796 15.0565 17.6949 14.5207 17.5385C14.3696 17.4947 14.2069 17.5113 14.0683 17.5847C13.9297 17.6581 13.8266 17.7822 13.7818 17.9299C13.7369 18.0775 13.7539 18.2365 13.8291 18.3718C13.9042 18.5072 14.0313 18.6079 14.1824 18.6517C14.7993 18.8321 15.434 18.9487 16.0758 18.9996H16.1233C16.2807 19.0057 16.4342 18.9505 16.55 18.8461C16.6657 18.7418 16.7343 18.5967 16.7406 18.443C16.7469 18.2892 16.6904 18.1393 16.5836 18.0262C16.4767 17.9131 16.3282 17.8461 16.1708 17.84H16.1649Z" fill="black"/>
<path d="M10.4668 17.724C9.3732 17.91 8.252 17.8719 7.17426 17.6123C6.09652 17.3528 5.08575 16.8773 4.20603 16.216C3.32632 15.5548 2.59684 14.7222 2.06387 13.7711C1.53089 12.82 1.20603 11.7711 1.10989 10.6909C1.01374 9.61065 1.14841 8.52271 1.50536 7.49602C1.8623 6.46933 2.43373 5.52628 3.18343 4.72666C3.93312 3.92704 4.84472 3.2883 5.86043 2.85092C6.87614 2.41354 7.9738 2.18708 9.08382 2.18589C9.54736 2.18565 10.0101 2.22445 10.4668 2.30184C10.6242 2.32798 10.7858 2.29197 10.916 2.20172C11.0463 2.11148 11.1345 1.97439 11.1612 1.82062C11.188 1.66686 11.1511 1.509 11.0587 1.38179C10.9663 1.25457 10.826 1.16842 10.6686 1.14228C9.41947 0.944972 8.1421 1.00149 6.91636 1.30829C5.69061 1.61509 4.54283 2.16558 3.54477 2.92535C2.54671 3.68511 1.71983 4.63782 1.11582 5.72392C0.511809 6.81001 0.143657 8.00614 0.0343754 9.23752C-0.0749056 10.4689 0.0770348 11.7091 0.480698 12.8805C0.884362 14.0519 1.53107 15.1294 2.38039 16.0456C3.22972 16.9618 4.26339 17.697 5.41681 18.2053C6.57022 18.7136 7.81857 18.9839 9.08382 18.9995C9.61501 18.9995 10.1452 18.9549 10.6686 18.8662C10.7465 18.8532 10.8211 18.8254 10.888 18.7843C10.955 18.7432 11.013 18.6897 11.0587 18.6267C11.1045 18.5637 11.1371 18.4925 11.1547 18.4172C11.1723 18.3419 11.1745 18.264 11.1612 18.1878C11.148 18.1117 11.1195 18.0389 11.0774 17.9735C11.0354 17.9081 10.9805 17.8514 10.916 17.8067C10.8516 17.7621 10.7787 17.7302 10.7016 17.713C10.6245 17.6959 10.5447 17.6937 10.4668 17.7066V17.724Z" fill="black"/>
<path d="M14.4791 17.295C15.5424 16.5431 16.4286 15.5777 17.0783 14.4635C17.7279 13.3494 18.126 12.1124 18.2458 10.8355C18.3655 9.55869 18.2042 8.2716 17.7726 7.0607C17.3409 5.84981 16.649 4.74316 15.7433 3.81507C15.6896 3.75987 15.6252 3.71556 15.5539 3.68467C15.4826 3.65377 15.4057 3.6369 15.3277 3.63502C15.1702 3.63121 15.0176 3.68868 14.9035 3.79478C14.7894 3.90088 14.723 4.04692 14.7192 4.20077C14.7153 4.35463 14.7741 4.50369 14.8827 4.61517C15.6714 5.42369 16.2738 6.38771 16.6495 7.44247C17.0252 8.49723 17.1655 9.61831 17.0609 10.7304C16.9563 11.8425 16.6093 12.9199 16.0432 13.8901C15.4771 14.8604 14.705 15.7011 13.7787 16.3557C13.712 16.3989 13.6549 16.4547 13.6108 16.5199C13.5668 16.5851 13.5367 16.6584 13.5223 16.7352C13.508 16.8121 13.5097 16.891 13.5273 16.9672C13.545 17.0434 13.5782 17.1154 13.6251 17.1787C13.6719 17.2421 13.7314 17.2955 13.7999 17.3358C13.8684 17.3762 13.9445 17.4026 14.0237 17.4134C14.103 17.4243 14.1836 17.4194 14.2608 17.399C14.3381 17.3787 14.4103 17.3433 14.4732 17.295H14.4791Z" fill="black"/>
</svg>
