<svg width="16" height="16" viewBox="0 0 16 16" fill="none" xmlns="http://www.w3.org/2000/svg">
<path d="M14.479 7.28409L15.7318 8.73381C16.1972 9.23495 16.0361 10.0582 15.4097 10.3625L13.6736 11.2037C13.3335 11.3648 13.1009 11.7048 13.083 12.0807L12.9577 13.9957C12.9219 14.6759 12.2239 15.1412 11.5795 14.9085L9.75398 14.2642C9.39602 14.1389 9.00227 14.2105 8.71591 14.4611L7.26619 15.7318C6.74716 16.1972 5.94176 16.0361 5.6375 15.4097L4.7963 13.6736C4.63522 13.3335 4.29517 13.1009 3.91931 13.083L2.00425 12.9577C1.32414 12.9219 0.858797 12.2239 1.09147 11.5796L1.73579 9.75398C1.86107 9.39602 1.78948 9.00227 1.53891 8.71591L0.268171 7.26619C-0.197171 6.74716 -0.0360913 5.94176 0.59033 5.6375L2.32641 4.7963C2.66647 4.63522 2.89914 4.29517 2.91704 3.91931L3.04232 2.00425C3.07812 1.32414 3.77613 0.858796 4.42045 1.09147L6.24602 1.71789C6.60397 1.84317 6.99773 1.77158 7.28409 1.52101L8.73381 0.268171C9.25284 -0.197171 10.0582 -0.0360911 10.3625 0.59033L11.2037 2.32641C11.3648 2.66647 11.7048 2.89914 12.0807 2.91704L13.9957 3.04232C14.6759 3.07812 15.1412 3.77613 14.9085 4.42045L14.2821 6.24602C14.1568 6.60398 14.2284 6.99773 14.479 7.28409Z" fill="#FF0044"/>
</svg>
