<svg width="12" height="14" viewBox="0 0 12 14" fill="none" xmlns="http://www.w3.org/2000/svg">
<path d="M11.97 6.58674C11.788 7.84443 11.1628 9.00602 10.1968 9.8812C9.66135 10.3621 9.12082 10.8768 8.60049 11.3962C7.77707 12.2186 6.97385 13.0554 6.15548 13.8923C4.41265 12.233 2.7557 10.7517 1.22505 9.1646C0.35371 8.19055 -0.0815939 6.92999 0.0126449 5.65371C0.047546 4.30817 0.582363 3.01797 1.52206 2.01238C2.46177 1.00679 3.7455 0.350933 5.14515 0.161339C8.34791 -0.180131 11.0758 1.56088 11.8437 4.37921C11.9933 5.1059 12.0358 5.84889 11.97 6.58674ZM6.00898 7.73139C6.5225 7.72532 7.01357 7.53005 7.37906 7.18657C7.74454 6.8431 7.95601 6.37815 7.96903 5.88937C7.95736 5.40767 7.75625 4.94768 7.40547 4.60036C7.05468 4.25304 6.57977 4.04368 6.07466 4.0137C5.56301 4.02793 5.0761 4.22651 4.71229 4.5693C4.34847 4.9121 4.13486 5.37358 4.11461 5.86052C4.11802 6.34418 4.31655 6.8081 4.66914 7.15632C5.02174 7.50454 5.50142 7.71042 6.00898 7.73139Z" fill="#FF0044"/>
</svg>
