<svg width="14" height="14" viewBox="0 0 14 14" fill="none" xmlns="http://www.w3.org/2000/svg">
<path d="M13.125 1.799H0.875C0.758968 1.799 0.647688 1.8451 0.565641 1.92714C0.483594 2.00919 0.4375 2.12047 0.4375 2.2365C0.4375 2.35254 0.483594 2.46382 0.565641 2.54586C0.647688 2.62791 0.758968 2.674 0.875 2.674H13.125C13.241 2.674 13.3523 2.62791 13.4344 2.54586C13.5164 2.46382 13.5625 2.35254 13.5625 2.2365C13.5625 2.12047 13.5164 2.00919 13.4344 1.92714C13.3523 1.8451 13.241 1.799 13.125 1.799ZM13.125 6.5625H0.875C0.758968 6.5625 0.647688 6.6086 0.565641 6.69064C0.483594 6.77269 0.4375 6.88397 0.4375 7C0.4375 7.11604 0.483594 7.22732 0.565641 7.30936C0.647688 7.39141 0.758968 7.4375 0.875 7.4375H13.125C13.241 7.4375 13.3523 7.39141 13.4344 7.30936C13.5164 7.22732 13.5625 7.11604 13.5625 7C13.5625 6.88397 13.5164 6.77269 13.4344 6.69064C13.3523 6.6086 13.241 6.5625 13.125 6.5625ZM13.125 11.326H0.875C0.758968 11.326 0.647688 11.3721 0.565641 11.4541C0.483594 11.5362 0.4375 11.6475 0.4375 11.7635C0.4375 11.8795 0.483594 11.9908 0.565641 12.0729C0.647688 12.1549 0.758968 12.201 0.875 12.201H13.125C13.241 12.201 13.3523 12.1549 13.4344 12.0729C13.5164 11.9908 13.5625 11.8795 13.5625 11.7635C13.5625 11.6475 13.5164 11.5362 13.4344 11.4541C13.3523 11.3721 13.241 11.326 13.125 11.326Z" fill="white"/>
</svg>
