<svg width="21" height="21" viewBox="0 0 21 21" fill="none" xmlns="http://www.w3.org/2000/svg">
<path d="M6.125 9.62549L14.875 9.62549C15.1071 9.62549 15.3296 9.71768 15.4937 9.88177C15.6578 10.0459 15.75 10.2684 15.75 10.5005C15.75 10.7326 15.6578 10.9551 15.4937 11.1192C15.3296 11.2833 15.1071 11.3755 14.875 11.3755L6.125 11.3755C5.89294 11.3755 5.67038 11.2833 5.50628 11.1192C5.34219 10.9551 5.25 10.7326 5.25 10.5005C5.25 10.2684 5.34219 10.0459 5.50628 9.88177C5.67038 9.71768 5.89294 9.62549 6.125 9.62549Z" fill="#0A23A0"/>
<path d="M10.5001 5.25001C10.6731 5.25005 10.8422 5.30138 10.9861 5.39753C11.1299 5.49368 11.2421 5.63033 11.3083 5.79019C11.3745 5.95005 11.3918 6.12595 11.3581 6.29566C11.3243 6.46537 11.241 6.62127 11.1187 6.74364L7.36231 10.5L11.1187 14.2564C11.2781 14.4214 11.3663 14.6424 11.3643 14.8719C11.3623 15.1013 11.2703 15.3207 11.108 15.483C10.9458 15.6452 10.7263 15.7372 10.4969 15.7392C10.2675 15.7412 10.0465 15.653 9.88144 15.4936L5.50644 11.1186C5.3424 10.9545 5.25025 10.732 5.25025 10.5C5.25025 10.268 5.3424 10.0455 5.50644 9.88138L9.88144 5.50638C9.96259 5.42501 10.059 5.36047 10.1652 5.31648C10.2713 5.27248 10.3851 5.24989 10.5001 5.25001Z" fill="#0A23A0"/>
</svg>
