<svg width="8" height="8" viewBox="0 0 8 8" fill="none" xmlns="http://www.w3.org/2000/svg">
<path d="M4.351 6.83667C4.356 6.83067 4.358 6.82267 4.363 6.81667L7.85376 2.95993C8.04875 2.74295 8.04875 2.39097 7.85376 2.17399C7.85176 2.17199 7.84976 2.17099 7.84776 2.16999C7.80438 2.11745 7.75005 2.07501 7.68856 2.04565C7.62707 2.01629 7.55992 2.00071 7.49179 2H0.509265C0.439882 2.00112 0.371591 2.01746 0.309217 2.04787C0.246843 2.07828 0.191907 2.12202 0.14829 2.17599L0.14629 2.17399C0.0519268 2.28317 0 2.42265 0 2.56696C0 2.71127 0.0519268 2.85076 0.14629 2.95993L3.64505 6.83667C3.68861 6.88773 3.74272 6.92873 3.80366 6.95684C3.8646 6.98495 3.93091 6.99951 3.99803 6.99951C4.06514 6.99951 4.13145 6.98495 4.19239 6.95684C4.25333 6.92873 4.30744 6.88773 4.351 6.83667Z" fill="white"/>
</svg>
