<svg width="29" height="29" viewBox="0 0 29 29" fill="none" xmlns="http://www.w3.org/2000/svg">
<path d="M19.7222 10.9307C20.3716 10.2813 21.0164 8.76599 18.3104 10.606C15.7827 12.3457 13.2378 14.0603 10.6762 15.7496C10.2861 15.926 9.86444 16.0217 9.43644 16.031C9.00844 16.0403 8.58297 15.963 8.1856 15.8037C6.56205 15.3167 4.66674 14.6672 4.66674 14.6672C4.66674 14.6672 3.3726 13.8543 5.58792 12.9884C5.58792 12.9884 14.9539 9.14482 18.2022 7.79068C19.4469 7.2495 23.6693 5.51772 23.6693 5.51772C23.6693 5.51772 25.6188 4.75888 25.4564 6.60008C25.4023 7.35774 24.9693 10.0119 24.5364 12.8802C23.8858 16.9402 23.1823 21.3803 23.1823 21.3803C23.1823 21.3803 23.074 22.625 22.154 22.8415C21.1692 22.8248 20.2176 22.4822 19.4481 21.8673C19.2316 21.705 15.388 19.2685 13.9798 18.0779C13.8365 17.9808 13.7202 17.8491 13.6415 17.695C13.5628 17.5409 13.5244 17.3694 13.5298 17.1965C13.5352 17.0236 13.5842 16.8548 13.6724 16.7059C13.7605 16.557 13.8849 16.4328 14.0339 16.3449C15.9654 14.5777 17.8619 12.7727 19.7222 10.9307Z" fill="black"/>
</svg>
