<svg width="29" height="29" viewBox="0 0 29 29" fill="none" xmlns="http://www.w3.org/2000/svg">
<path d="M27.4111 11.4241C27.4693 9.74012 27.101 8.06876 26.3405 6.56519C25.8245 5.94824 25.1084 5.5319 24.3169 5.38871C21.0434 5.09168 17.7563 4.96993 14.4697 5.024C11.1952 4.96748 7.91991 5.08529 4.65786 5.37694C4.01293 5.49426 3.4161 5.79676 2.94019 6.24754C1.88135 7.22403 1.7637 8.89464 1.64606 10.3064C1.47536 12.8448 1.47536 15.3917 1.64606 17.93C1.68009 18.7246 1.7984 19.5134 1.999 20.283C2.14086 20.8772 2.42786 21.427 2.83431 21.883C3.31345 22.3577 3.92418 22.6774 4.58727 22.8007C7.12367 23.1138 9.67935 23.2435 12.2344 23.1889C16.3521 23.2478 19.9639 23.1889 24.2346 22.8595C24.9139 22.7438 25.5419 22.4237 26.0346 21.9419C26.364 21.6123 26.61 21.209 26.7523 20.7654C27.173 19.4743 27.3796 18.1231 27.364 16.7653C27.4111 16.1065 27.4111 12.13 27.4111 11.4241ZM11.8109 17.4712V10.1888L18.7757 13.8476C16.8227 14.93 14.2462 16.1535 11.8109 17.4712Z" fill="black"/>
</svg>
